<?xml version="1.0" encoding="utf-8"?>
<!-- Generator: Adobe Illustrator 15.0.0, SVG Export Plug-In  -->
<!DOCTYPE svg PUBLIC "-//W3C//DTD SVG 1.1//EN" "http://www.w3.org/Graphics/SVG/1.1/DTD/svg11.dtd" [
	<!ENTITY ns_flows "http://ns.adobe.com/Flows/1.0/">
]>
<svg version="1.1"
	 xmlns="http://www.w3.org/2000/svg" xmlns:xlink="http://www.w3.org/1999/xlink" xmlns:a="http://ns.adobe.com/AdobeSVGViewerExtensions/3.0/"
	 x="0px" y="0px" width="80px" height="120px" viewBox="-12.148 -24.03 80 120"
	 overflow="visible" enable-background="new -12.148 -24.03 80 120" xml:space="preserve">
<defs>
</defs>
<g id="XMLID_3_">
	<g>
		<path fill="#1A171B" d="M56.794,36.558l-2.736,21.76c0.128-1.504-0.128-2.96-0.656-4.352l2.192-17.408
			c0-4.176-1.04-8.112-2.88-11.536c0.416-0.048,0.8-0.176,1.168-0.368C55.786,28.317,56.794,32.397,56.794,36.558z"/>
		<path fill="#1A171B" d="M55.722,17.054v4.528c0,1.328-0.752,2.48-1.84,3.072c-0.192-0.368-0.384-0.72-0.592-1.056
			c0.735-0.384,1.231-1.136,1.231-2.016v-4.528c0-0.832-0.447-1.552-1.12-1.952c0.064-0.24,0.064-0.512-0.048-0.768
			c-0.096-0.224-0.176-0.432-0.288-0.64C54.586,14.045,55.722,15.421,55.722,17.054z"/>
		<path fill="#1A171B" d="M55.594,36.558l-2.192,17.408c-0.256-0.704-0.575-1.393-0.943-2.048l1.952-15.504
			c-0.017-3.904-1.072-7.872-3.057-11.36h0.896c0.16,0,0.319-0.016,0.464-0.032C54.554,28.446,55.594,32.381,55.594,36.558z"/>
		<path fill="#1A171B" d="M54.521,17.054v4.528c0,0.88-0.496,1.632-1.231,2.016c-0.064-0.128-0.128-0.24-0.208-0.368
			c-0.225-0.368-0.624-0.576-1.024-0.576h0.192c0.592,0,1.072-0.48,1.072-1.072v-4.528c0-0.576-0.496-1.072-1.072-1.072
			c0.16,0,0.304-0.032,0.464-0.08c0.352-0.144,0.608-0.448,0.688-0.8C54.074,15.501,54.521,16.222,54.521,17.054z"/>
		<path fill="#D39F10" d="M54.41,36.414l-1.952,15.504c-2.032-3.664-5.473-6.576-7.232-7.937l0.08-0.096
			c0.225-0.288,0.416-0.561,0.496-0.72c0.16-0.192,0.272-0.385,0.352-0.545c0.465-0.768,0.801-1.535,1.009-2.224
			c0.016-0.048,0.031-0.08,0.031-0.128c0.064-0.16,0.097-0.32,0.129-0.448c0-0.031,0.016-0.063,0.016-0.08
			c0.112-0.367,0.16-0.688,0.192-0.96c0.016-0.176,0.031-0.256,0.016-0.256c0-0.063,0.016-0.112,0.016-0.16
			c0.017-0.128,0.017-0.208,0.017-0.208c0-3.375-2.752-6.127-6.128-6.127s-6.112,2.752-6.112,6.127v10.017h-2.224v-7.601
			c0-7.824-2.816-10.176-4.464-10.896v-4.624h22.704C53.338,28.542,54.394,32.51,54.41,36.414z"/>
		<path fill="#1A171B" d="M53.401,53.966c0.528,1.392,0.784,2.848,0.656,4.352l-0.048,0.368l-0.016,0.112
			c-0.177,0.527-0.704,0.896-1.28,0.832c-0.016,0-0.016,0-0.032,0l0.145-1.088l0.016-0.112L53.401,53.966z"/>
		<path fill="#1A171B" d="M54.01,58.686l0.048-0.368c0,0.08,0,0.16-0.016,0.256C54.042,58.605,54.025,58.653,54.01,58.686z"/>
		<path fill="#1A171B" d="M53.994,58.798L52.649,69.47c0.017,3.184-2.703,5.904-6.048,5.904H28.746c-1.312,0-2.56-0.4-3.568-1.168
			c0.112-0.064,0.24-0.112,0.352-0.16l0.32-0.145c0.208-0.096,0.416-0.191,0.624-0.288c0.672,0.368,1.456,0.561,2.272,0.561h17.856
			c2.688,0,4.864-2.176,4.864-4.864l1.216-9.68c0.017,0,0.017,0,0.032,0C53.29,59.693,53.817,59.325,53.994,58.798z"/>
		<path fill="#1A171B" d="M53.29,23.598c0.208,0.336,0.399,0.688,0.592,1.056c-0.368,0.192-0.752,0.32-1.168,0.368
			c-0.208-0.4-0.432-0.784-0.656-1.168h0.192C52.634,23.854,52.985,23.758,53.29,23.598z"/>
		<path fill="#1A171B" d="M53.354,14.333c0.112,0.256,0.112,0.528,0.048,0.768c-0.336-0.208-0.735-0.32-1.151-0.32
			c-0.176-0.4-0.353-0.8-0.561-1.2h0.561c0.288,0,0.544,0.032,0.815,0.112C53.178,13.901,53.258,14.109,53.354,14.333z"/>
		<path fill="#1A171B" d="M53.401,53.966l-0.56,4.464c0.16-1.472-0.112-2.928-0.656-4.304l0.272-2.208
			C52.826,52.573,53.146,53.262,53.401,53.966z"/>
		<path fill="#D39F10" d="M53.322,17.054v4.528c0,0.592-0.48,1.072-1.072,1.072h-0.192h-0.8c-0.064-0.128-0.144-0.24-0.24-0.368
			v-6.304h1.232C52.826,15.981,53.322,16.478,53.322,17.054z"/>
		<path fill="#1A171B" d="M53.082,23.229c0.08,0.128,0.144,0.24,0.208,0.368c-0.305,0.16-0.656,0.256-1.04,0.256h-0.192
			c-0.208-0.336-0.416-0.672-0.656-0.992c0,0,0.017-0.032,0.032-0.032c0.192-0.112,0.4-0.176,0.624-0.176
			C52.458,22.654,52.857,22.861,53.082,23.229z"/>
		<path fill="#1A171B" d="M53.401,15.102c-0.079,0.352-0.336,0.656-0.688,0.8c-0.16,0.048-0.304,0.08-0.464,0.08
			c-0.464,0-0.912-0.272-1.104-0.736c-0.031-0.096-0.08-0.192-0.128-0.272v-0.192h1.232C52.666,14.782,53.065,14.894,53.401,15.102z
			"/>
		<path fill="#1A171B" d="M52.186,54.126c0.544,1.376,0.816,2.832,0.656,4.304l-0.016,0.112l-0.145,1.088
			c-0.607-0.097-1.04-0.624-1.04-1.217v-0.031L52.186,54.126z"/>
		<path fill="#1A171B" d="M52.058,23.854c0.225,0.384,0.448,0.768,0.656,1.168c-0.145,0.016-0.304,0.032-0.464,0.032h-0.896
			c-0.096-0.192-0.208-0.384-0.319-0.576c-0.128-0.192-0.177-0.416-0.177-0.624h0.16H52.058z"/>
		<path fill="#1A171B" d="M52.682,59.63l-1.216,9.68c0,2.688-2.176,4.864-4.864,4.864H28.746c-0.816,0-1.6-0.192-2.272-0.561
			c0.592-0.239,1.136-0.479,1.616-0.704c0.224,0.049,0.432,0.064,0.656,0.064h17.856c2.017,0,3.664-1.632,3.664-3.664l1.376-10.896
			C51.642,59.006,52.074,59.533,52.682,59.63z"/>
		<path fill="#1A171B" d="M53.065,13.693c-0.271-0.08-0.527-0.112-0.815-0.112h-0.561c-2.016-4.128-5.536-7.536-9.92-9.664
			c-1.792-1.664-4.304-2.976-7.792-3.472C42.426,1.374,49.834,6.51,53.065,13.693z"/>
		<path fill="#1A171B" d="M52.458,51.918l-0.272,2.208c-1.664-4.257-5.872-7.809-7.775-9.248c0.336-0.465,0.304-1.12-0.112-1.536
			c-0.016-0.017-0.048-0.032-0.064-0.048c0.049-0.049,0.08-0.097,0.112-0.128c0.192-0.257,0.368-0.496,0.512-0.736
			c0.097-0.112,0.177-0.24,0.225-0.353c0.016-0.031,0.032-0.048,0.048-0.079c0.192-0.32,0.352-0.641,0.496-0.944
			c0.032,0.016,0.048,0.032,0.08,0.032c0.111,0.048,0.224,0.063,0.336,0.063c0.464,0,0.928-0.288,1.12-0.752
			c-0.208,0.688-0.544,1.456-1.009,2.224c-0.079,0.16-0.191,0.353-0.352,0.545c-0.08,0.159-0.271,0.432-0.496,0.72l-0.08,0.096
			C46.985,45.342,50.426,48.254,52.458,51.918z"/>
		<path fill="#1A171B" d="M51.689,13.582c0.208,0.4,0.385,0.8,0.561,1.2h-1.232h-0.08c-0.176-0.4-0.368-0.8-0.592-1.2H51.689z"/>
		<path fill="#1A171B" d="M52.25,15.981h-1.232v-1.008c0.048,0.08,0.097,0.176,0.128,0.272
			C51.338,15.709,51.786,15.981,52.25,15.981z"/>
		<path fill="#1A171B" d="M52.186,54.126l-0.544,4.256c0-0.032,0-0.064,0-0.08c0.608-5.521-5.855-10.88-8.111-12.576
			c0.256-0.224,0.512-0.448,0.752-0.688c0.048-0.048,0.096-0.096,0.128-0.159C46.313,46.317,50.521,49.869,52.186,54.126z"/>
		<path fill="#1A171B" d="M51.401,22.861c0.24,0.32,0.448,0.656,0.656,0.992h-1.04v-0.592
			C51.114,23.102,51.242,22.958,51.401,22.861z"/>
		<path fill="#1A171B" d="M51.258,22.654h0.8c-0.224,0-0.432,0.064-0.624,0.176c-0.016,0-0.032,0.032-0.032,0.032
			C51.37,22.782,51.322,22.718,51.258,22.654z"/>
		<path fill="#FFFFFF" d="M43.53,45.726c2.256,1.696,8.72,7.056,8.111,12.576c0,0.016,0,0.048,0,0.08v0.031L50.266,69.31
			c0,2.032-1.647,3.664-3.664,3.664H28.746c-0.224,0-0.432-0.016-0.656-0.064c1.424-0.624,2.32-1.008,2.32-1.008
			c2.544-0.768,7.328-3.728,7.328-9.439V38.157c0-2.048,1.663-3.728,3.712-3.728c2.048,0,3.728,1.68,3.728,3.712l-0.032,0.271
			c0,0.032-0.016,0.129-0.016,0.16c-0.016,0.145-0.048,0.32-0.128,0.641c0,0.016-0.017,0.048-0.017,0.063
			c-0.016,0.064-0.031,0.145-0.096,0.336c-0.176,0.593-0.448,1.185-0.815,1.809c-0.049,0.096-0.097,0.191-0.24,0.399
			c-0.128,0.208-0.288,0.416-0.384,0.544l-0.385,0.464c-0.159,0.16-0.319,0.337-0.479,0.496c-0.017,0.017-0.032,0.032-0.032,0.049
			c-0.864,0.832-1.824,1.52-2.976,2.111c-0.593,0.305-0.832,1.024-0.528,1.616c0.224,0.416,0.64,0.64,1.072,0.64
			c0.191,0,0.368-0.031,0.544-0.128C41.722,47.069,42.682,46.445,43.53,45.726z"/>
		<path fill="#1A171B" d="M51.689,13.582h-1.344c-1.488-2.768-3.696-5.152-6.368-6.976c-0.576-0.944-1.296-1.856-2.208-2.688
			C46.153,6.045,49.674,9.454,51.689,13.582z"/>
		<path fill="#1A171B" d="M51.258,22.654c0.064,0.064,0.112,0.128,0.144,0.208c-0.159,0.096-0.287,0.24-0.384,0.4v-0.608H51.258z"/>
		<path fill="#1A171B" d="M51.034,24.478c0.111,0.192,0.224,0.384,0.319,0.576H28.65v-1.2h1.152h1.2h1.2h2.304h1.2h1.2h2.304h1.2
			h1.199h2.305h1.2h1.199h2.305h1.199h1.04C50.857,24.062,50.906,24.286,51.034,24.478z"/>
		<path fill="#D39F10" d="M51.018,22.286c0.097,0.128,0.176,0.24,0.24,0.368h-0.24V22.286z"/>
		<path fill="#1A171B" d="M51.018,23.262v0.592h-0.16C50.857,23.646,50.922,23.438,51.018,23.262z"/>
		<path fill="#1A171B" d="M51.018,22.654v0.608c-0.096,0.176-0.16,0.384-0.16,0.592h-1.04v-1.2H51.018z"/>
		<path fill="#1A171B" d="M51.018,22.286v0.368h-1.2v-1.92C50.233,21.229,50.634,21.758,51.018,22.286z"/>
		<path fill="#1A171B" d="M51.018,15.981v6.304c-0.384-0.528-0.784-1.056-1.2-1.552v-4.752H51.018z"/>
		<path fill="#1A171B" d="M51.018,14.974v1.008h-1.2v-1.2h1.12C50.97,14.846,51.002,14.91,51.018,14.974z"/>
		<path fill="#1A171B" d="M51.018,14.782v0.192c-0.016-0.064-0.048-0.128-0.08-0.192H51.018z"/>
		<path fill="#1A171B" d="M50.938,14.782h-1.12h-1.199h-2.305c0-0.112,0-0.544-0.063-1.2h4.096
			C50.569,13.981,50.762,14.381,50.938,14.782z"/>
		<path fill="#D39F10" d="M50.346,13.582H46.25c-0.145-1.552-0.641-4.352-2.272-6.976C46.649,8.43,48.857,10.813,50.346,13.582z"/>
		<rect x="48.618" y="22.654" fill="#1A171B" width="1.199" height="1.2"/>
		<path fill="#1A171B" d="M49.817,20.733v1.92h-1.199v-3.232C49.034,19.837,49.434,20.286,49.817,20.733z"/>
		<path fill="#1A171B" d="M49.817,15.981v4.752c-0.384-0.448-0.783-0.896-1.199-1.312v-3.44H49.817z"/>
		<rect x="48.618" y="14.782" fill="#1A171B" width="1.199" height="1.2"/>
		<rect x="46.313" y="22.654" fill="#1A171B" width="2.305" height="1.2"/>
		<path fill="#D39F10" d="M48.618,19.421v3.232h-2.305v-5.328C47.13,17.965,47.897,18.669,48.618,19.421z"/>
		<path fill="#D39F10" d="M48.618,15.981v3.44c-0.721-0.752-1.488-1.456-2.305-2.096v-1.344H48.618z"/>
		<polygon fill="#1A171B" points="48.618,14.782 48.618,15.981 46.313,15.981 46.313,14.83 46.313,14.782 		"/>
		<path fill="#1A171B" d="M47.578,38.157c0,0,0,0.08-0.017,0.208c-0.016-0.655-0.544-1.136-1.216-1.136c-0.016,0-0.032,0-0.048,0
			c-0.448-2.272-2.448-4-4.848-4c-2.704,0-4.912,2.208-4.912,4.928v2.416v6.4v15.488c0,6.336-6.48,8.288-6.48,8.288
			s-1.376,0.592-3.488,1.52c-0.128-0.096-0.24-0.208-0.352-0.32c-0.32-0.319-0.784-0.416-1.184-0.304c2.688-1.184,4.544-2,4.544-2
			c0.368-0.112,5.76-1.84,5.76-7.184V48.174V38.157c0-3.375,2.736-6.127,6.112-6.127S47.578,34.782,47.578,38.157z"/>
		<path fill="#1A171B" d="M47.562,38.365c0,0.048-0.016,0.097-0.016,0.16c0.016,0,0,0.08-0.016,0.256
			c-0.032,0.177-0.097,0.32-0.177,0.464c-0.096-0.447-0.447-0.815-0.928-0.928c-0.016,0-0.048-0.016-0.064,0
			c0.017-0.096,0.017-0.16,0.017-0.16c0-0.319-0.032-0.624-0.08-0.928c0.016,0,0.032,0,0.048,0
			C47.018,37.229,47.546,37.71,47.562,38.365z"/>
		<path fill="#1A171B" d="M47.53,38.781c-0.032,0.272-0.08,0.593-0.192,0.96c0.032-0.176,0.032-0.336,0.016-0.496
			C47.434,39.102,47.498,38.958,47.53,38.781z"/>
		<path fill="#1A171B" d="M47.354,39.245c0.017,0.16,0.017,0.32-0.016,0.496c0,0.017-0.016,0.049-0.016,0.08
			c-0.032,0.145-0.08,0.305-0.129,0.448c0,0.048-0.016,0.08-0.031,0.128c-0.192,0.464-0.656,0.752-1.12,0.752
			c-0.112,0-0.225-0.016-0.336-0.063c-0.032,0-0.048-0.017-0.08-0.032c0.176-0.4,0.32-0.769,0.416-1.104
			c0.016-0.048,0.032-0.111,0.048-0.159c0.016,0.016,0.048,0.016,0.063,0.016c0.064,0.016,0.112,0.016,0.177,0.016
			C46.746,39.821,47.13,39.598,47.354,39.245z"/>
		<path fill="#1A171B" d="M47.193,40.27c0.049-0.144,0.097-0.304,0.129-0.448C47.29,39.949,47.258,40.109,47.193,40.27z"/>
		<path fill="#1A171B" d="M46.426,38.317c0.48,0.112,0.832,0.48,0.928,0.928c-0.224,0.353-0.607,0.576-1.023,0.576
			c-0.064,0-0.112,0-0.177-0.016c-0.016,0-0.048,0-0.063-0.016c0.016-0.049,0.032-0.112,0.048-0.16s0.016-0.097,0.032-0.145
			c0.096-0.336,0.144-0.607,0.16-0.832c0.016-0.111,0.031-0.191,0.031-0.271c0-0.017,0-0.048,0-0.064
			C46.378,38.302,46.41,38.317,46.426,38.317z"/>
		<path fill="#1A171B" d="M46.378,38.157c0,0,0,0.064-0.017,0.16c-0.479-0.096-0.96,0.145-1.216,0.544
			c-0.016-0.096-0.016-0.191-0.016-0.288c0-0.031,0.016-0.128,0.016-0.16c0.032-0.607,0.544-1.151,1.152-1.184
			C46.346,37.533,46.378,37.838,46.378,38.157z"/>
		<path fill="#1A171B" d="M46.361,38.317c0,0.017,0,0.048,0,0.064c0,0.08-0.016,0.16-0.031,0.271
			c-0.017,0.225-0.064,0.496-0.16,0.832c-0.017,0.048-0.017,0.097-0.032,0.145s-0.032,0.096-0.048,0.16
			c-0.48-0.08-0.832-0.448-0.944-0.896c0,0,0.017-0.016,0-0.032C45.401,38.462,45.882,38.222,46.361,38.317z"/>
		<rect x="45.114" y="22.654" fill="#1A171B" width="1.199" height="1.2"/>
		<path fill="#1A171B" d="M46.313,17.326v5.328h-1.199V16.43C45.53,16.718,45.93,17.005,46.313,17.326z"/>
		<path fill="#1A171B" d="M46.313,15.981v1.344c-0.384-0.32-0.783-0.608-1.199-0.896v-0.448H46.313z"/>
		<path fill="#1A171B" d="M46.313,14.83v1.152h-1.199C45.754,15.981,46.298,15.47,46.313,14.83z"/>
		<path fill="#1A171B" d="M46.313,14.782v0.048c-0.016,0.64-0.56,1.152-1.199,1.152v-1.2H46.313z"/>
		<path fill="#1A171B" d="M46.25,13.582c0.063,0.656,0.063,1.088,0.063,1.2h-1.199c0,0,0.016-0.448-0.064-1.2H46.25z"/>
		<path fill="#1A171B" d="M46.25,13.582h-1.2c-0.176-1.904-0.896-5.728-3.84-8.576c0.976,0.448,1.888,0.992,2.768,1.6
			C45.609,9.229,46.105,12.03,46.25,13.582z"/>
		<path fill="#1A171B" d="M46.09,39.79c0.016-0.064,0.032-0.112,0.048-0.16C46.122,39.678,46.105,39.741,46.09,39.79z"/>
		<path fill="#1A171B" d="M46.09,39.79c-0.016,0.048-0.032,0.111-0.048,0.159c-0.096,0.336-0.24,0.704-0.416,1.104
			c-0.592-0.208-0.912-0.848-0.736-1.44c0.064-0.191,0.08-0.271,0.096-0.336c0-0.016,0.017-0.048,0.017-0.063
			c0.032-0.112,0.08-0.225,0.144-0.32C45.258,39.342,45.609,39.71,46.09,39.79z"/>
		<path fill="#1A171B" d="M45.626,41.054c-0.145,0.304-0.304,0.624-0.496,0.944c-0.016,0.031-0.032,0.048-0.048,0.079
			c-0.064,0.112-0.128,0.24-0.225,0.353c-0.144,0.24-0.319,0.479-0.512,0.736c-0.032,0.031-0.063,0.079-0.112,0.128
			c-0.464-0.433-1.184-0.416-1.632,0.031h-0.016c0.16-0.159,0.32-0.336,0.479-0.496l0.385-0.464
			c0.096-0.128,0.256-0.336,0.384-0.544c0.144-0.208,0.191-0.304,0.24-0.399c0.367-0.624,0.64-1.216,0.815-1.809
			C44.714,40.206,45.034,40.846,45.626,41.054z"/>
		<path fill="#1A171B" d="M41.45,33.229c2.399,0,4.399,1.728,4.848,4c-0.608,0.032-1.12,0.576-1.152,1.184l0.032-0.271
			c0-2.032-1.68-3.712-3.728-3.712c-2.049,0-3.712,1.68-3.712,3.728v24.305c0,5.712-4.784,8.672-7.328,9.439
			c0,0-0.896,0.384-2.32,1.008c-0.56-0.08-1.072-0.304-1.52-0.64c2.112-0.928,3.488-1.52,3.488-1.52s6.48-1.952,6.48-8.288V46.974
			v-6.4v-2.416C36.538,35.438,38.746,33.229,41.45,33.229z"/>
		<path fill="#1A171B" d="M45.146,38.861c0.017,0.017,0,0.032,0,0.032c-0.063,0.096-0.111,0.208-0.144,0.32
			c0.08-0.32,0.112-0.496,0.128-0.641C45.13,38.67,45.13,38.766,45.146,38.861z"/>
		<rect x="43.914" y="22.654" fill="#1A171B" width="1.2" height="1.2"/>
		<path fill="#1A171B" d="M45.114,16.43v6.224h-1.2v-6.672h0.527C44.666,16.109,44.89,16.27,45.114,16.43z"/>
		<path fill="#1A171B" d="M45.114,15.981v0.448c-0.225-0.16-0.448-0.32-0.673-0.448h0.641
			C45.098,15.981,45.098,15.981,45.114,15.981z"/>
		<path fill="#1A171B" d="M45.114,14.782v1.2c-0.017,0-0.017,0-0.032,0c-0.624-0.016-1.136-0.512-1.168-1.136v-0.064H45.114z"/>
		<path fill="#1A171B" d="M45.05,13.582c0.08,0.752,0.064,1.2,0.064,1.2h-1.2c0-0.016,0-0.016,0-0.032
			c0-0.08,0.016-0.512-0.048-1.168H45.05z"/>
		<path fill="#1A171B" d="M45.082,15.981h-0.641c-0.176-0.128-0.352-0.24-0.527-0.352v-0.784
			C43.946,15.47,44.458,15.965,45.082,15.981z"/>
		<path fill="#1A171B" d="M45.05,13.582h-1.184c-0.192-2-1.04-6.08-4.624-8.64c-0.208-0.352-0.433-0.688-0.688-1.024
			c0.912,0.288,1.808,0.656,2.656,1.088C44.153,7.854,44.874,11.678,45.05,13.582z"/>
		<path fill="#1A171B" d="M45.082,42.077c-0.048,0.112-0.128,0.24-0.225,0.353C44.954,42.317,45.018,42.189,45.082,42.077z"/>
		<path fill="#1A171B" d="M44.298,43.342c0.416,0.416,0.448,1.071,0.112,1.536c-0.608-0.465-0.977-0.704-0.977-0.704
			c0.176-0.176,0.353-0.368,0.513-0.544c0.111-0.112,0.207-0.225,0.287-0.336C44.25,43.31,44.282,43.325,44.298,43.342z"/>
		<path fill="#1A171B" d="M44.441,15.981h-0.527v-0.352C44.09,15.742,44.266,15.854,44.441,15.981z"/>
		<path fill="#1A171B" d="M44.41,44.878c-0.032,0.063-0.08,0.111-0.128,0.159c-0.24,0.24-0.496,0.465-0.752,0.688
			c-0.465-0.336-0.753-0.528-0.769-0.544c-0.288-0.208-0.479-0.528-0.528-0.88c-0.031-0.353,0.08-0.688,0.32-0.928
			c0-0.017,0.016-0.032,0.032-0.049h0.016c0.448-0.447,1.168-0.464,1.632-0.031c-0.08,0.111-0.176,0.224-0.287,0.336
			c-0.16,0.176-0.337,0.368-0.513,0.544C43.434,44.174,43.802,44.413,44.41,44.878z"/>
		<path fill="#1A171B" d="M43.914,14.782v0.064v0.784c-0.48-0.304-0.992-0.592-1.504-0.848H43.914z"/>
		<rect x="41.609" y="22.654" fill="#1A171B" width="2.305" height="1.2"/>
		<rect x="41.609" y="15.981" fill="#D39F10" width="2.305" height="6.672"/>
		<path fill="#1A171B" d="M43.914,15.629v0.352h-2.305v-1.136v-0.064h0.801C42.922,15.038,43.434,15.326,43.914,15.629z"/>
		<path fill="#1A171B" d="M43.914,14.75c0,0.016,0,0.016,0,0.032H42.41c-0.272-0.144-0.528-0.272-0.801-0.4
			c0-0.16,0-0.368-0.016-0.592c0-0.064,0-0.128-0.016-0.208h2.288C43.93,14.238,43.914,14.669,43.914,14.75z"/>
		<path fill="#D39F10" d="M43.866,13.582h-2.288c-0.08-1.808-0.513-5.568-2.336-8.64C42.826,7.501,43.674,11.582,43.866,13.582z"/>
		<path fill="#1A171B" d="M42.762,45.182c0.016,0.016,0.304,0.208,0.769,0.544c-0.849,0.72-1.809,1.344-2.864,1.888
			c-0.176,0.097-0.353,0.128-0.544,0.128c-0.433,0-0.849-0.224-1.072-0.64c-0.304-0.592-0.064-1.312,0.528-1.616
			c1.151-0.592,2.111-1.279,2.976-2.111c-0.24,0.239-0.352,0.575-0.32,0.928C42.282,44.653,42.474,44.974,42.762,45.182z"/>
		<path fill="#1A171B" d="M42.41,14.782h-0.801c0-0.08,0-0.208,0-0.4C41.882,14.51,42.138,14.638,42.41,14.782z"/>
		<path fill="#1A171B" d="M41.77,3.917c0.912,0.832,1.632,1.744,2.208,2.688c-0.88-0.608-1.792-1.152-2.768-1.6
			c-1.024-0.992-2.32-1.872-3.952-2.496c-0.112-0.112-0.24-0.224-0.368-0.336C38.618,2.574,40.25,3.166,41.77,3.917z"/>
		<rect x="40.41" y="22.654" fill="#1A171B" width="1.199" height="1.2"/>
		<rect x="40.41" y="15.981" fill="#1A171B" width="1.199" height="6.672"/>
		<polygon fill="#1A171B" points="41.609,14.846 41.609,15.981 40.41,15.981 40.41,14.797 		"/>
		<polygon fill="#1A171B" points="41.609,14.782 41.609,14.846 40.41,14.797 40.41,14.782 		"/>
		<path fill="#1A171B" d="M41.609,14.381c0,0.192,0,0.32,0,0.4H40.41c0,0,0.016-0.352-0.017-0.944
			C40.81,13.998,41.21,14.173,41.609,14.381z"/>
		<path fill="#1A171B" d="M41.594,13.79c0.016,0.224,0.016,0.432,0.016,0.592c-0.399-0.208-0.8-0.384-1.216-0.544
			c0-0.08,0-0.176-0.016-0.256h1.2C41.594,13.662,41.594,13.726,41.594,13.79z"/>
		<path fill="#1A171B" d="M41.578,13.582h-1.2c-0.128-2.272-0.736-7.184-3.744-10.016c1.008,0.368,1.856,0.832,2.608,1.376
			C41.065,8.014,41.498,11.773,41.578,13.582z"/>
		<rect x="39.21" y="22.654" fill="#1A171B" width="1.2" height="1.2"/>
		<rect x="39.21" y="15.981" fill="#1A171B" width="1.2" height="6.672"/>
		<polygon fill="#1A171B" points="40.41,14.797 40.41,15.981 39.21,15.981 39.21,14.782 40.105,14.782 40.41,14.782 		"/>
		<path fill="#1A171B" d="M40.394,13.837c0.032,0.592,0.017,0.944,0.017,0.944h-0.305l-0.896-0.048c0-0.032,0.016-0.336-0.017-0.832
			c0-0.096-0.016-0.208-0.016-0.32h0.561C39.962,13.662,40.186,13.742,40.394,13.837z"/>
		<path fill="#1A171B" d="M40.378,13.582c0.016,0.08,0.016,0.176,0.016,0.256c-0.208-0.096-0.432-0.176-0.655-0.256H40.378z"/>
		<path fill="#1A171B" d="M40.378,13.582h-0.64c-0.192-0.08-0.385-0.144-0.576-0.224c-0.16-2.48-0.849-6.704-3.488-9.024
			c-0.16-0.448-0.352-0.864-0.56-1.232c0.544,0.128,1.056,0.288,1.52,0.464C39.642,6.397,40.25,11.31,40.378,13.582z"/>
		<path fill="#1A171B" d="M40.105,14.782H39.21h-2.304c0.016-0.16,0.031-0.592,0.031-1.2h2.24c0,0.112,0.016,0.224,0.016,0.32
			c0.032,0.496,0.017,0.8,0.017,0.832L40.105,14.782z"/>
		<path fill="#1A171B" d="M39.738,13.582h-0.561c0-0.064,0-0.144-0.016-0.224C39.354,13.438,39.546,13.501,39.738,13.582z"/>
		<rect x="36.906" y="22.654" fill="#1A171B" width="2.304" height="1.2"/>
		<rect x="36.906" y="15.981" fill="#D39F10" width="2.304" height="6.672"/>
		<polygon fill="#1A171B" points="39.21,14.782 39.21,15.981 36.906,15.981 36.906,14.846 36.906,14.782 		"/>
		<path fill="#D39F10" d="M39.162,13.357c0.016,0.08,0.016,0.16,0.016,0.224h-2.24c0-0.272,0-0.56-0.016-0.896
			C37.689,12.877,38.441,13.102,39.162,13.357z"/>
		<path fill="#1A171B" d="M41.21,5.005c-0.849-0.432-1.744-0.8-2.656-1.088c-0.384-0.512-0.8-0.992-1.296-1.408
			C38.89,3.134,40.186,4.014,41.21,5.005z"/>
		<path fill="#1A171B" d="M38.554,3.917c0.256,0.336,0.48,0.672,0.688,1.024c-0.752-0.544-1.601-1.008-2.608-1.376
			c-0.112-0.096-0.224-0.208-0.336-0.304C37.065,3.438,37.817,3.646,38.554,3.917z"/>
		<path fill="#1A171B" d="M41.77,3.917c-1.52-0.752-3.151-1.344-4.88-1.744c-0.016,0-0.016-0.016-0.016-0.016
			c-1.248-0.976-2.816-1.664-4.784-1.856c0.08-0.016,0.16-0.016,0.24-0.016c0.063,0,0.111,0.016,0.176,0.016
			c0.16,0.016,0.24,0.016,0.32,0.032l0.592,0.048c0.048,0,0.112,0.016,0.16,0.016c0.144,0.016,0.271,0.032,0.399,0.048
			C37.466,0.941,39.978,2.253,41.77,3.917z"/>
		<path fill="#D39F10" d="M35.674,4.333c2.64,2.32,3.328,6.544,3.488,9.024c-0.721-0.256-1.473-0.48-2.24-0.672
			c0-0.096,0-0.208,0-0.304C36.842,9.021,36.426,6.317,35.674,4.333z"/>
		<path fill="#1A171B" d="M38.554,3.917c-0.736-0.272-1.488-0.48-2.256-0.656c-0.016,0-0.016,0-0.016,0
			c-0.513-0.448-1.089-0.816-1.744-1.088c-0.112-0.176-0.256-0.336-0.385-0.496c1.152,0.192,2.192,0.464,3.104,0.832
			C37.754,2.926,38.17,3.406,38.554,3.917z"/>
		<path fill="#1A171B" d="M36.89,2.173c0.128,0.112,0.256,0.224,0.368,0.336c-0.912-0.368-1.952-0.64-3.104-0.832
			c0.929,0.096,1.841,0.256,2.721,0.48C36.874,2.158,36.874,2.173,36.89,2.173z"/>
		<path fill="#1A171B" d="M36.922,12.686c0.016,0.336,0.016,0.624,0.016,0.896h-1.199c0-0.336,0-0.736-0.017-1.168
			C36.122,12.494,36.521,12.589,36.922,12.686z"/>
		<path fill="#1A171B" d="M35.738,13.582h1.199c0,0.608-0.016,1.04-0.031,1.2h-1.2C35.706,14.782,35.722,14.333,35.738,13.582z"/>
		<path fill="#1A171B" d="M36.922,12.381c0,0.096,0,0.208,0,0.304c-0.4-0.096-0.8-0.192-1.2-0.272
			c-0.063-2.656-0.416-6.928-1.952-9.264c0.736,0.288,1.36,0.704,1.904,1.184C36.426,6.317,36.842,9.021,36.922,12.381z"/>
		<polygon fill="#1A171B" points="36.906,14.782 36.906,14.846 35.706,14.797 35.706,14.782 		"/>
		<rect x="35.706" y="22.654" fill="#1A171B" width="1.2" height="1.2"/>
		<rect x="35.706" y="15.981" fill="#1A171B" width="1.2" height="6.672"/>
		<polygon fill="#1A171B" points="36.906,14.846 36.906,15.981 35.706,15.981 35.706,14.797 		"/>
		<path fill="#1A171B" d="M36.298,3.262c0.112,0.096,0.224,0.208,0.336,0.304c-0.464-0.176-0.976-0.336-1.52-0.464
			c0-0.032-0.017-0.064-0.032-0.08c0.399,0.064,0.8,0.144,1.2,0.24C36.282,3.262,36.282,3.262,36.298,3.262z"/>
		<path fill="#1A171B" d="M36.282,3.262c-0.4-0.096-0.801-0.176-1.2-0.24c-0.16-0.32-0.336-0.592-0.544-0.848
			C35.193,2.446,35.77,2.813,36.282,3.262z"/>
		<path fill="#1A171B" d="M35.722,12.414c0.017,0.432,0.017,0.832,0.017,1.168h-1.2c0-0.336,0-0.704-0.017-1.136
			c0-0.08,0-0.16,0-0.224C34.922,12.27,35.322,12.333,35.722,12.414z"/>
		<path fill="#1A171B" d="M35.738,13.582c-0.017,0.752-0.032,1.2-0.032,1.2H35.53l-1.024-0.048c0-0.016,0.032-0.448,0.032-1.152
			H35.738z"/>
		<rect x="34.506" y="22.654" fill="#1A171B" width="1.2" height="1.2"/>
		<rect x="34.506" y="15.981" fill="#1A171B" width="1.2" height="6.672"/>
		<polygon fill="#1A171B" points="35.706,14.797 35.706,15.981 34.506,15.981 34.506,14.782 35.53,14.782 35.706,14.782 		"/>
		<path fill="#1A171B" d="M35.114,3.102c0.208,0.368,0.399,0.784,0.56,1.232c-0.544-0.48-1.168-0.896-1.904-1.184
			c-0.08-0.128-0.16-0.24-0.239-0.336c0.096,0.016,0.191,0.032,0.287,0.032C34.266,2.926,34.698,3.005,35.114,3.102z"/>
		<path fill="#1A171B" d="M35.53,14.782h-1.024h-2.304v-1.2h2.336c0,0.704-0.032,1.136-0.032,1.152L35.53,14.782z"/>
		<path fill="#D39F10" d="M35.338,48.174v14.288c0,5.344-5.392,7.071-5.76,7.184c0,0-1.856,0.816-4.544,2
			c-0.096,0.032-0.176,0.064-0.256,0.112c-0.016,0.016-0.048,0.016-0.064,0.032l-0.112,0.031c-0.464-0.735-0.72-1.584-0.72-2.512
			v-9.744h-5.328l10.08-7.456c0.288-0.224,0.464-0.576,0.48-0.943c0-0.368-0.16-0.721-0.448-0.96l-4.528-3.664l-0.08-0.064
			c-0.048-0.048-0.096-0.08-0.16-0.112c-0.192-0.111-0.384-0.159-0.592-0.159H11.642v-2.192c0.112-0.08,0.192-0.128,0.272-0.176
			h12.64l6.224,5.504c0.448,0.399,1.104,0.416,1.553,0.048l0.336-0.272c0.288-0.239,0.448-0.575,0.448-0.943H35.338z"/>
		<path fill="#1A171B" d="M35.082,3.021c0.016,0.016,0.032,0.048,0.032,0.08c-0.416-0.096-0.849-0.176-1.297-0.256
			C34.25,2.877,34.666,2.941,35.082,3.021z"/>
		<path fill="#1A171B" d="M33.77,3.149c1.536,2.336,1.889,6.608,1.952,9.264c-0.399-0.08-0.8-0.144-1.2-0.192
			c-0.144-4.624-1.008-7.888-2.319-9.072v-0.4C32.777,2.83,33.29,2.958,33.77,3.149z"/>
		<path fill="#1A171B" d="M36.874,2.158c-0.88-0.224-1.792-0.384-2.721-0.48c-0.607-0.656-1.312-1.088-2.096-1.264
			c-0.048-0.032-0.08-0.032-0.128-0.048c0.048-0.032,0.112-0.048,0.16-0.064C34.058,0.494,35.626,1.182,36.874,2.158z"/>
		<path fill="#1A171B" d="M35.082,3.021c-0.416-0.08-0.832-0.144-1.265-0.176c-0.096,0-0.191-0.016-0.287-0.032c0,0,0,0-0.017,0
			c-0.256-0.352-0.56-0.656-0.912-0.88c0.048-0.096,0.08-0.208,0.097-0.336c0.672,0.112,1.279,0.304,1.84,0.576
			C34.746,2.43,34.922,2.702,35.082,3.021z"/>
		<path fill="#1A171B" d="M34.153,1.678c0.129,0.16,0.272,0.32,0.385,0.496c-0.561-0.272-1.168-0.464-1.84-0.576
			c0-0.016,0-0.048,0-0.08c0.063,0,0.111,0.016,0.176,0.016c0.191,0.016,0.368,0.032,0.56,0.048
			C33.674,1.614,33.914,1.646,34.153,1.678z"/>
		<path fill="#D39F10" d="M34.521,12.446c0.017,0.432,0.017,0.8,0.017,1.136h-2.336v-1.584c0.783,0.032,1.567,0.112,2.319,0.224
			C34.521,12.286,34.521,12.366,34.521,12.446z"/>
		<rect x="32.202" y="22.654" fill="#1A171B" width="2.304" height="1.2"/>
		<rect x="32.202" y="15.981" fill="#D39F10" width="2.304" height="6.672"/>
		<rect x="32.202" y="14.782" fill="#1A171B" width="2.304" height="1.2"/>
		<path fill="#1A171B" d="M34.153,1.678c-0.239-0.032-0.479-0.064-0.72-0.096c-0.191-0.016-0.368-0.048-0.56-0.048
			c-0.064,0-0.112-0.016-0.176-0.016c0.016-0.48-0.24-0.896-0.641-1.104C32.842,0.589,33.546,1.021,34.153,1.678z"/>
		<path fill="#1A171B" d="M33.53,2.813c0.079,0.096,0.159,0.208,0.239,0.336c-0.479-0.192-0.992-0.32-1.567-0.4V2.686h0.031
			c0.064,0.016,0.128,0.016,0.177,0.016c0.016,0,0.176,0.016,0.176,0.016l0.704,0.064c0.08,0.016,0.16,0.016,0.224,0.032
			C33.53,2.813,33.53,2.813,33.53,2.813z"/>
		<path fill="#D39F10" d="M32.202,3.149c1.312,1.184,2.176,4.448,2.319,9.072c-0.752-0.112-1.536-0.192-2.319-0.224V3.149z"/>
		<path fill="#1A171B" d="M33.578,0.397c-0.048,0-0.112-0.016-0.16-0.016h0.096C33.53,0.381,33.562,0.381,33.578,0.397z"/>
		<path fill="#1A171B" d="M33.514,2.813C33.45,2.797,33.37,2.797,33.29,2.782l-0.704-0.064c0,0-0.16-0.016-0.176-0.016
			c-0.049,0-0.112,0-0.177-0.016c-0.016,0-0.016,0-0.031-0.016V2.43c0.176-0.112,0.319-0.288,0.399-0.496
			C32.954,2.158,33.258,2.461,33.514,2.813z"/>
		<path fill="#1A171B" d="M33.434,1.582c-0.191-0.016-0.368-0.032-0.56-0.048C33.065,1.534,33.242,1.565,33.434,1.582z"/>
		<path fill="#1A171B" d="M33.114,40.573v7.601c0,0.368-0.16,0.704-0.448,0.943L32.33,49.39c-0.448,0.368-1.104,0.352-1.553-0.048
			l-6.224-5.504h-12.64c-0.08,0.048-0.16,0.096-0.272,0.176v-0.176c0.656,0,1.2-0.528,1.2-1.2h12.16l6.576,5.808l0.336-0.271v-7.601
			c0-9.792-4.464-10-4.464-10v-5.52h1.2v4.624C30.298,30.397,33.114,32.75,33.114,40.573z"/>
		<path fill="#1A171B" d="M32.698,1.518c0,0.032,0,0.064,0,0.08c-0.16-0.032-0.337-0.064-0.496-0.08V1.485c0.048,0,0.08,0,0.128,0
			c0.111,0.016,0.224,0.016,0.336,0.032C32.682,1.518,32.682,1.518,32.698,1.518z"/>
		<path fill="#1A171B" d="M32.058,0.414c0.4,0.208,0.656,0.624,0.641,1.104c-0.017,0-0.017,0-0.032,0
			c-0.112-0.016-0.225-0.016-0.336-0.032c-0.048,0-0.08,0-0.128,0V1.454c0-0.384-0.177-0.72-0.464-0.944l0.031-0.08
			c0.032-0.032,0.08-0.048,0.128-0.064c0.017,0,0.017,0,0.017,0c0.016,0,0.016,0,0.016,0C31.978,0.381,32.01,0.381,32.058,0.414z"/>
		<path fill="#1A171B" d="M32.698,1.598c-0.017,0.128-0.049,0.24-0.097,0.336c-0.128-0.08-0.256-0.16-0.399-0.208V1.518
			C32.361,1.534,32.538,1.565,32.698,1.598z"/>
		<path fill="#1A171B" d="M31.77,0.27l0.561,0.016c-0.08,0-0.16,0-0.24,0.016C31.994,0.286,31.882,0.286,31.77,0.27z"/>
		<path fill="#1A171B" d="M32.602,1.934c-0.08,0.208-0.224,0.384-0.399,0.496V1.726C32.346,1.773,32.474,1.854,32.602,1.934z"/>
		<path fill="#1A171B" d="M32.233,2.686h-0.031V2.669C32.218,2.686,32.218,2.686,32.233,2.686z"/>
		<rect x="31.002" y="22.654" fill="#1A171B" width="1.2" height="1.2"/>
		<rect x="31.002" y="15.981" fill="#1A171B" width="1.2" height="6.672"/>
		<rect x="31.002" y="14.782" fill="#1A171B" width="1.2" height="1.2"/>
		<rect x="31.002" y="13.582" fill="#1A171B" width="1.2" height="1.2"/>
		<path fill="#1A171B" d="M32.202,11.998v1.584h-1.2v-1.616C31.401,11.965,31.802,11.981,32.202,11.998z"/>
		<path fill="#1A171B" d="M32.202,3.149v8.848c-0.4-0.016-0.801-0.032-1.2-0.032V2.654h0.016c0.017,0,0.017,0,0.032,0h0.016
			l0.225,0.048h0.016C31.626,2.75,31.93,2.894,32.202,3.149z"/>
		<path fill="#1A171B" d="M32.202,2.75v0.4c-0.272-0.256-0.576-0.4-0.896-0.448l0.096-0.032h0.017h0.016c0.017,0,0.032,0,0.064,0
			c0.016,0,0.032,0,0.048,0s0.016,0,0.032,0c0.016,0,0.031,0,0.048,0C31.817,2.686,32.01,2.718,32.202,2.75z"/>
		<path fill="#1A171B" d="M32.202,2.686V2.75c-0.192-0.032-0.385-0.064-0.576-0.08L32.202,2.686z"/>
		<path fill="#1A171B" d="M32.202,2.669v0.016l-0.576-0.016c-0.017,0-0.032,0-0.048,0c0.111-0.016,0.224-0.032,0.319-0.064
			c0.08,0.032,0.16,0.048,0.256,0.064C32.17,2.669,32.186,2.669,32.202,2.669z"/>
		<path fill="#1A171B" d="M32.202,2.43v0.24c-0.017,0-0.032,0-0.049,0c-0.096-0.016-0.176-0.032-0.256-0.064
			C32.01,2.558,32.122,2.51,32.202,2.43z"/>
		<path fill="#1A171B" d="M32.202,1.726V2.43c-0.08,0.08-0.192,0.128-0.305,0.176c-0.096-0.032-0.176-0.08-0.256-0.144
			c0.272-0.16,0.464-0.432,0.528-0.752C32.186,1.693,32.202,1.726,32.202,1.726z"/>
		<path fill="#1A171B" d="M32.202,1.518v0.208c0,0-0.017-0.032-0.032-0.016c0.016-0.064,0.032-0.128,0.016-0.192H32.202z"/>
		<path fill="#1A171B" d="M32.202,1.454v0.032c-0.177,0-0.385-0.016-0.576-0.016V1.454H32.202z"/>
		<path fill="#1A171B" d="M32.202,1.485v0.032h-0.017c-0.176-0.016-0.368-0.032-0.56-0.048C31.817,1.47,32.025,1.485,32.202,1.485z"
			/>
		<path fill="#1A171B" d="M32.202,1.454h-0.576l0.048-0.752l0.064-0.192C32.025,0.733,32.202,1.069,32.202,1.454z"/>
		<path fill="#1A171B" d="M32.186,1.518c0.017,0.064,0,0.128-0.016,0.192c-0.16-0.096-0.353-0.144-0.544-0.176V1.518V1.47
			C31.817,1.485,32.01,1.501,32.186,1.518z"/>
		<path fill="#1A171B" d="M32.09,0.302c-0.048,0.016-0.112,0.032-0.16,0.064c0,0,0,0-0.016,0c-0.048-0.032-0.097-0.048-0.145-0.048
			c0,0-0.016,0-0.031,0c0,0-0.017-0.016-0.032-0.016V0.27c0.016-0.016,0.048,0,0.063,0C31.882,0.286,31.994,0.286,32.09,0.302z"/>
		<path fill="#1A171B" d="M31.914,40.573v7.601l-0.336,0.271l-6.576-5.808h-12.16c0-0.656-0.544-1.2-1.2-1.2h13.36
			c0.288,0,0.576,0.112,0.8,0.304l4.912,4.353v-5.521c0-8.32-3.328-8.8-3.36-8.8c-0.608-0.064-1.104-0.592-1.104-1.2v-5.52h1.2v5.52
			C27.45,30.574,31.914,30.782,31.914,40.573z"/>
		<path fill="#1A171B" d="M31.914,0.366c0,0,0,0-0.017,0C31.866,0.35,31.834,0.35,31.802,0.35V0.333c-0.016,0-0.016,0-0.032-0.016
			C31.817,0.317,31.866,0.333,31.914,0.366z"/>
		<path fill="#1A171B" d="M31.626,1.534c0.191,0.032,0.384,0.08,0.544,0.176c-0.064,0.32-0.256,0.592-0.528,0.752h-0.016
			c-0.017-0.016-0.032-0.032-0.064-0.048L31.626,1.534z"/>
		<path fill="#1A171B" d="M31.897,0.366C31.85,0.381,31.802,0.397,31.77,0.43l0.017-0.08h0.016
			C31.834,0.35,31.866,0.35,31.897,0.366z"/>
		<path fill="#1A171B" d="M31.802,0.333V0.35h-0.016c-0.017-0.016-0.048-0.016-0.08-0.016V0.317c0.016-0.016,0.032,0,0.032,0
			c0.016,0,0.031,0,0.031,0C31.786,0.333,31.786,0.333,31.802,0.333z"/>
		<path fill="#1A171B" d="M31.786,0.35L31.77,0.43c-0.031,0.016-0.063,0.032-0.08,0.032l0.017-0.128
			C31.738,0.333,31.77,0.333,31.786,0.35z"/>
		<path fill="#1A171B" d="M31.77,0.43l-0.031,0.08c-0.017-0.016-0.032-0.032-0.049-0.032V0.461
			C31.706,0.461,31.738,0.446,31.77,0.43z"/>
		<path fill="#1A171B" d="M31.738,0.51l-0.064,0.192l0.016-0.224C31.706,0.478,31.722,0.494,31.738,0.51z"/>
		<path fill="#1A171B" d="M31.706,0.302c0.016,0,0.032,0.016,0.032,0.016s-0.017-0.016-0.032,0V0.302z"/>
		<path fill="#1A171B" d="M31.546,2.638l0.016-0.144c0.017,0,0.048-0.016,0.064-0.032h0.016c0.08,0.064,0.16,0.112,0.256,0.144
			c-0.096,0.032-0.208,0.048-0.319,0.064c-0.017,0-0.017,0-0.032,0V2.638z"/>
		<path fill="#1A171B" d="M31.706,0.27v0.032c-0.017,0-0.017-0.016-0.032,0c-0.08-0.032-0.16-0.032-0.256-0.032
			C31.514,0.253,31.594,0.253,31.706,0.27z"/>
		<path fill="#1A171B" d="M31.706,0.302v0.016c0,0-0.017-0.016-0.032-0.016C31.689,0.286,31.689,0.302,31.706,0.302z"/>
		<path fill="#1A171B" d="M31.706,0.317v0.016c-0.112-0.032-0.225-0.032-0.353-0.048v0.032C31.29,0.286,31.226,0.27,31.162,0.27
			c0.031-0.016,0.063,0,0.096,0c0.048-0.016,0.112,0,0.16,0c0.096,0,0.176,0,0.256,0.032C31.689,0.302,31.706,0.317,31.706,0.317z"
			/>
		<path fill="#1A171B" d="M31.706,0.333l-0.017,0.128c-0.096-0.064-0.208-0.112-0.336-0.144V0.286
			C31.481,0.302,31.594,0.302,31.706,0.333z"/>
		<path fill="#1A171B" d="M31.689,0.478l-0.016,0.224l-0.256,0.752h-0.08h-0.08l0.048-0.608C31.401,0.702,31.53,0.574,31.689,0.478z
			"/>
		<path fill="#1A171B" d="M31.689,0.461v0.016c-0.159,0.096-0.288,0.224-0.384,0.368l0.048-0.528
			C31.481,0.35,31.594,0.397,31.689,0.461z"/>
		<polygon fill="#1A171B" points="31.418,1.454 31.674,0.702 31.626,1.454 31.578,1.454 31.562,1.454 31.45,1.454 		"/>
		<path fill="#1A171B" d="M31.626,1.454V1.47c-0.017,0-0.032-0.016-0.048-0.016H31.626z"/>
		<path fill="#1A171B" d="M31.626,1.47v0.048c-0.064-0.016-0.128-0.016-0.208-0.032V1.47c0.032,0,0.048,0,0.08,0
			c0.016,0,0.048-0.016,0.063-0.016h0.017C31.594,1.454,31.609,1.47,31.626,1.47z"/>
		<path fill="#1A171B" d="M31.626,2.461c-0.017,0.016-0.048,0.032-0.064,0.032v-0.08C31.594,2.43,31.609,2.446,31.626,2.461z"/>
		<path fill="#1A171B" d="M31.626,1.518v0.016l-0.064,0.88c-0.128-0.112-0.256-0.256-0.319-0.432V1.965l0.159-0.48h0.017
			C31.498,1.501,31.562,1.501,31.626,1.518z"/>
		<path fill="#1A171B" d="M31.562,2.414v0.08c-0.128,0.064-0.256,0.112-0.399,0.144l0.048-0.544l0.032-0.112
			C31.306,2.158,31.434,2.302,31.562,2.414z"/>
		<path fill="#1A171B" d="M31.562,2.494l-0.016,0.144l-0.08,0.016c-0.016,0.016-0.032,0.016-0.064,0.016c-0.048,0-0.079,0-0.111,0
			s-0.08-0.016-0.128-0.016V2.638C31.306,2.605,31.434,2.558,31.562,2.494z"/>
		<path fill="#1A171B" d="M31.562,1.454c-0.016,0-0.048,0.016-0.063,0.016c-0.017,0-0.032-0.016-0.048-0.016H31.562z"/>
		<path fill="#1A171B" d="M31.546,2.638v0.032c-0.016,0-0.032,0-0.048,0c-0.032,0-0.048,0-0.064,0l0.032-0.016L31.546,2.638z"/>
		<path fill="#1A171B" d="M31.498,1.47c-0.032,0-0.048,0-0.08,0c0.016,0,0.032-0.016,0.032-0.016
			C31.466,1.454,31.481,1.47,31.498,1.47z"/>
		<path fill="#1A171B" d="M31.466,2.654l-0.032,0.016h-0.016h-0.017C31.434,2.669,31.45,2.669,31.466,2.654z"/>
		<path fill="#1A171B" d="M31.45,1.454c0,0-0.017,0.016-0.032,0.016V1.454H31.45z"/>
		<path fill="#1A171B" d="M31.418,1.454V1.47h-0.017c-0.016,0-0.031-0.016-0.063-0.016H31.418z"/>
		<path fill="#1A171B" d="M31.418,1.47v0.016h-0.017c-0.031,0-0.079-0.016-0.111-0.016c0.032-0.016,0.08,0,0.111,0H31.418z"/>
		<path fill="#1A171B" d="M31.401,1.485l-0.159,0.48h-0.017V1.917l0.032-0.448c0.016,0,0.016,0,0.032,0
			C31.322,1.47,31.37,1.485,31.401,1.485z"/>
		<path fill="#1A171B" d="M31.401,1.47c-0.031,0-0.079-0.016-0.111,0c0.016-0.016,0.032-0.016,0.048-0.016
			C31.37,1.454,31.386,1.47,31.401,1.47z"/>
		<path fill="#1A171B" d="M31.401,2.669l-0.096,0.032H31.29c-0.032-0.016-0.064-0.032-0.097-0.032c0.032-0.016,0.064,0,0.097,0
			S31.354,2.669,31.401,2.669z"/>
		<path fill="#1A171B" d="M31.354,0.317l-0.048,0.528c-0.08,0.144-0.144,0.288-0.16,0.464C31.13,1.357,31.13,1.406,31.13,1.454
			h-0.128V0.302V0.253c0.016,0,0.032,0,0.048,0c0.032,0,0.048,0,0.08,0.016c0.016-0.016,0.016-0.016,0.032,0
			C31.226,0.27,31.29,0.286,31.354,0.317z"/>
		<path fill="#1A171B" d="M31.338,1.454c-0.016,0-0.032,0-0.048,0.016c-0.017,0-0.017,0-0.032,0V1.454H31.338z"/>
		<path fill="#1A171B" d="M31.306,0.846l-0.048,0.608h-0.064H31.13c0-0.048,0-0.096,0.016-0.144
			C31.162,1.134,31.226,0.99,31.306,0.846z"/>
		<path fill="#1A171B" d="M31.193,2.669c0.032,0,0.064,0.016,0.097,0.032l-0.225-0.048h0.017c0.016,0,0.048,0,0.08,0.016
			c0,0,0-0.016,0.016,0C31.178,2.669,31.178,2.654,31.193,2.669z"/>
		<path fill="#1A171B" d="M31.29,2.669c-0.032,0-0.064-0.016-0.097,0c-0.016-0.016-0.016,0-0.016,0s0-0.016-0.016-0.016
			C31.21,2.654,31.258,2.669,31.29,2.669z"/>
		<path fill="#1A171B" d="M31.258,1.454V1.47c-0.016-0.016-0.048-0.016-0.064-0.016H31.258z"/>
		<path fill="#1A171B" d="M31.258,1.47l-0.032,0.448C31.162,1.773,31.13,1.629,31.13,1.47C31.178,1.454,31.226,1.47,31.258,1.47z"/>
		<path fill="#1A171B" d="M31.258,0.27c-0.032,0-0.064-0.016-0.096,0c-0.017-0.016-0.017-0.016-0.032,0
			c-0.016-0.016-0.016-0.016-0.032-0.016C31.146,0.253,31.21,0.253,31.258,0.27z"/>
		<path fill="#1A171B" d="M31.258,1.47c-0.032,0-0.08-0.016-0.128,0V1.454h0.063C31.21,1.454,31.242,1.454,31.258,1.47z"/>
		<polygon fill="#1A171B" points="31.242,1.981 31.21,2.094 31.226,1.965 31.242,1.965 		"/>
		<path fill="#1A171B" d="M31.226,1.917v0.048L31.21,2.094l-0.176,0.512c0.031,0.016,0.08,0.032,0.111,0.032
			c-0.031,0-0.063,0-0.096,0.016c-0.016,0-0.016,0-0.032,0l-0.016-0.288V1.79V1.454h0.128V1.47
			C31.13,1.629,31.162,1.773,31.226,1.917z"/>
		<path fill="#1A171B" d="M31.034,2.605l0.176-0.512l-0.048,0.544c0,0,0,0.016-0.017,0C31.114,2.638,31.065,2.622,31.034,2.605z"/>
		<path fill="#1A171B" d="M31.162,2.654c0.016,0,0.016,0.016,0.016,0.016c-0.016-0.016-0.016,0-0.016,0V2.654z"/>
		<path fill="#1A171B" d="M31.162,2.638v0.016c-0.017,0-0.048,0-0.08,0h-0.017H31.05c0.032-0.016,0.064-0.016,0.096-0.016
			C31.162,2.654,31.162,2.638,31.162,2.638z"/>
		<path fill="#1A171B" d="M31.162,2.654v0.016c-0.032-0.016-0.064-0.016-0.08-0.016C31.114,2.654,31.146,2.654,31.162,2.654z"/>
		<path fill="#1A171B" d="M31.13,0.27c-0.032-0.016-0.048-0.016-0.08-0.016c0.016,0,0.032,0,0.048,0
			C31.114,0.253,31.114,0.253,31.13,0.27z"/>
		<polygon fill="#1A171B" points="31.002,2.366 31.018,2.654 31.002,2.654 		"/>
		<rect x="29.802" y="22.654" fill="#1A171B" width="1.2" height="1.2"/>
		<rect x="29.802" y="15.981" fill="#1A171B" width="1.2" height="6.672"/>
		<rect x="29.802" y="14.782" fill="#1A171B" width="1.2" height="1.2"/>
		<rect x="29.802" y="13.582" fill="#1A171B" width="1.2" height="1.2"/>
		<path fill="#1A171B" d="M31.002,11.965v1.616h-1.2v-1.584C30.202,11.981,30.586,11.965,31.002,11.965z"/>
		<path fill="#1A171B" d="M31.002,2.654v9.312c-0.416,0-0.8,0.016-1.2,0.032V3.149c0.336-0.304,0.736-0.48,1.168-0.496
			C30.985,2.654,30.985,2.654,31.002,2.654z"/>
		<path fill="#1A171B" d="M31.002,2.366v0.288c-0.017,0-0.017,0-0.032,0c-0.112,0-0.224-0.016-0.32-0.064l-0.031-0.672V1.886
			c0.048-0.128,0.063-0.272,0.063-0.416c0.064,0,0.128-0.016,0.192-0.016h0.111l0.017,0.336V2.366z"/>
		<polygon fill="#1A171B" points="31.002,1.454 31.002,1.79 30.985,1.454 		"/>
		<path fill="#1A171B" d="M31.002,0.302v1.152h-0.017l-0.031-1.136C30.97,0.302,30.985,0.302,31.002,0.302z"/>
		<path fill="#1A171B" d="M31.002,0.253v0.048c-0.017,0-0.032,0-0.048,0.016l0.031,1.136h-0.111h-0.192c0-0.016,0-0.016,0-0.016
			c0-0.144-0.048-0.288-0.096-0.416L30.554,0.35c0.08-0.048,0.176-0.064,0.272-0.08c0.016,0,0.048-0.016,0.063,0
			c0.017-0.016,0.032-0.016,0.048-0.016C30.954,0.253,30.985,0.253,31.002,0.253z"/>
		<path fill="#1A171B" d="M30.906,2.654c0.016,0,0.048,0,0.063,0c-0.432,0.016-0.832,0.192-1.168,0.496v-0.4
			c0.272-0.048,0.56-0.064,0.848-0.08c0.032,0,0.08,0,0.112,0c0.016-0.016,0.064-0.016,0.096-0.016
			C30.874,2.654,30.89,2.654,30.906,2.654z"/>
		<path fill="#1A171B" d="M30.97,2.654c-0.016,0-0.048,0-0.063,0c-0.017,0-0.032,0-0.049,0c-0.063,0-0.144,0-0.208,0.016v-0.08
			C30.746,2.638,30.857,2.654,30.97,2.654z"/>
		<path fill="#1A171B" d="M30.938,0.253c-0.016,0-0.031,0-0.048,0.016l0.017-0.016C30.922,0.253,30.938,0.253,30.938,0.253z"/>
		<path fill="#1A171B" d="M30.906,0.253L30.89,0.27c-0.016-0.016-0.048,0-0.063,0c-0.017-0.016-0.032-0.016-0.049,0
			C30.826,0.253,30.874,0.253,30.906,0.253z"/>
		<path fill="#1A171B" d="M30.874,1.454c-0.064,0-0.128,0.016-0.192,0.016c0-0.016,0-0.016,0-0.016H30.874z"/>
		<path fill="#1A171B" d="M30.857,2.654c-0.031,0-0.08,0-0.096,0.016c-0.032,0-0.08,0-0.112,0
			C30.714,2.654,30.794,2.654,30.857,2.654z"/>
		<path fill="#1A171B" d="M30.777,0.27c0.017-0.016,0.032-0.016,0.049,0c-0.097,0.016-0.192,0.032-0.272,0.08V0.286
			c0.032-0.016,0.08-0.016,0.112-0.016C30.698,0.253,30.746,0.253,30.777,0.27z"/>
		<path fill="#FFFFFF" d="M30.714,40.573v5.521l-4.912-4.353c-0.224-0.191-0.512-0.304-0.8-0.304h-13.36H7.626v-4.88
			c0-4.048,1.056-8.016,3.04-11.504H26.25v5.52c0,0.608,0.496,1.136,1.104,1.2C27.386,31.773,30.714,32.253,30.714,40.573z
			 M19.898,31.326c0-2.288-1.856-4.16-4.144-4.16s-4.144,1.872-4.144,4.16s1.856,4.144,4.144,4.144S19.898,33.614,19.898,31.326z"/>
		<path fill="#1A171B" d="M30.682,1.47c0,0.144-0.016,0.288-0.063,0.416l-0.017-0.4V1.47C30.618,1.47,30.649,1.47,30.682,1.47z"/>
		<path fill="#1A171B" d="M30.682,1.454c0,0,0,0,0,0.016c-0.032,0-0.063,0-0.08,0V1.454H30.682z"/>
		<path fill="#1A171B" d="M30.682,1.438c0,0,0,0,0,0.016h-0.08l-0.016-0.432C30.634,1.149,30.682,1.293,30.682,1.438z"/>
		<path fill="#1A171B" d="M30.666,0.27c-0.032,0-0.08,0-0.112,0.016V0.27c0.016,0,0.048,0,0.064,0
			C30.634,0.27,30.649,0.27,30.666,0.27z"/>
		<path fill="#1A171B" d="M30.649,2.589v0.08c-0.048,0-0.096,0-0.159,0c-0.064,0-0.129,0.016-0.192,0
			c-0.112-0.016-0.224-0.032-0.32-0.064V2.589c0.112-0.048,0.208-0.112,0.305-0.192C30.394,2.494,30.521,2.558,30.649,2.589z"/>
		<path fill="#1A171B" d="M30.618,1.917l0.031,0.672c-0.128-0.032-0.256-0.096-0.367-0.192C30.426,2.27,30.538,2.109,30.618,1.917z"
			/>
		<path fill="#1A171B" d="M30.49,2.669c0.063,0,0.111,0,0.159,0c-0.288,0.016-0.575,0.032-0.848,0.08V2.686
			c0.16,0,0.336,0,0.496-0.016C30.361,2.686,30.426,2.669,30.49,2.669z"/>
		<path fill="#1A171B" d="M30.602,1.485l0.017,0.4v0.032c-0.08,0.192-0.192,0.352-0.336,0.48c-0.225-0.144-0.385-0.4-0.448-0.688
			C30.074,1.582,30.33,1.518,30.602,1.485z"/>
		<path fill="#1A171B" d="M30.602,1.47v0.016c-0.271,0.032-0.527,0.096-0.768,0.224c-0.017-0.048-0.032-0.112-0.017-0.176
			c0.225-0.032,0.448-0.048,0.673-0.064c0.031,0,0.048,0,0.079,0C30.586,1.47,30.586,1.47,30.602,1.47z"/>
		<path fill="#1A171B" d="M30.602,1.454V1.47c-0.016,0-0.016,0-0.032,0c-0.016,0-0.031-0.016-0.048-0.016H30.602z"/>
		<path fill="#1A171B" d="M30.586,1.021l0.016,0.432h-0.08h-0.063h-0.656c0-0.352,0.16-0.688,0.416-0.896
			C30.378,0.669,30.506,0.83,30.586,1.021z"/>
		<path fill="#1A171B" d="M30.554,0.35l0.032,0.672c-0.08-0.192-0.208-0.352-0.368-0.464C30.313,0.461,30.426,0.397,30.554,0.35z"/>
		<path fill="#1A171B" d="M30.569,1.47c-0.031,0-0.048,0-0.079,0c-0.032,0-0.08,0-0.112,0c0.032,0,0.063-0.016,0.08-0.016h0.063
			C30.538,1.454,30.554,1.47,30.569,1.47z"/>
		<path fill="#1A171B" d="M30.554,0.286V0.35c-0.128,0.048-0.24,0.112-0.336,0.208c-0.08-0.064-0.176-0.128-0.271-0.16
			c0.159-0.064,0.336-0.096,0.495-0.112h0.017C30.49,0.286,30.521,0.286,30.554,0.286z"/>
		<path fill="#1A171B" d="M30.554,0.27v0.016c-0.032,0-0.063,0-0.096,0l0.016-0.016C30.506,0.27,30.521,0.27,30.554,0.27z"/>
		<path fill="#1A171B" d="M30.378,1.47c0.032,0,0.08,0,0.112,0c-0.225,0.016-0.448,0.032-0.673,0.064c0,0-0.016,0-0.016-0.016
			s0-0.016,0-0.032C29.994,1.47,30.186,1.47,30.378,1.47z"/>
		<path fill="#1A171B" d="M30.474,0.27l-0.016,0.016h-0.017C30.458,0.27,30.458,0.27,30.474,0.27z"/>
		<path fill="#1A171B" d="M30.474,0.27c-0.016,0-0.016,0-0.032,0.016c-0.111,0-0.224,0-0.319,0.016c-0.112,0-0.24,0.016-0.353,0.032
			c-0.08-0.016-0.144-0.032-0.224-0.032c0.271-0.016,0.512-0.032,0.736-0.032C30.346,0.27,30.41,0.27,30.474,0.27z"/>
		<path fill="#1A171B" d="M30.458,1.454c-0.017,0-0.048,0.016-0.08,0.016c-0.192,0-0.384,0-0.576,0.016c0-0.016,0-0.016,0-0.032
			H30.458z"/>
		<path fill="#1A171B" d="M30.122,0.302c0.096-0.016,0.208-0.016,0.319-0.016c-0.159,0.016-0.336,0.048-0.495,0.112
			c0,0,0,0-0.017-0.016C29.994,0.35,30.058,0.317,30.122,0.302z"/>
		<path fill="#1A171B" d="M29.978,2.605c0.097,0.032,0.208,0.048,0.32,0.064c-0.16,0.016-0.336,0.016-0.496,0.016V2.669
			C29.866,2.654,29.914,2.622,29.978,2.605z"/>
		<path fill="#1A171B" d="M29.946,0.397c0.096,0.032,0.191,0.096,0.271,0.16c-0.256,0.208-0.416,0.544-0.416,0.896
			c0,0.016,0,0.016,0,0.032c-0.112,0-0.224,0.016-0.32,0.016c-0.096,0-0.208,0.016-0.304,0.016c-0.016-0.464,0.24-0.896,0.64-1.088
			c0.017-0.016,0.049-0.032,0.08-0.032C29.914,0.397,29.93,0.381,29.946,0.397z"/>
		<path fill="#1A171B" d="M29.77,0.333c0.112-0.016,0.24-0.032,0.353-0.032c-0.064,0.016-0.128,0.048-0.192,0.08
			C29.882,0.366,29.817,0.35,29.77,0.333z"/>
		<path fill="#1A171B" d="M30.282,2.397c-0.097,0.08-0.192,0.144-0.305,0.192c-0.063-0.016-0.128-0.048-0.176-0.08V1.726V1.709
			c0.016,0,0.016-0.016,0.032,0C29.897,1.998,30.058,2.253,30.282,2.397z"/>
		<path fill="#1A171B" d="M29.978,2.589v0.016c-0.063,0.016-0.111,0.048-0.176,0.064V2.51C29.85,2.542,29.914,2.574,29.978,2.589z"
			/>
		<path fill="#1A171B" d="M29.93,0.381c0.017,0.016,0.017,0.016,0.017,0.016c-0.017-0.016-0.032,0-0.049,0
			C29.897,0.397,29.914,0.381,29.93,0.381z"/>
		<path fill="#1A171B" d="M29.93,0.381c-0.016,0-0.032,0.016-0.032,0.016c-0.031,0-0.063,0.016-0.08,0.032
			c-0.735,0.208-1.392,0.624-1.952,1.248H27.85c-0.912,0.096-1.808,0.256-2.688,0.48c1.2-0.96,2.72-1.632,4.608-1.824
			C29.817,0.35,29.882,0.366,29.93,0.381z"/>
		<path fill="#1A171B" d="M29.817,1.534c-0.016,0.064,0,0.128,0.017,0.176c-0.017-0.016-0.017,0-0.032,0V1.534
			C29.817,1.534,29.817,1.534,29.817,1.534z"/>
		<path fill="#1A171B" d="M29.802,1.518c0,0.016,0.016,0.016,0.016,0.016s0,0-0.016,0V1.518z"/>
		<path fill="#1A171B" d="M29.802,1.709v0.016c-0.176,0.064-0.352,0.16-0.496,0.272c-0.063-0.112-0.096-0.24-0.112-0.368
			c0.208-0.048,0.4-0.08,0.608-0.096V1.709z"/>
		<path fill="#1A171B" d="M29.802,22.654v1.2H28.65c0-0.64-0.512-1.168-1.136-1.184v-0.016H29.802z"/>
		<rect x="27.514" y="15.981" fill="#D39F10" width="2.288" height="6.672"/>
		<rect x="27.514" y="14.782" fill="#1A171B" width="2.288" height="1.2"/>
		<path fill="#1A171B" d="M29.802,13.582v1.2h-2.288H26.49l1.024-0.048c0-0.016-0.032-0.448-0.032-1.152H29.802z"/>
		<path fill="#D39F10" d="M29.802,11.998v1.584h-2.32c0-0.336,0-0.704,0.016-1.136c0-0.08,0-0.144,0-0.224
			c0.048,0,0.096-0.016,0.144-0.016c0.128-0.032,0.256-0.048,0.384-0.048c0.32-0.048,0.656-0.08,0.992-0.096
			c0.16-0.032,0.32-0.048,0.48-0.048C29.594,12.014,29.706,11.998,29.802,11.998z"/>
		<path fill="#D39F10" d="M29.802,3.149v8.848c-0.096,0-0.208,0.016-0.304,0.016c-0.16,0-0.32,0.016-0.48,0.048
			c-0.336,0.016-0.672,0.048-0.992,0.096c-0.128,0-0.256,0.016-0.384,0.048c-0.048,0-0.096,0.016-0.144,0.016
			C27.61,8.446,28.298,4.51,29.802,3.149z"/>
		<path fill="#1A171B" d="M29.802,2.75v0.4c-1.504,1.36-2.192,5.296-2.304,9.072c-0.288,0.032-0.56,0.08-0.832,0.128
			c-0.128,0.016-0.256,0.048-0.368,0.064c0.064-2.656,0.416-6.912,1.952-9.264C28.714,2.974,29.242,2.83,29.802,2.75z"/>
		<path fill="#1A171B" d="M29.802,2.686V2.75c-0.56,0.08-1.088,0.224-1.552,0.4c0.064-0.112,0.144-0.224,0.24-0.336
			c0.064-0.016,0.144-0.016,0.224-0.032l0.271-0.032l0.561-0.048c0.016,0,0.032,0,0.048,0C29.658,2.702,29.738,2.702,29.802,2.686z"
			/>
		<path fill="#1A171B" d="M29.802,2.669v0.016c-0.063,0.016-0.144,0.016-0.208,0.016C29.658,2.686,29.738,2.686,29.802,2.669z"/>
		<path fill="#1A171B" d="M29.802,2.51v0.16c-0.063,0.016-0.144,0.016-0.208,0.032c-0.016,0-0.032,0-0.048,0L28.985,2.75
			c-0.063,0-0.144,0-0.208,0.016c-0.016,0-0.048,0-0.064,0.016c-0.08,0-0.144,0-0.224,0.016c0.24-0.32,0.512-0.576,0.816-0.8
			C29.418,2.222,29.578,2.397,29.802,2.51z"/>
		<path fill="#1A171B" d="M29.802,1.726V2.51c-0.224-0.112-0.384-0.288-0.496-0.512C29.45,1.886,29.626,1.79,29.802,1.726z"/>
		<path fill="#1A171B" d="M29.802,1.518v0.016c-0.208,0.016-0.4,0.048-0.608,0.096c-0.016-0.016-0.016-0.048-0.016-0.064
			c0-0.016,0-0.032,0-0.032c0.096-0.016,0.208-0.016,0.304-0.032c0.097,0,0.208-0.016,0.32-0.016
			C29.802,1.501,29.802,1.501,29.802,1.518z"/>
		<path fill="#1A171B" d="M29.546,0.302c0.08,0,0.144,0.016,0.224,0.032c-1.888,0.192-3.408,0.864-4.608,1.824
			c-1.728,0.4-3.376,0.992-4.912,1.76c1.712-1.584,4.048-2.848,7.28-3.392c0.288-0.048,0.592-0.096,0.912-0.128h0.064l0.4-0.048
			l0.447-0.032c0.048,0,0.097-0.016,0.128-0.016C29.514,0.302,29.53,0.302,29.546,0.302z"/>
		<path fill="#1A171B" d="M29.481,0.302c-0.031,0-0.08,0.016-0.128,0.016L28.906,0.35c0.159-0.016,0.336-0.032,0.512-0.048
			C29.434,0.302,29.45,0.302,29.481,0.302z"/>
		<path fill="#1A171B" d="M29.481,1.501c-0.096,0.016-0.208,0.016-0.304,0.032c0-0.016,0-0.016,0-0.016
			C29.273,1.518,29.386,1.501,29.481,1.501z"/>
		<path fill="#1A171B" d="M29.193,1.629c0.017,0.128,0.049,0.256,0.112,0.368c-0.304,0.224-0.576,0.48-0.816,0.8
			c-0.528,0.048-1.056,0.128-1.568,0.224c0.16-0.304,0.336-0.592,0.528-0.848C27.978,1.934,28.57,1.742,29.193,1.629z"/>
		<path fill="#1A171B" d="M29.817,0.43c-0.399,0.192-0.655,0.624-0.64,1.088c-0.016,0-0.032,0-0.048,0.016
			c-0.192,0.016-0.368,0.032-0.544,0.048c-0.24,0.032-0.48,0.064-0.72,0.096C28.426,1.054,29.082,0.638,29.817,0.43z"/>
		<path fill="#1A171B" d="M29.178,1.565c0,0.016,0,0.048,0.016,0.064c-0.624,0.112-1.215,0.304-1.744,0.544
			c0.128-0.176,0.256-0.352,0.4-0.496h0.016c0.24-0.032,0.48-0.064,0.72-0.096c0.176-0.016,0.352-0.032,0.544-0.048
			c0.016,0,0.032,0,0.048,0C29.178,1.534,29.178,1.55,29.178,1.565z"/>
		<path fill="#1A171B" d="M29.178,1.518c0,0,0,0,0,0.016c-0.016,0-0.032,0-0.048,0C29.146,1.518,29.162,1.518,29.178,1.518z"/>
		<path fill="#1A171B" d="M28.985,2.75l-0.271,0.032c0.016-0.016,0.048-0.016,0.064-0.016C28.842,2.75,28.922,2.75,28.985,2.75z"/>
		<path fill="#1A171B" d="M28.906,0.35l-0.4,0.048C28.618,0.366,28.762,0.35,28.906,0.35z"/>
		<path fill="#1A171B" d="M28.666,50.206c0.288,0.239,0.448,0.592,0.448,0.96c-0.017,0.367-0.192,0.72-0.48,0.943l-10.08,7.456
			h-2.048l11.408-8.432l-3.68-2.977c0.384-0.479,0.352-1.184-0.096-1.615L28.666,50.206z"/>
		<path fill="#1A171B" d="M28.714,2.782c-0.08,0.016-0.16,0.016-0.224,0.032V2.797C28.57,2.782,28.634,2.782,28.714,2.782z"/>
		<polygon fill="#1A171B" points="28.65,23.854 28.65,25.054 27.45,25.054 27.45,23.854 27.514,23.854 		"/>
		<path fill="#1A171B" d="M28.65,23.854h-1.136v-1.184C28.138,22.686,28.65,23.213,28.65,23.854z"/>
		<path fill="#1A171B" d="M28.49,2.797v0.016c-0.576,0.064-1.104,0.176-1.616,0.304c0-0.032,0.016-0.064,0.048-0.096
			C27.434,2.926,27.962,2.846,28.49,2.797z"/>
		<path fill="#1A171B" d="M28.49,2.813c-0.096,0.112-0.176,0.224-0.24,0.336c-0.736,0.288-1.36,0.688-1.904,1.168
			c0.144-0.432,0.32-0.832,0.528-1.2C27.386,2.99,27.914,2.877,28.49,2.813z"/>
		<path fill="#1A171B" d="M27.914,51.134l-11.408,8.432c-2.272,0-4.192-1.567-4.704-3.68c0.576-0.08,1.04-0.561,1.04-1.185
			c0,1.904,1.44,3.473,3.296,3.648l9.808-7.248l-2.528-2.048l0.768-0.832c0.016-0.016,0.032-0.048,0.048-0.064L27.914,51.134z"/>
		<path fill="#1A171B" d="M27.85,1.678c-0.144,0.144-0.272,0.32-0.4,0.496c-0.64,0.288-1.2,0.656-1.712,1.088
			c-0.784,0.176-1.552,0.4-2.288,0.656c0.368-0.496,0.784-0.976,1.264-1.392C25.642,2.158,26.682,1.87,27.85,1.678z"/>
		<path fill="#1A171B" d="M27.514,22.669v1.184H27.45v-0.784h-0.896c0.208-0.256,0.544-0.416,0.896-0.416h0.064V22.669z"/>
		<polygon fill="#1A171B" points="27.514,15.981 27.514,22.654 27.45,22.654 26.314,22.654 26.314,15.981 		"/>
		<polygon fill="#1A171B" points="27.514,14.782 27.514,15.981 26.314,15.981 26.314,14.797 26.314,14.782 26.49,14.782 		"/>
		<path fill="#1A171B" d="M27.514,14.733l-1.024,0.048h-0.176c0,0-0.032-0.464-0.032-1.2h1.2
			C27.482,14.286,27.514,14.718,27.514,14.733z"/>
		<path fill="#1A171B" d="M27.498,12.222c0,0.08,0,0.144,0,0.224c-0.016,0.432-0.016,0.8-0.016,1.136h-1.2
			c0-0.336,0-0.736,0.016-1.168c0.112-0.016,0.24-0.048,0.368-0.064C26.938,12.302,27.21,12.253,27.498,12.222z"/>
		<polygon fill="#1A171B" points="27.45,23.854 27.45,25.054 26.25,25.054 26.25,23.854 26.314,23.854 		"/>
		<path fill="#1A171B" d="M27.45,23.069v0.784h-1.136v-0.352c0.048-0.16,0.128-0.304,0.24-0.432H27.45z"/>
		<path fill="#1A171B" d="M26.314,22.654h1.136c-0.352,0-0.688,0.16-0.896,0.416h-0.24V22.654z"/>
		<path fill="#1A171B" d="M28.25,3.149c-1.536,2.352-1.888,6.608-1.952,9.264c-0.08,0.016-0.176,0.032-0.24,0.048
			c-0.32,0.064-0.64,0.144-0.96,0.224c0-0.096,0-0.192,0-0.288c0.08-3.392,0.496-6.096,1.248-8.08
			C26.89,3.837,27.514,3.438,28.25,3.149z"/>
		<path fill="#1A171B" d="M27.45,2.173c-0.192,0.256-0.368,0.544-0.528,0.848c-0.4,0.064-0.8,0.144-1.184,0.24
			C26.25,2.83,26.81,2.461,27.45,2.173z"/>
		<path fill="#1A171B" d="M26.922,3.021c-0.032,0.032-0.048,0.064-0.048,0.096c-0.512,0.112-1.008,0.256-1.472,0.432
			c0.096-0.096,0.224-0.208,0.336-0.288C26.122,3.166,26.522,3.085,26.922,3.021z"/>
		<path fill="#1A171B" d="M26.874,3.118c-0.208,0.368-0.384,0.768-0.528,1.2c-2.656,2.32-3.328,6.544-3.488,9.04
			c-0.208,0.064-0.416,0.144-0.608,0.224h-0.608c0.112-2.256,0.736-7.2,3.76-10.032C25.866,3.374,26.362,3.229,26.874,3.118z"/>
		<path fill="#1A171B" d="M28.09,72.909c-0.48,0.225-1.024,0.465-1.616,0.704c-0.416-0.224-0.784-0.496-1.104-0.815
			c0.416-0.192,0.832-0.368,1.2-0.528C27.018,72.605,27.53,72.829,28.09,72.909z"/>
		<path fill="#1A171B" d="M27.85,1.678c-1.168,0.192-2.208,0.48-3.136,0.848c0.144-0.128,0.288-0.256,0.448-0.368
			C26.042,1.934,26.938,1.773,27.85,1.678z"/>
		<path fill="#1A171B" d="M26.314,23.069h0.24c-0.112,0.128-0.192,0.272-0.24,0.432V23.069z"/>
		<path fill="#1A171B" d="M26.474,73.613c-0.208,0.097-0.416,0.192-0.624,0.288l-0.32,0.145c-0.112,0.048-0.24,0.096-0.352,0.16
			c-0.24-0.16-0.448-0.353-0.656-0.561c-0.112-0.112-0.192-0.224-0.256-0.368c0.384-0.16,0.752-0.319,1.104-0.479
			C25.69,73.117,26.058,73.39,26.474,73.613z"/>
		<path fill="#1A171B" d="M26.218,71.949c0.112,0.112,0.224,0.225,0.352,0.32c-0.368,0.16-0.784,0.336-1.2,0.528
			c-0.288-0.272-0.544-0.592-0.752-0.929c0.032-0.031,0.064-0.048,0.096-0.079c0.016-0.017,0.048-0.017,0.064-0.032l0.112-0.048
			c0.048-0.017,0.096-0.049,0.144-0.064C25.434,71.533,25.898,71.63,26.218,71.949z"/>
		<path fill="#1A171B" d="M26.314,23.501v0.352H26.25C26.25,23.726,26.266,23.614,26.314,23.501z"/>
		<path fill="#1A171B" d="M26.314,23.069v0.432c-0.048,0.112-0.064,0.224-0.064,0.352h-1.136v-0.784H26.314z"/>
		<rect x="25.114" y="22.654" fill="#1A171B" width="1.2" height="0.416"/>
		<rect x="25.114" y="15.981" fill="#1A171B" width="1.2" height="6.672"/>
		<polygon fill="#1A171B" points="26.314,14.797 26.314,15.981 25.114,15.981 25.114,14.846 		"/>
		<polygon fill="#1A171B" points="26.314,14.782 26.314,14.797 25.114,14.846 25.114,14.782 		"/>
		<path fill="#1A171B" d="M26.314,14.782h-1.2c-0.016-0.16-0.032-0.592-0.032-1.2h1.2C26.282,14.317,26.314,14.782,26.314,14.782z"
			/>
		<path fill="#1A171B" d="M26.298,12.414c-0.016,0.432-0.016,0.832-0.016,1.168h-1.2c0-0.272,0-0.56,0.016-0.896
			c0.32-0.08,0.64-0.16,0.96-0.224C26.122,12.446,26.218,12.43,26.298,12.414z"/>
		<path fill="#1A171B" d="M26.25,23.854v1.2H10.666c0.096-0.192,0.208-0.384,0.32-0.576c0.128-0.192,0.176-0.416,0.176-0.624h1.04
			h1.2h2.304h1.2h1.2h2.304h1.2h1.2h2.304H26.25z"/>
		<path fill="#FFFFFF" d="M25.946,51.102l-9.808,7.248c-1.856-0.176-3.296-1.744-3.296-3.648V52.27h7.072
			c0.336,0,0.656-0.128,0.88-0.384l2.624-2.832L25.946,51.102z"/>
		<path fill="#1A171B" d="M25.738,3.262c-0.112,0.08-0.24,0.192-0.336,0.288c-1.008,0.368-1.888,0.848-2.64,1.392
			c0.208-0.352,0.432-0.688,0.688-1.024C24.186,3.662,24.954,3.438,25.738,3.262z"/>
		<path fill="#1A171B" d="M25.37,72.798c-0.352,0.16-0.72,0.319-1.104,0.479c-0.176-0.432-0.096-0.96,0.256-1.328
			c0.032-0.031,0.064-0.063,0.096-0.08C24.826,72.206,25.082,72.525,25.37,72.798z"/>
		<path fill="#D39F10" d="M26.346,4.317c-0.752,1.984-1.168,4.688-1.248,8.08c0,0.096,0,0.192,0,0.288
			c-0.608,0.144-1.184,0.304-1.76,0.496c-0.032,0.016-0.064,0.032-0.112,0.048c-0.128,0.048-0.256,0.08-0.368,0.128
			C23.018,10.861,23.69,6.638,26.346,4.317z"/>
		<rect x="22.81" y="23.069" fill="#1A171B" width="2.304" height="0.784"/>
		<rect x="22.81" y="22.654" fill="#1A171B" width="2.304" height="0.416"/>
		<rect x="22.81" y="15.981" fill="#D39F10" width="2.304" height="6.672"/>
		<polygon fill="#1A171B" points="25.114,14.846 25.114,15.981 22.81,15.981 22.81,14.782 25.114,14.782 		"/>
		<path fill="#1A171B" d="M25.114,14.782H22.81h-1.024l1.024-0.048c0-0.032-0.016-0.336,0.016-0.864
			c0-0.096,0.016-0.192,0.016-0.288h2.24C25.082,14.189,25.098,14.622,25.114,14.782z"/>
		<path fill="#D39F10" d="M25.098,12.686c-0.016,0.336-0.016,0.624-0.016,0.896h-2.24c0-0.08,0.016-0.144,0.016-0.224
			c0.112-0.048,0.24-0.08,0.368-0.128c0.048-0.016,0.08-0.032,0.112-0.048C23.914,12.99,24.49,12.83,25.098,12.686z"/>
		<path fill="#1A171B" d="M25.034,71.646c-0.048,0.016-0.096,0.048-0.144,0.064l-0.112,0.048
			C24.858,71.71,24.938,71.678,25.034,71.646z"/>
		<path fill="#1A171B" d="M24.522,73.646c0.208,0.208,0.416,0.4,0.656,0.561c-6.688,2.896-17.504,7.6-18.976,8.191
			c-0.16,0.064-0.992,0.368-2.016,0.368c-0.72,0-1.52-0.16-2.24-0.64C0.81,81.357,0.25,80.014,0.25,78.142V64.413
			c0-0.079-0.064-2.783,2.144-4.432c1.456-1.088,6.448-4.72,8.048-5.872v0.592c0,0.272,0.08,0.513,0.24,0.704
			c-1.936,1.408-6.224,4.544-7.568,5.536c-1.728,1.296-1.664,3.472-1.664,3.472v13.729c0,4.8,4.304,3.136,4.304,3.136
			c1.44-0.576,11.792-5.088,18.512-8C24.33,73.422,24.41,73.533,24.522,73.646z"/>
		<path fill="#1A171B" d="M25.162,2.158c-0.16,0.112-0.304,0.24-0.448,0.368c-1.616,0.64-2.896,1.504-3.92,2.496
			C19.818,5.485,18.89,6.03,18.01,6.638c0.576-0.96,1.312-1.888,2.24-2.72C21.786,3.149,23.434,2.558,25.162,2.158z"/>
		<path fill="#1A171B" d="M24.714,71.79c-0.032,0.031-0.064,0.048-0.096,0.079c-0.016-0.016-0.016-0.031-0.016-0.048L24.714,71.79z"
			/>
		<path fill="#1A171B" d="M24.602,71.821c0,0.017,0,0.032,0.016,0.048c-0.032,0.017-0.064,0.049-0.096,0.08
			c-0.352,0.368-0.432,0.896-0.256,1.328c-6.72,2.912-17.072,7.424-18.512,8c0,0-4.304,1.664-4.304-3.136V64.413
			c0,0-0.064-2.176,1.664-3.472c1.344-0.992,5.632-4.128,7.568-5.536c0.208,0.305,0.56,0.496,0.96,0.496c0.048,0,0.112,0,0.16-0.016
			c0.512,2.112,2.432,3.68,4.704,3.68h2.048l-1.328,0.977c-0.208,0.144-0.464,0.224-0.72,0.224c-2.608,0-4.832-1.648-5.696-3.968
			c-2.096,1.536-5.76,4.208-6.976,5.12c-1.168,0.863-1.184,2.367-1.184,2.464v13.76c0,0.72,0.112,1.632,0.64,2
			c0.624,0.432,1.76,0.128,2.032,0.016c1.472-0.575,12.608-5.424,19.248-8.319L24.602,71.821z"/>
		<path fill="#D39F10" d="M24.602,71.821l-0.032,0.017c-6.64,2.896-17.776,7.744-19.248,8.319C5.05,80.27,3.914,80.573,3.29,80.142
			c-0.528-0.368-0.64-1.28-0.64-2v-13.76c0-0.097,0.016-1.601,1.184-2.464c1.216-0.912,4.88-3.584,6.976-5.12
			c0.864,2.319,3.088,3.968,5.696,3.968c0.256,0,0.512-0.08,0.72-0.224l1.328-0.977h5.328v9.744
			C23.882,70.237,24.138,71.086,24.602,71.821z"/>
		<path fill="#1A171B" d="M24.138,46.542c0.448,0.432,0.48,1.136,0.096,1.615l-0.928-0.752h-1.632l0.752-0.815
			c0.24-0.256,0.56-0.384,0.88-0.384c0.208,0,0.4,0.048,0.592,0.159c0.048,0.032,0.112,0.064,0.16,0.112L24.138,46.542z"/>
		<path fill="#1A171B" d="M24.234,48.157c-0.016,0.017-0.032,0.049-0.048,0.064l-0.768,0.832l-0.544-0.448h-0.672l1.104-1.2
			L24.234,48.157z"/>
		<path fill="#1A171B" d="M24.058,46.478c-0.048-0.048-0.112-0.08-0.16-0.112C23.962,46.397,24.01,46.43,24.058,46.478z"/>
		<path fill="#1A171B" d="M24.714,2.525c-0.48,0.416-0.896,0.896-1.264,1.392c-0.912,0.304-1.808,0.672-2.656,1.104
			C21.818,4.03,23.098,3.166,24.714,2.525z"/>
		<path fill="#1A171B" d="M25.402,3.55c-3.024,2.832-3.648,7.776-3.76,10.032h-1.2c0.08-1.792,0.496-5.568,2.304-8.64
			c0.016,0,0.016,0,0.016,0C23.514,4.397,24.394,3.917,25.402,3.55z"/>
		<path fill="#1A171B" d="M22.874,48.605l0.544,0.448l-2.624,2.832c-0.224,0.256-0.544,0.384-0.88,0.384h-7.072v-1.2h7.072
			l2.288-2.464H22.874z"/>
		<polygon fill="#1A171B" points="23.306,47.405 22.202,48.605 20.554,48.605 21.674,47.405 		"/>
		<path fill="#1A171B" d="M11.642,46.206h11.664c-0.32,0-0.64,0.128-0.88,0.384l-0.752,0.815h-8.832
			C12.842,46.75,12.298,46.206,11.642,46.206z"/>
		<path fill="#1A171B" d="M22.858,13.357c0,0.08-0.016,0.144-0.016,0.224H22.25C22.442,13.501,22.65,13.421,22.858,13.357z"/>
		<path fill="#1A171B" d="M22.842,13.582c0,0.096-0.016,0.192-0.016,0.288c-0.032,0.528-0.016,0.832-0.016,0.864l-1.024,0.048H21.61
			c0,0-0.016-0.352,0.016-0.96c0.192-0.08,0.384-0.16,0.576-0.224c0.016,0,0.032-0.016,0.048-0.016H22.842z"/>
		<rect x="21.61" y="23.069" fill="#1A171B" width="1.2" height="0.784"/>
		<rect x="21.61" y="22.654" fill="#1A171B" width="1.2" height="0.416"/>
		<rect x="21.61" y="15.981" fill="#1A171B" width="1.2" height="6.672"/>
		<polygon fill="#1A171B" points="22.81,14.782 22.81,15.981 21.61,15.981 21.61,14.797 21.61,14.782 21.786,14.782 		"/>
		<path fill="#1A171B" d="M23.45,3.917c-0.256,0.336-0.48,0.672-0.688,1.024c0,0,0,0-0.016,0c-3.584,2.56-4.4,6.64-4.592,8.64H16.97
			c0.176-1.888,0.896-5.712,3.824-8.56C21.642,4.589,22.538,4.222,23.45,3.917z"/>
		<path fill="#D39F10" d="M22.746,4.941c-1.808,3.072-2.224,6.848-2.304,8.64h-2.288C18.346,11.582,19.162,7.501,22.746,4.941z"/>
		<path fill="#1A171B" d="M22.25,13.582c-0.016,0-0.032,0.016-0.048,0.016c-0.192,0.064-0.384,0.144-0.576,0.224
			c0-0.08,0-0.16,0.016-0.24H22.25z"/>
		<polygon fill="#1A171B" points="22.202,48.605 19.914,51.069 12.842,51.069 12.842,49.869 19.386,49.869 20.554,48.605 		"/>
		<polygon fill="#1A171B" points="21.674,47.405 20.554,48.605 12.842,48.605 12.842,47.405 		"/>
		<path fill="#1A171B" d="M21.642,13.582c-0.016,0.08-0.016,0.16-0.016,0.24c-0.128,0.048-0.256,0.112-0.384,0.16
			c-0.288,0.112-0.56,0.256-0.832,0.384c0-0.16,0-0.368,0.016-0.608c0-0.048,0-0.112,0.016-0.176H21.642z"/>
		<path fill="#1A171B" d="M21.626,13.822c-0.032,0.608-0.016,0.96-0.016,0.96h-1.2c0-0.08,0-0.224,0-0.416
			c0.272-0.128,0.544-0.272,0.832-0.384C21.37,13.934,21.498,13.87,21.626,13.822z"/>
		<rect x="20.41" y="23.069" fill="#1A171B" width="1.2" height="0.784"/>
		<rect x="20.41" y="22.654" fill="#1A171B" width="1.2" height="0.416"/>
		<rect x="20.41" y="15.981" fill="#1A171B" width="1.2" height="6.672"/>
		<polygon fill="#1A171B" points="21.61,14.797 21.61,15.981 20.41,15.981 20.41,14.846 		"/>
		<polygon fill="#1A171B" points="21.61,14.782 21.61,14.797 20.41,14.846 20.41,14.782 		"/>
		<polygon fill="#FFFFFF" points="20.554,48.605 19.386,49.869 12.842,49.869 12.842,48.605 		"/>
		<path fill="#1A171B" d="M27.53,0.525c-3.232,0.544-5.568,1.808-7.28,3.392c-4.384,2.128-7.904,5.536-9.936,9.664H9.77
			c-0.288,0-0.56,0.032-0.816,0.112C12.122,6.669,19.274,1.598,27.53,0.525z"/>
		<path fill="#1A171B" d="M20.442,13.582c-0.016,0.064-0.016,0.128-0.016,0.176c-0.016,0.24-0.016,0.448-0.016,0.608
			c-0.016,0.016-0.048,0.016-0.064,0.032c-0.256,0.112-0.496,0.24-0.752,0.384h-0.016h-1.472c0-0.016,0-0.016,0-0.032
			c0-0.08-0.016-0.512,0.048-1.168H20.442z"/>
		<path fill="#1A171B" d="M20.41,14.366c0,0.192,0,0.336,0,0.416h-0.816c0.256-0.144,0.496-0.272,0.752-0.384
			C20.362,14.381,20.394,14.381,20.41,14.366z"/>
		<rect x="18.106" y="23.069" fill="#1A171B" width="2.304" height="0.784"/>
		<rect x="18.106" y="22.654" fill="#1A171B" width="2.304" height="0.416"/>
		<rect x="18.106" y="15.981" fill="#D39F10" width="2.304" height="6.672"/>
		<path fill="#1A171B" d="M20.41,14.846v1.136h-2.304v-0.352c0.048-0.032,0.112-0.064,0.16-0.096c0.336-0.208,0.672-0.4,1.024-0.592
			c0.096-0.064,0.192-0.112,0.288-0.16h0.016h0.816V14.846z"/>
		<path fill="#1A171B" d="M19.578,14.782c-0.096,0.048-0.192,0.096-0.288,0.16c-0.336,0.176-0.688,0.368-1.024,0.592
			c-0.048,0.032-0.112,0.064-0.16,0.096v-0.72v-0.128H19.578z"/>
		<path fill="#1A171B" d="M19.29,14.941c-0.352,0.192-0.688,0.384-1.024,0.592C18.602,15.31,18.954,15.118,19.29,14.941z"/>
		<path fill="#1A171B" d="M18.01,6.638c0.88-0.608,1.808-1.152,2.784-1.616c-2.928,2.848-3.648,6.672-3.824,8.56h-1.2
			C15.914,12.03,16.394,9.262,18.01,6.638z"/>
		<path fill="#1A171B" d="M15.754,27.166c2.288,0,4.144,1.872,4.144,4.16s-1.856,4.144-4.144,4.144s-4.144-1.856-4.144-4.144
			S13.466,27.166,15.754,27.166z M18.698,31.326c0-1.632-1.312-2.96-2.944-2.96c-1.632,0-2.944,1.328-2.944,2.96
			c0,1.616,1.312,2.944,2.944,2.944C17.386,34.27,18.698,32.941,18.698,31.326z"/>
		<path fill="#1A171B" d="M10.314,13.582c2.032-4.128,5.552-7.536,9.936-9.664c-0.928,0.832-1.664,1.76-2.24,2.72
			c-2.672,1.824-4.864,4.192-6.336,6.944H10.314z"/>
		<path fill="#1A171B" d="M16.97,13.582h1.184c-0.064,0.656-0.048,1.088-0.048,1.168c0,0.016,0,0.016,0,0.032h-1.2
			C16.906,14.782,16.89,14.333,16.97,13.582z"/>
		<rect x="16.906" y="23.069" fill="#1A171B" width="1.2" height="0.784"/>
		<rect x="16.906" y="22.654" fill="#1A171B" width="1.2" height="0.416"/>
		<path fill="#1A171B" d="M18.106,15.981v6.672h-1.2V16.43v-0.016c0.112-0.08,0.224-0.16,0.352-0.24
			c0.096-0.064,0.192-0.128,0.288-0.192h0.016H18.106z"/>
		<path fill="#1A171B" d="M18.106,15.629v0.352h-0.544C17.738,15.854,17.93,15.742,18.106,15.629z"/>
		<path fill="#1A171B" d="M18.106,14.91v0.72c-0.176,0.112-0.368,0.224-0.56,0.352h-0.608C17.546,15.965,18.042,15.485,18.106,14.91
			z"/>
		<path fill="#1A171B" d="M18.106,14.782v0.128c-0.064,0.576-0.56,1.056-1.168,1.072c-0.016,0-0.016,0-0.032,0v-1.2H18.106z"/>
		<path fill="#1A171B" d="M18.106,15.629c-0.176,0.112-0.368,0.224-0.544,0.352h-0.016C17.738,15.854,17.93,15.742,18.106,15.629z"
			/>
		<path fill="#D39F10" d="M11.674,13.582c1.472-2.752,3.664-5.12,6.336-6.944c-1.616,2.624-2.096,5.392-2.24,6.944H11.674z"/>
		<path fill="#1A171B" d="M17.546,15.981c-0.096,0.064-0.192,0.128-0.288,0.192c-0.128,0.08-0.24,0.16-0.352,0.24v-0.432
			c0.016,0,0.016,0,0.032,0H17.546z"/>
		<path fill="#1A171B" d="M15.77,13.582h1.2c-0.08,0.752-0.064,1.2-0.064,1.2h-1.2C15.706,14.669,15.706,14.238,15.77,13.582z"/>
		<rect x="15.706" y="23.069" fill="#1A171B" width="1.2" height="0.784"/>
		<rect x="15.706" y="22.654" fill="#1A171B" width="1.2" height="0.416"/>
		<path fill="#1A171B" d="M16.906,16.43v6.224h-1.2v-5.328c0.192-0.16,0.384-0.32,0.592-0.464c0.064-0.048,0.128-0.112,0.208-0.16
			C16.634,16.605,16.762,16.51,16.906,16.43z"/>
		<path fill="#1A171B" d="M16.906,16.414v0.016c-0.144,0.08-0.272,0.176-0.4,0.272C16.634,16.605,16.762,16.51,16.906,16.414z"/>
		<path fill="#1A171B" d="M16.906,15.981v0.432c-0.144,0.096-0.272,0.192-0.4,0.288c-0.08,0.048-0.144,0.112-0.208,0.16
			c-0.208,0.144-0.4,0.304-0.592,0.464v-1.344H16.906z"/>
		<path fill="#1A171B" d="M16.906,14.782v1.2c-0.64,0-1.184-0.512-1.2-1.152v-0.048H16.906z"/>
		<path fill="#1A171B" d="M16.906,15.981h-1.2V14.83C15.722,15.47,16.266,15.981,16.906,15.981z"/>
		<path fill="#1A171B" d="M15.754,28.366c1.632,0,2.944,1.328,2.944,2.96c0,1.616-1.312,2.944-2.944,2.944
			c-1.632,0-2.944-1.328-2.944-2.944C12.81,29.693,14.122,28.366,15.754,28.366z M17.498,31.326c0-0.96-0.784-1.76-1.744-1.76
			s-1.744,0.8-1.744,1.76s0.784,1.744,1.744,1.744S17.498,32.286,17.498,31.326z"/>
		<path fill="#FFFFFF" d="M15.754,29.565c0.96,0,1.744,0.8,1.744,1.76s-0.784,1.744-1.744,1.744s-1.744-0.784-1.744-1.744
			S14.794,29.565,15.754,29.565z"/>
		<path fill="#1A171B" d="M11.674,13.582h4.096c-0.064,0.656-0.064,1.088-0.064,1.2h-2.304h-1.2h-1.12
			C11.258,14.381,11.45,13.981,11.674,13.582z"/>
		<rect x="13.402" y="23.069" fill="#1A171B" width="2.304" height="0.784"/>
		<rect x="13.402" y="22.654" fill="#1A171B" width="2.304" height="0.416"/>
		<path fill="#D39F10" d="M15.706,17.326v5.328h-2.304v-3.248C14.122,18.654,14.89,17.965,15.706,17.326z"/>
		<path fill="#D39F10" d="M15.706,15.981v1.344c-0.816,0.64-1.584,1.328-2.304,2.08v-3.424H15.706z"/>
		<polygon fill="#1A171B" points="15.706,14.83 15.706,15.981 13.402,15.981 13.402,14.782 15.706,14.782 		"/>
		<rect x="12.202" y="23.069" fill="#1A171B" width="1.2" height="0.784"/>
		<rect x="12.202" y="22.654" fill="#1A171B" width="1.2" height="0.416"/>
		<path fill="#1A171B" d="M13.402,19.406v3.248h-1.2v-1.92C12.586,20.27,12.986,19.837,13.402,19.406z"/>
		<path fill="#1A171B" d="M13.402,15.981v3.424c-0.416,0.432-0.816,0.864-1.2,1.328v-4.752H13.402z"/>
		<rect x="12.202" y="14.782" fill="#1A171B" width="1.2" height="1.2"/>
		<path fill="#1A171B" d="M12.842,52.27v2.432c0-0.447-0.256-0.863-0.656-1.071c-0.176-0.08-0.368-0.128-0.544-0.128V52.27H12.842z"
			/>
		<rect x="11.642" y="51.069" fill="#1A171B" width="1.2" height="1.2"/>
		<rect x="11.642" y="49.869" fill="#1A171B" width="1.2" height="1.2"/>
		<rect x="11.642" y="48.605" fill="#1A171B" width="1.2" height="1.264"/>
		<rect x="11.642" y="47.405" fill="#1A171B" width="1.2" height="1.2"/>
		<path fill="#1A171B" d="M11.642,42.638h1.2c0,0.672-0.544,1.2-1.2,1.2V42.638z"/>
		<path fill="#1A171B" d="M12.842,42.638h-1.2H9.514c0.816-0.736,1.6-1.072,1.664-1.104c0.144-0.063,0.304-0.096,0.464-0.096
			C12.298,41.438,12.842,41.981,12.842,42.638z"/>
		<path fill="#1A171B" d="M12.842,47.405h-1.2v-1.199C12.298,46.206,12.842,46.75,12.842,47.405z"/>
		<path fill="#1A171B" d="M12.186,53.63c0.4,0.208,0.656,0.624,0.656,1.071c0,0.624-0.464,1.104-1.04,1.185
			c-0.112-0.384-0.16-0.769-0.16-1.185v-1.199C11.818,53.502,12.01,53.55,12.186,53.63z"/>
		<path fill="#1A171B" d="M12.202,23.069v0.784h-1.04c0-0.208-0.064-0.416-0.16-0.592v-0.192H12.202z"/>
		<rect x="11.002" y="22.654" fill="#1A171B" width="1.2" height="0.416"/>
		<path fill="#1A171B" d="M12.202,20.733v1.92h-1.2v-0.368c0.096-0.144,0.208-0.288,0.304-0.432
			C11.594,21.47,11.882,21.102,12.202,20.733z"/>
		<path fill="#1A171B" d="M12.202,15.981v4.752c-0.32,0.368-0.608,0.736-0.896,1.12c-0.096,0.144-0.208,0.288-0.304,0.432v-6.304
			H12.202z"/>
		<path fill="#1A171B" d="M12.202,14.782v1.2h-1.2v-1.008c0.016-0.064,0.048-0.128,0.08-0.192H12.202z"/>
		<path fill="#1A171B" d="M11.802,55.886c-0.048,0.016-0.112,0.016-0.16,0.016c-0.4,0-0.752-0.191-0.96-0.496
			c0.592-0.432,0.96-0.704,0.96-0.704C11.642,55.117,11.69,55.502,11.802,55.886z"/>
		<path fill="#1A171B" d="M10.314,13.582h1.36c-0.224,0.4-0.416,0.8-0.592,1.2h-0.08H9.77C9.93,14.381,10.122,13.981,10.314,13.582z
			"/>
		<path fill="#1A171B" d="M11.642,53.502v1.199c0,0-0.368,0.272-0.96,0.704c-0.16-0.191-0.24-0.432-0.24-0.704v-0.592
			c0.32-0.24,0.496-0.368,0.496-0.368C11.146,53.582,11.386,53.502,11.642,53.502z"/>
		<path fill="#1A171B" d="M11.642,52.27v1.232c-0.256,0-0.496,0.08-0.704,0.239c0,0-0.176,0.128-0.496,0.368v-3.04
			C10.442,51.741,10.986,52.27,11.642,52.27z"/>
		<path fill="#1A171B" d="M11.642,51.069v1.2c-0.656,0-1.2-0.528-1.2-1.2c0-0.656,0.544-1.2,1.2-1.2V51.069z"/>
		<path fill="#1A171B" d="M11.642,48.605v1.264c-0.656,0-1.2,0.544-1.2,1.2v-2.464H11.642z"/>
		<rect x="10.442" y="47.405" fill="#1A171B" width="1.2" height="1.2"/>
		<path fill="#1A171B" d="M11.642,46.206v1.199h-1.2C10.442,46.75,10.986,46.206,11.642,46.206z"/>
		<path fill="#D39F10" d="M11.642,44.014v2.192H9.946C10.298,45.054,11.13,44.35,11.642,44.014z"/>
		<path fill="#1A171B" d="M11.642,43.838v0.176c-0.512,0.336-1.344,1.04-1.696,2.192h1.696c-0.656,0-1.2,0.544-1.2,1.199H8.57
			c0-1.664,0.704-2.815,1.424-3.567H11.642z"/>
		<path fill="#1A171B" d="M11.642,42.638v1.2H9.994C10.794,42.989,11.642,42.638,11.642,42.638z"/>
		<path fill="#1A171B" d="M7.626,41.438h4.016c-0.16,0-0.32,0.032-0.464,0.096c-0.064,0.032-0.848,0.368-1.664,1.104H6.426v-6.08
			c0-4.176,1.04-8.112,2.88-11.536c0.144,0.016,0.304,0.032,0.464,0.032h0.896c-1.984,3.488-3.04,7.456-3.04,11.504V41.438z"/>
		<path fill="#1A171B" d="M9.514,42.638h2.128c0,0-0.848,0.352-1.648,1.2H8.458C8.778,43.357,9.146,42.958,9.514,42.638z"/>
		<path fill="#1A171B" d="M11.162,23.854c0,0.208-0.048,0.432-0.176,0.624c-0.112,0.192-0.224,0.384-0.32,0.576H9.77
			c-0.16,0-0.32-0.016-0.464-0.032c0.208-0.4,0.432-0.784,0.656-1.168h1.04H11.162z"/>
		<path fill="#1A171B" d="M11.162,23.854h-0.16v-0.592C11.098,23.438,11.162,23.646,11.162,23.854z"/>
		<path fill="#1A171B" d="M11.082,14.782c-0.032,0.064-0.064,0.128-0.08,0.192v-0.192H11.082z"/>
		<path fill="#1A171B" d="M11.002,23.262v0.592h-1.04c0.16-0.272,0.32-0.528,0.496-0.784h0.4
			C10.922,23.134,10.97,23.198,11.002,23.262z"/>
		<path fill="#1A171B" d="M11.002,23.069v0.192c-0.032-0.064-0.08-0.128-0.144-0.192H11.002z"/>
		<path fill="#1A171B" d="M11.002,22.654v0.416h-0.144c-0.064-0.08-0.144-0.16-0.24-0.224c0.032-0.064,0.08-0.128,0.128-0.192
			H11.002z"/>
		<path fill="#D39F10" d="M11.002,22.286v0.368h-0.256C10.826,22.525,10.906,22.397,11.002,22.286z"/>
		<path fill="#D39F10" d="M11.002,15.981v6.304c-0.096,0.112-0.176,0.24-0.256,0.368H9.962H9.77c-0.608,0-1.072-0.464-1.072-1.072
			v-4.528c0-0.56,0.432-1.024,0.976-1.072c0.032,0,0.064,0,0.096,0H11.002z"/>
		<path fill="#1A171B" d="M11.002,14.974v1.008H9.77c0.48,0,0.912-0.272,1.104-0.736C10.906,15.149,10.954,15.054,11.002,14.974z"/>
		<path fill="#1A171B" d="M11.002,14.782v0.192c-0.048,0.08-0.096,0.176-0.128,0.272c-0.192,0.464-0.624,0.736-1.104,0.736
			c-0.032,0-0.064,0-0.096,0c-0.128-0.016-0.24-0.048-0.352-0.08c-0.352-0.144-0.608-0.448-0.704-0.8
			c0.336-0.208,0.736-0.32,1.152-0.32H11.002z"/>
		<path fill="#1A171B" d="M10.858,23.069h-0.4c0.048-0.08,0.096-0.16,0.144-0.224c0.016,0,0.016,0,0.016,0
			C10.714,22.91,10.794,22.99,10.858,23.069z"/>
		<path fill="#1A171B" d="M10.746,22.654c-0.048,0.064-0.096,0.128-0.128,0.192c0,0,0,0-0.016,0c0-0.016-0.016-0.016-0.016-0.016
			c-0.192-0.112-0.416-0.176-0.624-0.176H10.746z"/>
		<path fill="#1A171B" d="M10.602,22.846c-0.048,0.064-0.096,0.144-0.144,0.224c-0.176,0.256-0.336,0.512-0.496,0.784H9.77
			c-0.368,0-0.72-0.096-1.04-0.256c0.064-0.128,0.128-0.24,0.208-0.368c0.224-0.368,0.608-0.576,1.024-0.576
			c0.208,0,0.432,0.064,0.624,0.176C10.586,22.83,10.602,22.83,10.602,22.846z"/>
		<path fill="#1A171B" d="M10.442,47.405v1.2H8.57c-0.656,0-1.2-0.528-1.2-1.2c0-1.504,0.464-2.672,1.088-3.567h1.536
			c-0.72,0.752-1.424,1.903-1.424,3.567H10.442z"/>
		<path fill="#1A171B" d="M10.314,13.582c-0.192,0.4-0.384,0.8-0.544,1.2c-0.416,0-0.816,0.112-1.152,0.32
			c-0.064-0.24-0.064-0.512,0.048-0.768c0.096-0.224,0.176-0.432,0.288-0.64c0.256-0.08,0.528-0.112,0.816-0.112H10.314z"/>
		<path fill="#1A171B" d="M9.962,23.854c-0.224,0.384-0.448,0.768-0.656,1.168C8.89,24.974,8.49,24.83,8.138,24.654
			c0.192-0.368,0.384-0.72,0.592-1.056c0.32,0.16,0.672,0.256,1.04,0.256H9.962z"/>
		<path fill="#1A171B" d="M9.77,22.654h0.192c-0.416,0-0.8,0.208-1.024,0.576c-0.08,0.128-0.144,0.24-0.208,0.368
			c-0.736-0.368-1.232-1.12-1.232-2.016v-4.528c0-0.832,0.448-1.568,1.12-1.952c0.096,0.352,0.352,0.656,0.704,0.8
			c0.112,0.032,0.224,0.064,0.352,0.08c-0.544,0.048-0.976,0.512-0.976,1.072v4.528C8.698,22.189,9.162,22.654,9.77,22.654z"/>
		<path fill="#1A171B" d="M9.514,42.638c-0.368,0.32-0.736,0.72-1.056,1.2H6.426c-0.656,0-1.2-0.528-1.2-1.2v-6.08
			c0-4.16,1.008-8.24,2.912-11.904c0.352,0.176,0.752,0.32,1.168,0.368c-1.84,3.424-2.88,7.36-2.88,11.536v6.08H9.514z"/>
		<path fill="#1A171B" d="M8.954,13.693c-0.112,0.208-0.192,0.416-0.288,0.64c-0.112,0.256-0.112,0.528-0.048,0.768
			c-0.672,0.384-1.12,1.12-1.12,1.952v4.528c0,0.896,0.496,1.648,1.232,2.016c-0.208,0.336-0.4,0.688-0.592,1.056
			c-1.104-0.592-1.84-1.744-1.84-3.072v-4.528C6.298,15.421,7.434,14.045,8.954,13.693z"/>
	</g>
	<g>
	</g>
</g>
</svg>
