<?xml version="1.0" encoding="utf-8"?>
<!-- Generator: Adobe Illustrator 15.0.0, SVG Export Plug-In  -->
<!DOCTYPE svg PUBLIC "-//W3C//DTD SVG 1.1//EN" "http://www.w3.org/Graphics/SVG/1.1/DTD/svg11.dtd" [
	<!ENTITY ns_flows "http://ns.adobe.com/Flows/1.0/">
]>
<svg version="1.1"
	 xmlns="http://www.w3.org/2000/svg" xmlns:xlink="http://www.w3.org/1999/xlink" xmlns:a="http://ns.adobe.com/AdobeSVGViewerExtensions/3.0/"
	 x="0px" y="0px" width="80px" height="120px" viewBox="-10.85 -41.83 80 120"
	 overflow="visible" enable-background="new -10.85 -41.83 80 120" xml:space="preserve">
<defs>
</defs>
<g id="XMLID_1_">
	<g>
		<path fill="#FFFFFF" d="M18.19,52.91h18.729c-0.729,1.859-1.64,3.74-2.739,5.649l-18.13-0.01C16.3,55.17,17.63,53.479,18.19,52.91
			z"/>
		<path fill="#FFFFFF" d="M10.13,17.87c0.9,0,1.64,0.73,1.64,1.64c0,0.9-0.74,1.641-1.64,1.641c-0.91,0-1.64-0.74-1.64-1.641
			C8.49,18.6,9.22,17.87,10.13,17.87z"/>
		<path fill="#FFFFFF" d="M10.13,15.62c-2.15,0-3.89,1.74-3.89,3.89c0,2.141,1.74,3.891,3.89,3.891c2.14,0,3.89-1.75,3.89-3.891
			C14.02,17.36,12.27,15.62,10.13,15.62z M29.96,29.24l1.32,4.08c-0.02,0.02-0.05,0.029-0.08,0.04
			c-0.569,0.229-0.85,0.89-0.609,1.47c0.18,0.43,0.6,0.689,1.04,0.689c0.14,0,0.289-0.02,0.43-0.08c0.67-0.279,1.29-0.569,1.85-0.89
			l1.101,1.101c0.22,0.22,0.51,0.329,0.79,0.329c0.29,0,0.58-0.109,0.8-0.329c0.439-0.44,0.439-1.16,0-1.601l-0.771-0.77
			c0.49-0.38,0.92-0.78,1.301-1.181c0.31,0.73,0.6,1.49,0.85,2.28c1.65,5.14,1.56,10.59-0.26,16.28H18.88V46.5
			c1.87-0.34,3.81-0.85,5.54-1.62c0.56-0.25,0.82-0.92,0.56-1.479c-0.25-0.57-0.92-0.83-1.48-0.57c-3.66,1.64-8.61,1.979-11.09,2.04
			h-1.54h-0.04c-1.89,0-3.43-1.55-3.43-3.44v-1.77c0.02,0,0.04,0,0.06,0c1.97,0,5.61-0.33,7.44-2.59c0.4-0.48,0.32-1.19-0.16-1.58
			c-0.48-0.391-1.19-0.32-1.58,0.16C11.99,37.09,9.17,37.4,7.4,37.4v-7.29c0-0.62-0.51-1.12-1.13-1.12H2.5v-4.57
			c0-5.82,2.28-11.12,6-15.04c1.35,1.2,4.39,3.19,11.19,6.21c1.88,0.84,4.91,2.37,8.03,4.78c0.01,0.02,0.02,0.03,0.03,0.03
			c0.67,0.6,1.37,1.199,2.12,1.789c-0.86,1-1.38,2.301-1.38,3.73v2.26c0,0.62,0.51,1.12,1.13,1.12
			C29.74,29.3,29.85,29.28,29.96,29.24z"/>
		<path fill="#CF9B46" d="M24.43,2.5c12.09,0,21.93,9.83,21.94,21.78l-2.13,16.87c-1.59-5.19-4.41-9.57-5.52-11.181
			c1.21-2.13,1.239-3.92,1.239-4.05c0-3.17-2.569-5.74-5.729-5.74c-0.91,0-1.771,0.21-2.54,0.601c-0.05-0.061-0.11-0.11-0.17-0.15
			c-0.811-0.76-1.66-1.47-2.55-2.16c-4.3-3.87-6.8-7.58-8.25-10.46c-1.08-2.15-1.58-3.84-1.8-4.81C20.68,2.74,22.53,2.5,24.43,2.5z"
			/>
		<path fill="#231F20" d="M45,44.12c0.801,4.109,0.601,8.47-1.89,12.229c-0.21,0.33-0.57,0.511-0.93,0.511
			c-0.221,0-0.431-0.07-0.62-0.19c-0.01-0.01-0.03-0.02-0.04-0.03c2.49-2.989,2.8-7.13,2.8-7.13L45,44.12z"/>
		<path fill="#231F20" d="M45,44.12l-0.68,5.39c0,0-0.31,4.141-2.8,7.13c-0.41-0.29-0.561-0.81-0.41-1.27
			c0.01-0.01,0.01-0.01,0.021-0.021c1.789-2.54,2.05-5.699,2.069-5.92l1.04-8.279C44.55,42.11,44.81,43.11,45,44.12z"/>
		<path fill="#231F20" d="M36.19,59.59c2.43-0.32,4.13-1.5,5.33-2.95c0.01,0.011,0.03,0.021,0.04,0.03
			c0.189,0.12,0.399,0.19,0.62,0.19c0.359,0,0.72-0.181,0.93-0.511l0.021,0.011c-1.641,2.46-4.271,4.449-8.29,4.449
			c0.38,0,0.76-0.199,0.97-0.56C35.94,60.03,36.07,59.81,36.19,59.59z"/>
		<path fill="#231F20" d="M36.89,58.31c1.939-0.47,3.29-1.62,4.22-2.939c-0.15,0.46,0,0.979,0.41,1.27c-1.2,1.45-2.9,2.63-5.33,2.95
			C36.44,59.16,36.669,58.729,36.89,58.31z"/>
		<path fill="#231F20" d="M44.24,41.15L43.2,49.43c-0.02,0.221-0.28,3.38-2.069,5.92c0.02-0.08,0.06-0.16,0.109-0.239
			c3.07-4.641,1.98-10.61,0.07-15.48c-0.17-2.01-0.57-3.99-1.19-5.93c-0.399-1.23-0.88-2.44-1.46-3.62
			c0.021-0.04,0.04-0.07,0.061-0.11C39.83,31.58,42.65,35.96,44.24,41.15z"/>
		<path fill="#231F20" d="M41.13,55.35C41.12,55.36,41.12,55.36,41.11,55.37C41.11,55.36,41.12,55.36,41.13,55.35z"/>
		<path fill="#CF9B46" d="M36.89,58.31c1.1-2.05,1.99-4.08,2.689-6.08c1.49-4.319,2.07-8.529,1.73-12.6
			c1.91,4.87,3,10.84-0.07,15.48c-0.05,0.079-0.09,0.159-0.109,0.239C41.12,55.36,41.11,55.36,41.11,55.37
			C40.18,56.689,38.83,57.84,36.89,58.31z"/>
		<path fill="#231F20" d="M41.31,39.63c0.34,4.07-0.24,8.28-1.73,12.6l-0.02-0.01c0.06-0.14,0.09-0.29,0.09-0.439
			c0-0.5-0.33-0.931-0.78-1.061c1.721-5.54,1.761-10.569,0.641-15.04C40.13,36.86,40.76,38.189,41.31,39.63z"/>
		<path fill="#231F20" d="M38.12,52.91c0.29-0.74,0.54-1.471,0.75-2.19c0.45,0.13,0.78,0.561,0.78,1.061
			c0,0.149-0.03,0.3-0.09,0.439c-0.17,0.4-0.57,0.69-1.03,0.69H38.12z"/>
		<path fill="#231F20" d="M39.51,35.68c-0.38-1.569-0.92-3.08-1.58-4.52c0.279-0.36,0.52-0.73,0.729-1.08
			c0.58,1.18,1.061,2.39,1.46,3.62c0.62,1.939,1.021,3.92,1.19,5.93C40.76,38.189,40.13,36.86,39.51,35.68z"/>
		<path fill="#231F20" d="M38.53,52.91c0.46,0,0.86-0.29,1.03-0.69l0.02,0.01c-0.699,2-1.59,4.03-2.689,6.08
			c-0.44,0.12-0.9,0.19-1.4,0.221c1.07-1.931,1.94-3.801,2.63-5.62H38.53z"/>
		<path fill="#231F20" d="M38.66,30.08c-0.109-0.23-0.22-0.45-0.34-0.68c0.08,0.109,0.22,0.3,0.4,0.569
			C38.7,30.01,38.68,30.04,38.66,30.08z"/>
		<path fill="#231F20" d="M37.31,31.9c0.57,0.88,1.37,2.189,2.2,3.779c1.12,4.471,1.08,9.5-0.641,15.04
			c-0.109-0.04-0.22-0.06-0.34-0.06h-0.81c1.819-5.69,1.91-11.141,0.26-16.28c-0.25-0.79-0.54-1.55-0.85-2.28
			C37.2,32.04,37.26,31.97,37.31,31.9z"/>
		<path fill="#231F20" d="M36.919,52.91c0.301-0.76,0.57-1.51,0.801-2.25h0.81c0.12,0,0.23,0.02,0.34,0.06
			c-0.21,0.72-0.46,1.45-0.75,2.19H36.919z"/>
		<path fill="#231F20" d="M38.32,29.4c0.12,0.229,0.23,0.449,0.34,0.68c-0.21,0.35-0.45,0.72-0.729,1.08
			c-0.17-0.391-0.36-0.78-0.561-1.16c0.221-0.33,0.41-0.65,0.57-0.96c0.13,0.07,0.24,0.17,0.33,0.29c0.01,0.01,0.02,0.02,0.03,0.04
			C38.3,29.38,38.31,29.39,38.32,29.4z"/>
		<path fill="#231F20" d="M37.94,29.03c0.03-0.061,0.06-0.12,0.09-0.17c0.101,0.17,0.19,0.34,0.271,0.51
			c-0.011-0.021-0.021-0.03-0.03-0.04c-0.09-0.12-0.2-0.22-0.33-0.29V29.03z"/>
		<path fill="#231F20" d="M36.919,52.91h1.2c-0.689,1.819-1.56,3.689-2.63,5.62c-0.21,0.02-0.43,0.029-0.649,0.029h-0.66
			C35.28,56.65,36.19,54.77,36.919,52.91z"/>
		<path fill="#231F20" d="M37.93,31.16c0.66,1.439,1.2,2.95,1.58,4.52c-0.83-1.59-1.63-2.899-2.2-3.779
			C37.54,31.66,37.74,31.41,37.93,31.16z"/>
		<path fill="#231F20" d="M37.93,31.16c-0.19,0.25-0.391,0.5-0.62,0.74c-0.28-0.431-0.51-0.761-0.65-0.971
			c0.271-0.31,0.5-0.62,0.71-0.93C37.57,30.38,37.76,30.77,37.93,31.16z"/>
		<path fill="#231F20" d="M18.88,50.66h18.84c-0.23,0.74-0.5,1.49-0.801,2.25H18.19c0.13-0.15,0.22-0.221,0.24-0.23
			c0.28-0.21,0.45-0.54,0.45-0.899V50.66z"/>
		<path fill="#FFFFFF" d="M34.23,22.43c1.92,0,3.479,1.57,3.479,3.49c0,0.02-0.01,0.72-0.38,1.73c-1.09-1.801-2.399-3.511-3.89-5.12
			C33.69,22.46,33.959,22.43,34.23,22.43z"/>
		<path fill="#231F20" d="M37.94,29.04c-0.16,0.31-0.35,0.63-0.57,0.96c-0.17-0.33-0.35-0.65-0.54-0.98
			c0.351-0.199,0.78-0.189,1.11,0.011V29.04z"/>
		<path fill="#231F20" d="M36.61,30.99c0.18,0.359,0.35,0.729,0.521,1.109C36.75,32.5,36.32,32.9,35.83,33.28l-0.8-0.801
			C35.65,31.99,36.18,31.49,36.61,30.99z"/>
		<path fill="#231F20" d="M36.75,28.88c0.25-0.44,0.44-0.86,0.58-1.229c0.25,0.399,0.48,0.8,0.7,1.21
			c-0.03,0.05-0.06,0.109-0.09,0.17c-0.33-0.2-0.76-0.21-1.11-0.011C36.81,28.97,36.79,28.93,36.75,28.88z"/>
		<path fill="#231F20" d="M36.83,29.02c0.19,0.33,0.37,0.65,0.54,0.98c-0.21,0.31-0.439,0.62-0.71,0.93
			c-0.12-0.16-0.18-0.25-0.189-0.26c-0.021-0.03-0.04-0.06-0.061-0.09c-0.02-0.05-0.05-0.101-0.069-0.15
			c-0.021-0.029-0.03-0.06-0.04-0.08c-0.12-0.37-0.04-0.77,0.199-1.06c0.061-0.07,0.131-0.14,0.2-0.19
			C36.74,29.07,36.78,29.04,36.83,29.02z"/>
		<path fill="#231F20" d="M36.66,30.93c0.141,0.21,0.37,0.54,0.65,0.971c-0.05,0.069-0.11,0.14-0.18,0.199
			c-0.171-0.38-0.341-0.75-0.521-1.109C36.63,30.97,36.65,30.95,36.66,30.93z"/>
		<path fill="#FFFFFF" d="M36.75,28.88c-1.229-2.15-2.739-4.11-4.43-5.88c0.33-0.22,0.71-0.38,1.12-0.47
			c1.49,1.609,2.8,3.319,3.89,5.12C37.19,28.02,37,28.439,36.75,28.88z"/>
		<path fill="#231F20" d="M36.5,29.29c0.08-0.14,0.17-0.28,0.25-0.41c0.04,0.05,0.061,0.09,0.08,0.14
			c-0.05,0.021-0.09,0.051-0.13,0.08C36.63,29.15,36.56,29.22,36.5,29.29z"/>
		<path fill="#231F20" d="M36.47,30.67c0.01,0.01,0.069,0.1,0.189,0.26c-0.01,0.021-0.029,0.04-0.05,0.061
			c-0.06-0.141-0.13-0.28-0.2-0.41C36.43,30.61,36.45,30.64,36.47,30.67z"/>
		<path fill="#231F20" d="M36.89,58.31c-0.221,0.42-0.45,0.851-0.7,1.28c-0.43,0.061-0.88,0.09-1.35,0.09
			c0.229-0.39,0.449-0.77,0.649-1.149C35.99,58.5,36.45,58.43,36.89,58.31z"/>
		<path fill="#231F20" d="M34.22,31.67c0.76-0.57,1.359-1.17,1.83-1.76c0.09,0.14,0.17,0.29,0.25,0.439
			c0.01,0.021,0.02,0.051,0.04,0.08c0.02,0.05,0.04,0.101,0.069,0.15c0.07,0.13,0.141,0.27,0.2,0.41c-0.43,0.5-0.96,1-1.58,1.489
			L34.22,31.67z"/>
		<path fill="#231F20" d="M36.34,30.43c0.02,0.05,0.05,0.101,0.069,0.15C36.38,30.53,36.36,30.479,36.34,30.43z"/>
		<path fill="#231F20" d="M36.5,29.29c-0.239,0.29-0.319,0.689-0.199,1.06c-0.08-0.149-0.16-0.3-0.25-0.439
			C36.209,29.7,36.36,29.5,36.5,29.29z"/>
		<path fill="#231F20" d="M33.91,34.55c0.73-0.399,1.36-0.82,1.92-1.27l0.771,0.77c0.439,0.44,0.439,1.16,0,1.601
			c-0.22,0.22-0.51,0.329-0.8,0.329c-0.28,0-0.57-0.109-0.79-0.329L33.91,34.55z"/>
		<path fill="#231F20" d="M34.22,31.67l0.81,0.81c-0.56,0.431-1.21,0.851-1.95,1.24l-0.83-0.84C33.01,32.5,33.66,32.1,34.22,31.67z"
			/>
		<path fill="#231F20" d="M34.77,60.81c-0.17-0.01-0.34-0.06-0.5-0.159c-0.54-0.32-0.72-1-0.4-1.54
			c0.11-0.181,0.21-0.37,0.311-0.551h0.66c0.22,0,0.439-0.01,0.649-0.029c-0.2,0.38-0.42,0.76-0.649,1.149
			c0.47,0,0.92-0.029,1.35-0.09c-0.12,0.22-0.25,0.44-0.38,0.66c-0.21,0.36-0.59,0.56-0.97,0.56H34.77z"/>
		<path fill="#231F20" d="M33.13,30.58l1.09,1.09c-0.561,0.43-1.21,0.83-1.971,1.21l-0.71-0.71c-0.439-0.44-0.439-1.15,0-1.59
			C31.98,30.14,32.69,30.14,33.13,30.58z"/>
		<path fill="#231F20" d="M35.83,33.28c-0.56,0.449-1.189,0.87-1.92,1.27l-0.83-0.83c0.74-0.39,1.391-0.81,1.95-1.24L35.83,33.28z"
			/>
		<path fill="#231F20" d="M37.709,25.92c0-1.92-1.56-3.49-3.479-3.49c-0.271,0-0.54,0.03-0.79,0.101
			c-0.28-0.311-0.58-0.61-0.87-0.91c0.521-0.2,1.08-0.311,1.66-0.311c2.54,0,4.6,2.061,4.6,4.61c0,0,0,1.28-0.8,2.94
			c-0.22-0.41-0.45-0.811-0.7-1.21C37.7,26.64,37.709,25.939,37.709,25.92z"/>
		<path fill="#231F20" d="M34.23,20.18c3.16,0,5.729,2.57,5.729,5.74c0,0.13-0.029,1.92-1.239,4.05c-0.181-0.27-0.32-0.46-0.4-0.569
			c-0.01-0.011-0.02-0.021-0.02-0.03c-0.08-0.17-0.17-0.34-0.271-0.51c0.8-1.66,0.8-2.94,0.8-2.94c0-2.55-2.06-4.61-4.6-4.61
			c-0.58,0-1.14,0.11-1.66,0.311c-0.29-0.29-0.58-0.57-0.88-0.84C32.459,20.39,33.32,20.18,34.23,20.18z"/>
		<path fill="#231F20" d="M33.44,22.53c-0.41,0.09-0.79,0.25-1.12,0.47c-0.229-0.23-0.46-0.47-0.689-0.7
			c0.029-0.03,0.05-0.06,0.079-0.09c0.061-0.07,0.101-0.15,0.131-0.23c0.229-0.14,0.47-0.26,0.729-0.359
			C32.86,21.92,33.16,22.22,33.44,22.53z"/>
		<path fill="#231F20" d="M32.25,32.88l0.83,0.84c-0.449,0.24-0.93,0.47-1.449,0.681l-0.351-1.08
			C31.62,33.18,31.95,33.03,32.25,32.88z"/>
		<path fill="#FFFFFF" d="M36.05,29.91c-1.28-2.36-2.851-4.4-4.551-6.15c0.221-0.29,0.5-0.55,0.82-0.76
			c1.69,1.77,3.2,3.729,4.43,5.88c-0.08,0.13-0.17,0.271-0.25,0.41C36.36,29.5,36.209,29.7,36.05,29.91z"/>
		<path fill="#231F20" d="M31.69,20.78c0.3,0.27,0.59,0.55,0.88,0.84c-0.26,0.1-0.5,0.22-0.729,0.359
			c0.189-0.399,0.119-0.859-0.16-1.189C31.68,20.77,31.69,20.78,31.69,20.78z"/>
		<path fill="#231F20" d="M31.02,22.62c0.229-0.04,0.439-0.15,0.61-0.32c0.229,0.23,0.46,0.47,0.689,0.7
			c-0.32,0.21-0.6,0.47-0.82,0.76c-0.26-0.28-0.529-0.55-0.8-0.81C30.8,22.83,30.91,22.72,31.02,22.62z"/>
		<path fill="#231F20" d="M31.52,22.2c-0.271-0.271-0.55-0.53-0.83-0.79c0.31-0.25,0.64-0.46,0.99-0.62
			c0.279,0.33,0.35,0.79,0.16,1.189C31.73,22.04,31.62,22.12,31.52,22.2z"/>
		<path fill="#231F20" d="M31.63,22.3c-0.03-0.03-0.07-0.06-0.11-0.1c0.1-0.08,0.21-0.16,0.32-0.221
			c-0.03,0.08-0.07,0.16-0.131,0.23C31.68,22.24,31.66,22.27,31.63,22.3z"/>
		<path fill="#231F20" d="M31.69,20.78c0,0-0.01-0.011-0.01,0.01c-0.05-0.061-0.101-0.11-0.16-0.16
			C31.58,20.67,31.64,20.72,31.69,20.78z"/>
		<path fill="#231F20" d="M31.02,22.62c0.149-0.16,0.32-0.3,0.5-0.42c0.04,0.04,0.08,0.069,0.11,0.1
			C31.459,22.47,31.25,22.58,31.02,22.62z"/>
		<path fill="#231F20" d="M31.63,34.4c0.52-0.211,1-0.44,1.449-0.681l0.83,0.83c-0.56,0.32-1.18,0.61-1.85,0.89
			c-0.141,0.061-0.29,0.08-0.43,0.08c-0.44,0-0.86-0.26-1.04-0.689c-0.24-0.58,0.04-1.24,0.609-1.47
			c0.03-0.011,0.061-0.021,0.08-0.04L31.63,34.4z"/>
		<path fill="#FFFFFF" d="M31.28,33.32l-1.32-4.08c0.45-0.13,0.78-0.561,0.78-1.061v-2.26c0-0.81,0.28-1.56,0.76-2.16
			c1.7,1.75,3.271,3.79,4.551,6.15c-0.471,0.59-1.07,1.189-1.83,1.76l-1.09-1.09c-0.44-0.44-1.15-0.44-1.591,0
			c-0.439,0.439-0.439,1.149,0,1.59l0.71,0.71C31.95,33.03,31.62,33.18,31.28,33.32z"/>
		<path fill="#231F20" d="M31.52,22.2c-0.18,0.12-0.351,0.26-0.5,0.42c-0.061,0.01-0.13,0.02-0.2,0.02
			c-0.24,0-0.479-0.08-0.69-0.239c-0.05-0.04-0.1-0.08-0.15-0.12c-0.01-0.021-0.02-0.021-0.02-0.021c-0.03-0.04-0.05-0.06-0.08-0.08
			c0.25-0.29,0.52-0.55,0.81-0.77C30.97,21.67,31.25,21.93,31.52,22.2z"/>
		<path fill="#231F20" d="M31.02,22.62c-0.11,0.1-0.22,0.21-0.32,0.33c-0.189-0.19-0.38-0.37-0.57-0.55
			c0.21,0.159,0.45,0.239,0.69,0.239C30.89,22.64,30.959,22.63,31.02,22.62z"/>
		<path fill="#231F20" d="M29.62,25.92c0-1.13,0.41-2.17,1.08-2.97c0.271,0.26,0.54,0.529,0.8,0.81
			c-0.479,0.601-0.76,1.351-0.76,2.16v2.26c0,0.5-0.33,0.931-0.78,1.061l-0.34-1.061V25.92z"/>
		<path fill="#231F20" d="M31.52,20.63c-0.92-0.72-1.77-1.44-2.55-2.16C29.86,19.16,30.709,19.87,31.52,20.63z"/>
		<path fill="#231F20" d="M29.96,22.26c0,0,0.01,0,0.02,0.021C29.97,22.27,29.96,22.27,29.96,22.26z"/>
		<path fill="#231F20" d="M29.88,22.18c0.03,0.021,0.05,0.04,0.08,0.08c-0.03-0.02-0.06-0.04-0.09-0.07
			C29.87,22.18,29.87,22.18,29.88,22.18z"/>
		<path fill="#231F20" d="M28.49,25.92c0-1.43,0.52-2.73,1.38-3.73c0.03,0.03,0.06,0.051,0.09,0.07c0,0.01,0.01,0.01,0.02,0.021
			c0.05,0.04,0.1,0.08,0.15,0.12c0.19,0.18,0.38,0.359,0.57,0.55c-0.67,0.8-1.08,1.84-1.08,2.97v2.26l0.34,1.061
			c-0.11,0.04-0.22,0.06-0.34,0.06c-0.62,0-1.13-0.5-1.13-1.12V25.92z"/>
		<path fill="#231F20" d="M23.72,16.37c2.45,1.39,4.82,3.069,6.97,5.04c-0.29,0.22-0.56,0.479-0.81,0.77
			c-0.71-0.64-1.42-1.229-2.13-1.779c-0.01,0-0.02-0.011-0.03-0.03C26.18,19.02,24.86,17.67,23.72,16.37z"/>
		<path fill="#231F20" d="M27.75,20.4c0.71,0.55,1.42,1.14,2.13,1.779c-0.01,0-0.01,0-0.01,0.01C29.12,21.6,28.42,21,27.75,20.4z"/>
		<path fill="#231F20" d="M31.68,20.79c-0.351,0.16-0.681,0.37-0.99,0.62c-2.15-1.971-4.52-3.65-6.97-5.04
			c-0.68-0.77-1.29-1.52-1.83-2.25c2.57,1.25,4.94,2.71,7.08,4.35c0.78,0.72,1.63,1.44,2.55,2.16
			C31.58,20.68,31.63,20.729,31.68,20.79z"/>
		<path fill="#231F20" d="M12.41,44.87c2.48-0.061,7.43-0.4,11.09-2.04c0.56-0.26,1.23,0,1.48,0.57c0.26,0.56,0,1.229-0.56,1.479
			c-1.73,0.771-3.67,1.28-5.54,1.62v-0.51c0-0.62-0.51-1.12-1.13-1.12H12.41z"/>
		<path fill="#231F20" d="M24.43,2.5c-1.9,0-3.75,0.24-5.51,0.7l-0.17-0.91c-0.01-0.07-0.02-0.13-0.04-0.19
			c1.83-0.48,3.74-0.73,5.72-0.73c12.73,0,23.05,10.32,23.05,23.05L45,44.12c-0.189-1.01-0.449-2.01-0.76-2.97l2.13-16.87
			C46.36,12.33,36.52,2.5,24.43,2.5z"/>
		<path fill="#CF9B46" d="M21.89,14.12c-0.42-0.2-0.85-0.4-1.28-0.59c-6.84-3.03-9.51-4.89-10.49-5.7c1.94-1.68,4.19-3.03,6.64-3.94
			C17.22,5.83,18.47,9.61,21.89,14.12z"/>
		<path fill="#231F20" d="M20.72,8.01c1.45,2.88,3.95,6.59,8.25,10.46c-2.14-1.64-4.51-3.1-7.08-4.35
			c-3.42-4.51-4.67-8.29-5.13-10.23c0.7-0.27,1.42-0.5,2.16-0.69C19.14,4.17,19.64,5.86,20.72,8.01z"/>
		<path fill="#231F20" d="M17.75,50.66c-0.46,0-0.86,0.279-1.03,0.68l-0.09-0.05v-4.17h-4.06c1.52-0.04,3.85-0.181,6.31-0.62v4.16
			H17.75z"/>
		<path fill="#231F20" d="M18.75,2.29l0.17,0.91c-0.74,0.19-1.46,0.42-2.16,0.69c-0.12-0.5-0.18-0.88-0.22-1.12
			c0.7-0.26,1.43-0.49,2.17-0.67C18.73,2.16,18.74,2.22,18.75,2.29z"/>
		<path fill="#231F20" d="M17.75,52.91c-0.62,0-1.12-0.51-1.12-1.13c0-0.15,0.03-0.301,0.09-0.44c0.17-0.4,0.57-0.68,1.03-0.68h1.13
			v1.12c0,0.359-0.17,0.689-0.45,0.899c-0.02,0.01-0.11,0.08-0.24,0.23H17.75z"/>
		<path fill="#231F20" d="M24.43,1.37c-1.98,0-3.89,0.25-5.72,0.73c-0.13-0.52-0.63-0.88-1.17-0.83c-0.05,0-0.1,0.01-0.14,0.03
			c2.22-0.69,4.58-1.05,7.03-1.05c13.331,0,24.18,10.84,24.18,24.17l-3.17,25.23c-0.14,1.829-0.8,4.46-2.31,6.71L43.11,56.35
			c2.49-3.76,2.69-8.12,1.89-12.229l2.48-19.7C47.48,11.69,37.16,1.37,24.43,1.37z"/>
		<path fill="#231F20" d="M17.4,1.3c-0.04,0.01-0.09,0.02-0.13,0.03C17.31,1.31,17.35,1.3,17.4,1.3z"/>
		<path fill="#231F20" d="M18.71,2.1c-0.74,0.18-1.47,0.41-2.17,0.67c-0.02-0.15-0.03-0.25-0.03-0.28
			c-0.04-0.52,0.27-0.99,0.74-1.15c0.01,0,0.01-0.01,0.02-0.01c0.04-0.01,0.09-0.02,0.13-0.03c0.04-0.02,0.09-0.03,0.14-0.03
			C18.08,1.22,18.58,1.58,18.71,2.1z"/>
		<path fill="#231F20" d="M16.63,51.78c0,0.62,0.5,1.13,1.12,1.13h0.44c-0.56,0.569-1.89,2.26-2.14,5.64l18.13,0.01
			c-0.101,0.181-0.2,0.37-0.311,0.551c-0.319,0.54-0.14,1.22,0.4,1.54c0.16,0.1,0.33,0.149,0.5,0.159L14.88,60.8
			c-0.62,0-1.12-0.5-1.12-1.12c0-4.899,1.96-7.46,2.87-8.39l0.09,0.05C16.66,51.479,16.63,51.63,16.63,51.78z"/>
		<path fill="#231F20" d="M12.57,47.12c-0.38,0.01-0.72,0.01-0.99,0.01c-0.34,0-0.59-0.01-0.71-0.01H12.57z"/>
		<path fill="#231F20" d="M12.41,44.87c-0.94,0.02-1.52,0-1.54,0H12.41z"/>
		<path fill="#231F20" d="M20.15,14.56c1.2,0.53,2.39,1.13,3.57,1.81c1.14,1.3,2.46,2.65,4,4c-3.12-2.41-6.15-3.94-8.03-4.78
			c-6.8-3.02-9.84-5.01-11.19-6.21c0.26-0.28,0.52-0.55,0.8-0.8C10.44,9.58,13.25,11.5,20.15,14.56z"/>
		<path fill="#231F20" d="M12.41,44.87h5.34c0.62,0,1.13,0.5,1.13,1.12v0.51c-2.46,0.439-4.79,0.58-6.31,0.62h-1.7h-0.04
			c-0.02,0-0.04,0-0.06,0c-0.61-0.04-1.08-0.561-1.06-1.17c0.02-0.61,0.52-1.061,1.12-1.08h0.04
			C10.89,44.87,11.47,44.89,12.41,44.87z"/>
		<path fill="#231F20" d="M20.61,13.53c0.43,0.19,0.86,0.39,1.28,0.59c0.54,0.73,1.15,1.48,1.83,2.25
			c-1.18-0.68-2.37-1.28-3.57-1.81c-6.9-3.06-9.71-4.98-10.85-5.98c0.26-0.27,0.54-0.51,0.82-0.75C11.1,8.64,13.77,10.5,20.61,13.53
			z"/>
		<path fill="#231F20" d="M16.76,3.89c-2.45,0.91-4.7,2.26-6.64,3.94C9.72,7.5,9.61,7.34,9.6,7.34C9.55,7.2,9.47,7.08,9.38,6.98
			c2.09-1.8,4.51-3.25,7.16-4.21C16.58,3.01,16.64,3.39,16.76,3.89z"/>
		<path fill="#231F20" d="M9.6,7.34c0.01,0,0.12,0.16,0.52,0.49C9.84,8.07,9.56,8.31,9.3,8.58C8.71,8.06,8.57,7.79,8.55,7.74
			C8.82,7.48,9.1,7.23,9.38,6.98C9.47,7.08,9.55,7.2,9.6,7.34z"/>
		<path fill="#231F20" d="M7.48,8.11C7.35,7.76,7.41,7.38,7.61,7.09c0-0.02,0.01-0.02,0.02-0.03C7.72,6.97,7.81,6.89,7.9,6.81
			C7.98,6.75,8.06,6.7,8.16,6.67C8.6,6.51,9.08,6.64,9.38,6.98C9.1,7.23,8.82,7.48,8.55,7.74C8.57,7.79,8.71,8.06,9.3,8.58
			C9.02,8.83,8.76,9.1,8.5,9.38C7.82,8.77,7.57,8.36,7.48,8.11z"/>
		<path fill="#231F20" d="M16.51,2.49c0,0.03,0.01,0.13,0.03,0.28c-2.65,0.96-5.07,2.41-7.16,4.21C9.08,6.64,8.6,6.51,8.16,6.67
			C8.06,6.7,7.98,6.75,7.9,6.81c2.63-2.48,5.82-4.37,9.35-5.47C16.78,1.5,16.47,1.97,16.51,2.49z"/>
		<path fill="#231F20" d="M10.13,21.15c0.9,0,1.64-0.74,1.64-1.641c0-0.91-0.74-1.64-1.64-1.64c-0.91,0-1.64,0.73-1.64,1.64
			C8.49,20.41,9.22,21.15,10.13,21.15z M10.13,15.62c2.14,0,3.89,1.74,3.89,3.89c0,2.141-1.75,3.891-3.89,3.891
			c-2.15,0-3.89-1.75-3.89-3.891C6.24,17.36,7.98,15.62,10.13,15.62z"/>
		<path fill="#231F20" d="M7.9,6.81C7.81,6.89,7.72,6.97,7.63,7.06C7.71,6.96,7.79,6.87,7.9,6.81z"/>
		<path fill="#231F20" d="M14.74,35.49c0.48,0.39,0.56,1.1,0.16,1.58c-1.83,2.26-5.47,2.59-7.44,2.59c-0.02,0-0.04,0-0.06,0V37.4
			c1.77,0,4.59-0.311,5.76-1.75C13.55,35.17,14.26,35.1,14.74,35.49z"/>
		<path fill="#231F20" d="M10.83,44.87c-0.6,0.02-1.1,0.47-1.12,1.08c-0.02,0.609,0.45,1.13,1.06,1.17
			c-3.1-0.03-5.62-2.57-5.62-5.69v-2.96c0,0.58,0.43,1.08,1.02,1.141c0.15,0.01,0.6,0.05,1.23,0.05v1.77
			C7.4,43.32,8.94,44.87,10.83,44.87z"/>
		<path fill="#231F20" d="M7.4,37.4v2.26c-0.63,0-1.08-0.04-1.23-0.05C5.58,39.55,5.15,39.05,5.15,38.47v-0.09
			c0.06-0.61,0.61-1.06,1.22-1.02C6.63,37.38,6.99,37.4,7.4,37.4z"/>
		<path fill="#231F20" d="M0.25,24.42c0-6.8,2.82-12.95,7.36-17.33c-0.2,0.29-0.26,0.67-0.13,1.02C7.57,8.36,7.82,8.77,8.5,9.38
			c-3.72,3.92-6,9.22-6,15.04v4.57h3.77c0.62,0,1.13,0.5,1.13,1.12v7.29c-0.41,0-0.77-0.021-1.03-0.04
			c-0.61-0.04-1.16,0.409-1.22,1.02v-7.14H1.38c-0.62,0-1.13-0.511-1.13-1.13V24.42z"/>
	</g>
	<g>
	</g>
</g>
</svg>
