<?xml version="1.0" encoding="utf-8"?>
<!-- Generator: Adobe Illustrator 15.0.0, SVG Export Plug-In  -->
<!DOCTYPE svg PUBLIC "-//W3C//DTD SVG 1.1//EN" "http://www.w3.org/Graphics/SVG/1.1/DTD/svg11.dtd" [
	<!ENTITY ns_flows "http://ns.adobe.com/Flows/1.0/">
]>
<svg version="1.1"
	 xmlns="http://www.w3.org/2000/svg" xmlns:xlink="http://www.w3.org/1999/xlink" xmlns:a="http://ns.adobe.com/AdobeSVGViewerExtensions/3.0/"
	 x="0px" y="0px" width="80px" height="120px" viewBox="-10.894 -7.287 80 120"
	 overflow="visible" enable-background="new -10.894 -7.287 80 120" xml:space="preserve">
<defs>
</defs>
<g id="XMLID_1_">
	<g>
		<path fill="#231F20" d="M51.818,57.082l-4.112,32.736c0-0.096-0.016-0.208-0.048-0.304c-0.032-0.112-0.08-0.225-0.145-0.336
			c0,0,0-0.017-0.016-0.017c-0.256-0.432-0.512-0.848-0.752-1.279l3.872-30.801c0-2.976-0.528-5.839-1.488-8.479
			c0.24-0.4,0.4-0.624,0.416-0.64c0.208-0.288,0.272-0.64,0.208-0.976C51.082,50.09,51.818,53.498,51.818,57.082z"/>
		<path fill="#231F20" d="M50.618,57.082l-3.872,30.801c-0.352-0.608-0.688-1.232-0.976-1.841l3.663-29.119
			c0-2.433-0.399-4.784-1.119-7.008c0.319-0.544,0.592-0.992,0.815-1.312C50.09,51.242,50.618,54.106,50.618,57.082z"/>
		<path fill="#231F20" d="M49.754,46.986c0.064,0.336,0,0.688-0.208,0.976c-0.016,0.016-0.176,0.24-0.416,0.64
			c-0.319-0.832-0.672-1.648-1.056-2.432c0.384-0.176,0.848-0.144,1.216,0.112c0.128,0.08,0.224,0.192,0.288,0.32
			c0.063,0.128,0.112,0.24,0.176,0.368V46.986z"/>
		<path fill="#231F20" d="M49.754,46.97c-0.063-0.128-0.112-0.24-0.176-0.368C49.674,46.714,49.722,46.842,49.754,46.97z"/>
		<path fill="#231F20" d="M49.578,46.602c-0.064-0.128-0.16-0.24-0.288-0.32c-0.368-0.256-0.832-0.288-1.216-0.112
			c-1.456-2.928-3.488-5.536-5.937-7.664c0.353-0.448,0.368-1.072,0.032-1.504C45.354,39.53,47.914,42.826,49.578,46.602z"/>
		<path fill="#D49B3C" d="M49.434,56.922l-3.663,29.119c-7.744-15.632-0.528-30.831,2.544-36.127
			C49.034,52.138,49.434,54.49,49.434,56.922z"/>
		<path fill="#231F20" d="M49.13,48.602c-0.224,0.32-0.496,0.768-0.815,1.312c-0.288-0.96-0.673-1.888-1.089-2.784
			c0.225-0.368,0.368-0.56,0.385-0.576c0.111-0.176,0.271-0.304,0.464-0.384C48.458,46.954,48.811,47.77,49.13,48.602z"/>
		<path fill="#231F20" d="M48.074,46.17c-0.192,0.08-0.353,0.208-0.464,0.384c-0.017,0.016-0.16,0.208-0.385,0.576
			c-1.392-2.944-3.376-5.552-5.823-7.664c0.384-0.528,0.655-0.864,0.735-0.96C44.586,40.634,46.618,43.242,48.074,46.17z"/>
		<path fill="#231F20" d="M47.706,89.818c0,0.08-0.016,0.16-0.016,0.24c-0.017,0.016-0.017,0.032-0.032,0.048
			c0.048-0.192,0.048-0.4,0-0.592C47.69,89.61,47.706,89.722,47.706,89.818z"/>
		<path fill="#231F20" d="M47.658,89.514c0.048,0.191,0.048,0.399,0,0.592c-0.017,0.048-0.032,0.112-0.064,0.16
			c-0.08-0.288-0.239-0.528-0.496-0.704c-0.176-0.112-0.336-0.224-0.512-0.352l0.112-0.896c0.208,0.224,0.416,0.432,0.64,0.656
			c0.064,0.063,0.112,0.128,0.16,0.191c0.016,0,0.016,0.017,0.016,0.017C47.578,89.29,47.626,89.402,47.658,89.514z"/>
		<path fill="#231F20" d="M47.658,90.106c0.016-0.016,0.016-0.032,0.032-0.048c-0.049,3.152-2.752,5.824-6.064,5.824H23.77
			c-3.344,0-6.064-2.721-6.064-6.064V80.97c0.752-0.08,1.568-0.192,2.4-0.336v9.184c0,2.016,1.648,3.664,3.664,3.664h17.856
			c1.584,0,2.928-1.008,3.44-2.4c0.239,0.16,0.464,0.32,0.704,0.48c0.208,0.128,0.432,0.192,0.655,0.192
			c0.4,0,0.769-0.192,1.008-0.528c0.192-0.288,0.24-0.624,0.16-0.928c0.017,0,0-0.017,0-0.017
			C47.626,90.218,47.658,90.17,47.658,90.106z"/>
		<path fill="#231F20" d="M47.594,90.266c0.032-0.048,0.048-0.112,0.064-0.16c0,0.064-0.032,0.112-0.064,0.176V90.266z"/>
		<path fill="#231F20" d="M47.594,90.298c0.08,0.304,0.032,0.64-0.16,0.928c-0.239,0.336-0.607,0.528-1.008,0.528
			c-0.224,0-0.447-0.064-0.655-0.192c-0.24-0.16-0.465-0.32-0.704-0.48c0.096-0.256,0.159-0.512,0.191-0.8
			c0.112,0.097,0.225,0.225,0.353,0.336c0,0.017,0.016,0.032,0.048,0.048c0.032,0.032,0.063,0.064,0.096,0.08
			c0.048,0.064,0.112,0.097,0.176,0.128c0.017,0,0.017,0.017,0.032,0.017c0.064,0.032,0.145,0.063,0.208,0.08
			c0.017,0,0.032,0.016,0.048,0.016c0.048,0.017,0.112,0.017,0.16,0.017c0.048,0.016,0.08,0.016,0.128,0.016
			c0.112,0,0.225-0.016,0.32-0.048c0.112-0.032,0.208-0.064,0.304-0.128c0.08-0.048,0.145-0.112,0.208-0.177h0.017
			c0.016-0.016,0.016-0.016,0.016-0.031c0.016-0.017,0.032-0.032,0.048-0.064c0.064-0.063,0.112-0.128,0.128-0.191
			C47.578,90.346,47.594,90.33,47.594,90.298z"/>
		<path fill="#231F20" d="M47.594,90.282c0,0,0.017,0.017,0,0.017c0,0.031-0.016,0.048-0.048,0.08
			C47.562,90.346,47.578,90.314,47.594,90.282z"/>
		<path fill="#231F20" d="M47.594,90.266v0.016c-0.016,0.032-0.031,0.064-0.048,0.097c-0.032,0.063-0.08,0.144-0.128,0.191
			c-0.016,0.032-0.032,0.048-0.048,0.064c0,0.016-0.016,0.016-0.032,0.031c-0.063,0.064-0.128,0.129-0.208,0.177
			c-0.096,0.048-0.208,0.096-0.304,0.128c-0.112,0.032-0.224,0.048-0.32,0.048c-0.048,0-0.08,0-0.128-0.016
			c-0.048,0-0.096,0-0.16-0.017c-0.016,0-0.031-0.016-0.048-0.016c-0.063-0.017-0.144-0.048-0.208-0.08
			c-0.016,0-0.016-0.017-0.032-0.017c-0.063-0.031-0.128-0.063-0.176-0.128c-0.032-0.016-0.063-0.048-0.096-0.08
			c-0.032-0.016-0.048-0.031-0.048-0.048c-0.048-0.048-0.097-0.096-0.128-0.16c-0.064-0.111-0.145-0.224-0.208-0.336v-0.016
			c0.016-0.096,0.016-0.192,0.016-0.288V89.77c0.384,0.271,0.768,0.528,1.152,0.784c0.031-0.24,0.063-0.48,0.063-0.736l0.08-0.607
			c0.176,0.128,0.336,0.239,0.512,0.352C47.354,89.738,47.514,89.978,47.594,90.266z"/>
		<path fill="#231F20" d="M47.226,47.13c0.416,0.896,0.801,1.824,1.089,2.784c-3.072,5.296-10.288,20.496-2.544,36.127l-0.145,1.152
			c-1.456-1.552-2.752-3.12-3.888-4.672c-0.017-0.016-0.032-0.016-0.017-0.032C36.106,65.594,45.21,50.234,47.226,47.13z"/>
		<path fill="#231F20" d="M47.418,90.57c0.048-0.048,0.096-0.128,0.128-0.191C47.53,90.442,47.482,90.506,47.418,90.57z"/>
		<path fill="#231F20" d="M47.498,89.162c-0.048-0.063-0.096-0.128-0.16-0.191c-0.224-0.225-0.432-0.433-0.64-0.656l0.048-0.432
			C46.986,88.314,47.242,88.73,47.498,89.162z"/>
		<path fill="#231F20" d="M47.37,90.634c0,0.016,0,0.016-0.016,0.031h-0.017C47.354,90.65,47.37,90.65,47.37,90.634z"/>
		<path fill="#231F20" d="M46.826,90.97c0.096-0.032,0.208-0.08,0.304-0.128C47.034,90.906,46.938,90.938,46.826,90.97z"/>
		<path fill="#231F20" d="M46.506,91.018c0.097,0,0.208-0.016,0.32-0.048C46.73,91.002,46.618,91.018,46.506,91.018z"/>
		<path fill="#231F20" d="M46.746,87.882l-0.048,0.432c-0.384-0.368-0.736-0.736-1.072-1.12l0.145-1.152
			C46.058,86.65,46.395,87.274,46.746,87.882z"/>
		<path fill="#231F20" d="M46.698,88.314l-0.112,0.896c-0.384-0.24-0.752-0.513-1.12-0.769l0.16-1.248
			C45.962,87.578,46.314,87.946,46.698,88.314z"/>
		<path fill="#231F20" d="M46.586,89.21l-0.08,0.607c0,0.256-0.032,0.496-0.063,0.736c-0.385-0.256-0.769-0.513-1.152-0.784
			l0.176-1.328C45.834,88.698,46.202,88.97,46.586,89.21z"/>
		<path fill="#231F20" d="M46.218,90.986c0.064,0.017,0.112,0.017,0.16,0.017C46.33,91.002,46.266,91.002,46.218,90.986z"/>
		<path fill="#231F20" d="M45.962,90.89c0.064,0.032,0.145,0.063,0.208,0.08C46.106,90.954,46.026,90.922,45.962,90.89z"/>
		<path fill="#231F20" d="M45.754,90.746c0.048,0.064,0.112,0.097,0.176,0.128C45.866,90.842,45.802,90.81,45.754,90.746z"/>
		<path fill="#231F20" d="M45.658,90.666c0.032,0.032,0.063,0.064,0.096,0.08C45.722,90.73,45.69,90.698,45.658,90.666z"/>
		<path fill="#231F20" d="M45.626,87.194l-0.16,1.248c-0.655-0.464-1.279-0.928-1.888-1.408c-0.752-1.504-1.36-3.023-1.84-4.512
			C42.874,84.074,44.17,85.642,45.626,87.194z"/>
		<path fill="#231F20" d="M45.482,90.458c0.031,0.064,0.08,0.112,0.128,0.16c-0.128-0.111-0.24-0.239-0.353-0.336v-0.016
			c0.017-0.048,0.017-0.096,0.017-0.145C45.338,90.234,45.418,90.346,45.482,90.458z"/>
		<path fill="#231F20" d="M45.466,88.442L45.29,89.77c-0.128-0.08-0.24-0.16-0.368-0.256c-0.016-0.017-0.016-0.017-0.016-0.017
			c-0.496-0.815-0.928-1.647-1.328-2.464C44.187,87.514,44.811,87.978,45.466,88.442z"/>
		<path fill="#231F20" d="M45.29,89.77v0.048c0,0.096,0,0.192-0.016,0.288c-0.128-0.192-0.257-0.4-0.353-0.592
			C45.05,89.61,45.162,89.69,45.29,89.77z"/>
		<path fill="#231F20" d="M45.274,90.106v0.016c0,0.049,0,0.097-0.017,0.145c-0.544-0.544-1.071-1.104-1.584-1.648
			c0.4,0.288,0.816,0.593,1.232,0.88c0,0,0,0,0.016,0.017C45.018,89.706,45.146,89.914,45.274,90.106z"/>
		<path fill="#231F20" d="M45.258,90.266v0.016c-0.032,0.288-0.096,0.544-0.191,0.8C28.698,79.962,23.962,64.986,23.162,53.274
			c0.112,0.064,0.24,0.128,0.368,0.176c0.016,0.016,0.032,0.032,0.032,0.032c0.096,0.064,0.192,0.112,0.288,0.128
			c0.016,0.016,0.032,0.016,0.048,0.016c0.016,0.016,0.048,0.016,0.064,0.016c0.08,0.016,0.176,0.032,0.256,0.032
			c0.032,0,0.048,0,0.08,0c0.832,10.816,5.184,24.368,19.376,34.944C44.187,89.162,44.714,89.722,45.258,90.266z"/>
		<path fill="#231F20" d="M44.906,89.498c-0.416-0.287-0.832-0.592-1.232-0.88c-1.504-1.632-2.848-3.279-4.016-4.912
			c1.2,1.137,2.512,2.257,3.92,3.328C43.979,87.85,44.41,88.682,44.906,89.498z"/>
		<path fill="#FFFFFF" d="M45.066,91.082c-0.513,1.393-1.856,2.4-3.44,2.4H23.77c-2.016,0-3.664-1.648-3.664-3.664v-9.184
			c2-0.368,4.08-0.896,5.92-1.729c0.592-0.271,0.864-0.992,0.592-1.584c-0.256-0.607-0.976-0.88-1.584-0.607
			c-1.952,0.863-4.24,1.392-6.368,1.712c-3.776,0.544-7.056,0.447-7.104,0.447c-0.016,0-0.016,0-0.032,0
			c-2.016,0-3.664-1.632-3.664-3.663v-1.889c0.016,0,0.048,0,0.064,0c2.112,0,5.984-0.352,7.936-2.752
			c0.432-0.512,0.352-1.264-0.16-1.696c-0.512-0.416-1.28-0.336-1.696,0.177c-1.248,1.536-4.256,1.872-6.144,1.872v-7.776
			c0-0.672-0.544-1.2-1.2-1.2H2.65v-4.864c0-6.432,2.608-12.255,6.8-16.479c1.408,2.784,5.12,8.384,13.712,12.672
			C23.962,64.986,28.698,79.962,45.066,91.082z M10.778,55.978c2.288,0,4.144-1.856,4.144-4.144c0-0.672-0.528-1.2-1.2-1.2
			c-0.656,0-1.2,0.528-1.2,1.2c0,0.96-0.784,1.744-1.744,1.744c-0.96,0-1.744-0.784-1.744-1.744c0-0.672-0.544-1.2-1.2-1.2
			c-0.672,0-1.2,0.528-1.2,1.2C6.634,54.122,8.49,55.978,10.778,55.978z"/>
		<path fill="#D49B3C" d="M41.402,39.466c2.447,2.112,4.432,4.72,5.823,7.664c-2.016,3.104-11.119,18.464-5.504,35.36
			C26.906,62.266,38.25,43.85,41.402,39.466z"/>
		<path fill="#231F20" d="M42.17,37.002c0.336,0.432,0.32,1.056-0.032,1.504c-0.607-0.528-1.231-1.024-1.888-1.488
			c0.016-0.032,0.032-0.048,0.032-0.048c0.384-0.448,1.008-0.56,1.504-0.288l0.016,0.016c0.112,0.08,0.208,0.16,0.32,0.256
			C42.138,36.97,42.154,36.986,42.17,37.002z"/>
		<path fill="#231F20" d="M42.122,36.954c-0.112-0.096-0.208-0.176-0.32-0.256c0.064,0.032,0.128,0.064,0.177,0.112
			C42.026,36.858,42.074,36.906,42.122,36.954z"/>
		<path fill="#231F20" d="M41.738,82.522c0.479,1.488,1.088,3.008,1.84,4.512c-1.408-1.071-2.72-2.191-3.92-3.328
			c0,0-0.017,0-0.017-0.016c-15.328-21.248-3.376-41.056-0.111-45.696c0.656,0.448,1.28,0.944,1.872,1.472
			c-3.152,4.384-14.496,22.8,0.319,43.024C41.706,82.506,41.722,82.506,41.738,82.522z"/>
		<path fill="#231F20" d="M42.138,38.506c-0.08,0.096-0.352,0.432-0.735,0.96c-0.592-0.528-1.216-1.024-1.872-1.472
			c0.368-0.528,0.624-0.864,0.72-0.976C40.906,37.482,41.53,37.978,42.138,38.506z"/>
		<path fill="#231F20" d="M41.786,36.682c-0.496-0.272-1.12-0.16-1.504,0.288c0,0-0.017,0.016-0.032,0.048
			c-0.688-0.496-1.408-0.944-2.144-1.36c0.031-0.08,0.063-0.176,0.08-0.256c0-0.08,0.016-0.16,0.016-0.24v-0.464v-0.352
			C39.466,35.034,40.666,35.818,41.786,36.682z"/>
		<path fill="#231F20" d="M39.658,83.706c1.168,1.633,2.512,3.28,4.016,4.912C29.482,78.042,25.13,64.49,24.298,53.674
			c0.032,0,0.08-0.016,0.112-0.016c0.032,0,0.08-0.016,0.112-0.032c0.032,0,0.048,0,0.08-0.016c0.048-0.016,0.08-0.032,0.128-0.064
			c0.048-0.016,0.112-0.048,0.16-0.08c0.064-0.048,0.128-0.096,0.176-0.16h0.016c0.032-0.032,0.08-0.08,0.096-0.128
			c0.032-0.032,0.064-0.064,0.064-0.112c0.032-0.016,0.048-0.048,0.064-0.08c0-0.016,0.016-0.032,0.016-0.048
			c0,0,0.016-0.016,0.016-0.032c0-0.016,0.016-0.032,0.016-0.048c0.576,9.344,3.824,20.96,14.288,30.832
			C39.642,83.706,39.658,83.706,39.658,83.706z"/>
		<path fill="#231F20" d="M40.25,37.018c-0.096,0.112-0.352,0.448-0.72,0.976c-0.849-0.608-1.729-1.152-2.656-1.632
			c0.048,0,0.08,0,0.128,0c0.08,0,0.176-0.016,0.256-0.032c0.24-0.048,0.433-0.16,0.592-0.32c0.112-0.096,0.192-0.224,0.257-0.352
			C38.842,36.074,39.562,36.522,40.25,37.018z"/>
		<path fill="#231F20" d="M38.202,20.058l0.016,10.64c0,0.032,0,0.064-0.016,0.096c0.048-2.128-0.368-3.952-1.185-5.392
			l-0.016-4.176c0.32,0,0.624-0.128,0.848-0.352C38.09,20.65,38.202,20.362,38.202,20.058z"/>
		<path fill="#231F20" d="M38.202,30.794c0,0.016,0,0.016,0,0.032c-0.064,0.592-0.576,1.072-1.185,1.072h-0.016v-1.104
			c0-0.032,0-0.064,0-0.096h0.016v-5.296C37.834,26.842,38.25,28.666,38.202,30.794z"/>
		<path fill="#231F20" d="M38.202,34.698v0.464c0-0.08,0-0.16-0.016-0.224c0,0,0,0,0-0.016
			C38.202,34.858,38.202,34.778,38.202,34.698z"/>
		<path fill="#231F20" d="M38.202,34.346v0.352c0-0.128-0.016-0.272-0.064-0.384C38.154,34.33,38.187,34.346,38.202,34.346z"/>
		<path fill="#231F20" d="M38.202,30.826v3.52c-0.016,0-0.048-0.016-0.064-0.032c-0.159-0.48-0.607-0.816-1.136-0.816v-1.6h0.016
			C37.626,31.898,38.138,31.418,38.202,30.826z"/>
		<path fill="#231F20" d="M38.202,19.722c0,0.112,0,0.224,0,0.336c0,0.304-0.112,0.592-0.353,0.816
			c-0.224,0.224-0.527,0.352-0.848,0.352v-1.2c0-0.176,0-0.368,0-0.576v-4.816C37.802,16.01,38.202,17.738,38.202,19.722z"/>
		<path fill="#231F20" d="M38.202,12.986v6.736c0-1.984-0.4-3.712-1.2-5.088v-0.448C37.674,14.186,38.202,13.642,38.202,12.986z"/>
		<path fill="#231F20" d="M38.202,12.522v0.464c0-0.08,0-0.16-0.016-0.224c0,0,0,0,0-0.016
			C38.202,12.682,38.202,12.602,38.202,12.522z"/>
		<path fill="#231F20" d="M38.202,9.274v3.248c0-0.656-0.528-1.2-1.2-1.2V9.258c0.08-3.184-0.912-7.808-7.184-7.808H25.53h-1.936
			c-0.048-0.16-0.064-0.272-0.08-0.304C23.37,0.618,22.89,0.25,22.362,0.25h7.456c2.64,0,4.705,0.752,6.144,2.224
			C37.498,4.026,38.266,6.394,38.202,9.274z"/>
		<path fill="#231F20" d="M38.202,12.522c0,0.08,0,0.16-0.016,0.224c-0.112-0.56-0.593-0.96-1.185-0.96v-0.464
			C37.674,11.322,38.202,11.866,38.202,12.522z"/>
		<path fill="#231F20" d="M38.187,12.762c0.016,0.064,0.016,0.144,0.016,0.224c0,0.656-0.528,1.2-1.2,1.2v-0.464
			C37.594,13.722,38.074,13.322,38.187,12.762z"/>
		<path fill="#231F20" d="M38.202,34.698c0,0.08,0,0.16-0.016,0.224c-0.112-0.56-0.593-0.96-1.185-0.96v-0.208
			c0.384,0.176,0.769,0.368,1.136,0.56C38.187,34.426,38.202,34.57,38.202,34.698z"/>
		<path fill="#231F20" d="M38.187,34.938c0.016,0.064,0.016,0.144,0.016,0.224s-0.016,0.16-0.016,0.24
			c-0.032,0.08-0.049,0.16-0.097,0.24c-0.08-0.032-0.144-0.08-0.224-0.128C38.026,35.37,38.138,35.162,38.187,34.938z"/>
		<path fill="#231F20" d="M38.187,34.922c0,0.016,0,0.016,0,0.016c-0.049,0.224-0.16,0.432-0.32,0.576
			c-0.288-0.144-0.576-0.304-0.864-0.432v-1.12C37.594,33.962,38.074,34.362,38.187,34.922z"/>
		<path fill="#231F20" d="M38.187,12.746c0,0.016,0,0.016,0,0.016c-0.112,0.56-0.593,0.96-1.185,0.96v-1.936
			C37.594,11.786,38.074,12.186,38.187,12.746z"/>
		<path fill="#231F20" d="M38.187,35.402c-0.017,0.08-0.049,0.176-0.08,0.256l-0.017-0.016
			C38.138,35.562,38.154,35.482,38.187,35.402z"/>
		<path fill="#231F20" d="M38.09,35.642l0.017,0.016c-0.064,0.128-0.145,0.256-0.257,0.352
			C37.962,35.898,38.042,35.786,38.09,35.642z"/>
		<path fill="#231F20" d="M37.866,35.514c0.08,0.048,0.144,0.096,0.224,0.128c-0.048,0.144-0.128,0.256-0.24,0.368
			c-0.159,0.16-0.352,0.272-0.592,0.32c-0.08,0.016-0.16,0.032-0.256,0.032c-0.048,0-0.08,0-0.128,0
			c-0.336-0.176-0.672-0.336-1.008-0.496c0.368,0.016,0.752,0.032,1.136,0.032C37.354,35.898,37.658,35.754,37.866,35.514z"/>
		<path fill="#231F20" d="M37.002,35.082c0.288,0.128,0.576,0.288,0.864,0.432c-0.208,0.24-0.512,0.384-0.864,0.384
			c-0.384,0-0.768-0.016-1.136-0.032H35.85c-0.56-0.272-1.136-0.512-1.712-0.72l2.864,0.016V35.082z"/>
		<path fill="#231F20" d="M37.002,33.498c0.528,0,0.977,0.336,1.136,0.816c-0.367-0.192-0.752-0.384-1.136-0.56V33.498z"/>
		<path fill="#231F20" d="M37.002,36.362c0.096,0,0.176-0.016,0.256-0.032C37.178,36.346,37.082,36.362,37.002,36.362z"/>
		<path fill="#D49B3C" d="M36.874,36.362c0.928,0.48,1.808,1.024,2.656,1.632c-3.265,4.64-15.216,24.448,0.111,45.696
			C29.178,73.818,25.93,62.202,25.354,52.858c0,0,0,0,0-0.016c0,0,0,0,0.016-0.016c0-0.016,0-0.032,0-0.048
			c0.016-0.016,0.016-0.032,0.016-0.048c0.016-0.08,0.032-0.176,0.032-0.256c0-0.016,0-0.016,0-0.032
			c0-0.096-0.016-0.176-0.032-0.272l-0.016-0.016v-0.016c0.016-0.016,0-0.032,0-0.048c-0.016-0.064-0.048-0.128-0.064-0.192
			c0-0.016,0-0.032,0-0.032c-0.32-7.504,1.056-13.424,1.648-15.552l9.568,0.048C36.634,36.362,36.746,36.362,36.874,36.362z"/>
		<path fill="#231F20" d="M37.018,25.402v5.296h-0.016c0.032-1.552-0.208-3.44-1.184-4.944l-0.017-1.888
			c0.064,0.048,0.112,0.096,0.16,0.144C36.362,24.426,36.714,24.89,37.018,25.402z"/>
		<path fill="#231F20" d="M37.002,21.226l0.016,4.176c-0.304-0.512-0.655-0.976-1.056-1.392c-0.048-0.048-0.096-0.096-0.16-0.144
			v-2.64H37.002z"/>
		<rect x="35.802" y="20.026" fill="#231F20" width="1.2" height="1.2"/>
		<path fill="#231F20" d="M37.002,35.082v0.08l-2.864-0.016c-1.567-0.592-3.231-1.008-4.944-1.232l5.168,0.032
			C35.274,34.266,36.154,34.65,37.002,35.082z"/>
		<path fill="#231F20" d="M37.002,33.962v1.12c-0.848-0.432-1.728-0.816-2.64-1.136h1.439
			C36.187,33.962,36.586,33.962,37.002,33.962z"/>
		<path fill="#231F20" d="M37.002,33.754v0.208c-0.416,0-0.815,0-1.2-0.016V33.45c0.192,0.016,0.4,0.032,0.608,0.032
			C36.618,33.562,36.811,33.658,37.002,33.754z"/>
		<path fill="#231F20" d="M37.002,33.498v0.256c-0.191-0.096-0.384-0.192-0.592-0.272C36.603,33.498,36.794,33.498,37.002,33.498z"
			/>
		<path fill="#231F20" d="M37.002,31.898v1.6c-0.208,0-0.399,0-0.592-0.016c-0.192-0.096-0.4-0.176-0.608-0.256v-1.328H37.002z"/>
		<path fill="#231F20" d="M37.002,30.794v1.104h-1.2v-1.104c0-0.032,0-0.064,0-0.096h1.2C37.002,30.73,37.002,30.762,37.002,30.794z
			"/>
		<path fill="#231F20" d="M35.818,25.754c0.976,1.504,1.216,3.392,1.184,4.944h-1.2c0.017-0.368,0-0.784-0.048-1.2h0.064V25.754z"/>
		<path fill="#231F20" d="M37.002,19.45c0,0.208,0,0.4,0,0.576h-1.2c0-0.368,0-0.784-0.048-1.2h0.048V14.97
			C36.698,16.33,36.97,17.994,37.002,19.45z"/>
		<path fill="#231F20" d="M37.002,14.634v4.816c-0.032-1.456-0.304-3.12-1.2-4.48v-0.592c0.017-0.08,0.032-0.144,0.048-0.208
			c0.288,0.016,0.561,0.016,0.864,0.016C36.826,14.33,36.922,14.474,37.002,14.634z"/>
		<path fill="#231F20" d="M37.002,14.186v0.448c-0.08-0.16-0.176-0.304-0.288-0.448C36.811,14.186,36.906,14.186,37.002,14.186z"/>
		<path fill="#231F20" d="M37.002,13.722v0.464c-0.096,0-0.191,0-0.288,0c-0.096-0.176-0.224-0.336-0.352-0.48
			C36.57,13.722,36.778,13.722,37.002,13.722z"/>
		<path fill="#231F20" d="M37.002,11.786v1.936c-0.224,0-0.432,0-0.64-0.016c-0.112-0.16-0.256-0.32-0.4-0.464
			c-0.048-0.048-0.096-0.096-0.16-0.144V11.77C36.187,11.786,36.586,11.786,37.002,11.786z"/>
		<path fill="#231F20" d="M37.002,11.322v0.464c-0.416,0-0.815,0-1.2-0.016v-0.496C36.187,11.306,36.586,11.322,37.002,11.322z"/>
		<path fill="#231F20" d="M37.002,9.258v2.064c-0.416,0-0.815-0.016-1.2-0.048V9.258c0.048-1.584-0.208-3.728-1.552-5.104
			c-0.976-0.992-2.464-1.504-4.432-1.504h-5.76c-0.224-0.512-0.384-0.944-0.464-1.2h1.936h4.288
			C36.09,1.45,37.082,6.074,37.002,9.258z"/>
		<path fill="#231F20" d="M36.874,36.362c-0.128,0-0.24,0-0.352,0c-3.712-0.032-6.769-0.416-9.296-1.056
			c0.016-0.064,0.016-0.128,0.016-0.192l4.72,0.016c1.168,0.384,2.464,0.64,3.888,0.736h0.017
			C36.202,36.026,36.538,36.186,36.874,36.362z"/>
		<path fill="#231F20" d="M36.714,14.186c-0.304,0-0.576,0-0.864-0.016c0.032-0.224,0.049-0.352,0.049-0.4c0-0.032,0-0.048,0-0.08
			c0.144,0.016,0.304,0.016,0.464,0.016C36.49,13.85,36.618,14.01,36.714,14.186z"/>
		<path fill="#231F20" d="M36.522,36.362l-9.568-0.048c0.112-0.432,0.192-0.704,0.224-0.8c0.032-0.08,0.048-0.144,0.048-0.208
			C29.754,35.946,32.811,36.33,36.522,36.362z"/>
		<path fill="#231F20" d="M35.962,13.242c0.145,0.144,0.288,0.304,0.4,0.464c-0.16,0-0.32,0-0.464-0.016
			c0-0.16-0.032-0.32-0.097-0.464v-0.128C35.866,13.146,35.914,13.194,35.962,13.242z"/>
		<path fill="#231F20" d="M35.802,33.226c0.208,0.08,0.416,0.16,0.608,0.256c-0.208,0-0.416-0.016-0.608-0.032V33.226z"/>
		<path fill="#231F20" d="M35.898,13.69c0,0.032,0,0.048,0,0.08c0,0.048-0.017,0.176-0.049,0.4c-0.016,0-0.031,0-0.048,0v-0.48
			C35.834,13.69,35.866,13.69,35.898,13.69z"/>
		<path fill="#231F20" d="M35.85,14.17c-0.016,0.064-0.031,0.128-0.048,0.208V14.17C35.818,14.17,35.834,14.17,35.85,14.17z"/>
		<path fill="#231F20" d="M35.898,13.69c-0.032,0-0.064,0-0.097,0v-0.464C35.866,13.37,35.898,13.53,35.898,13.69z"/>
		<path fill="#231F20" d="M35.818,25.754v3.744h-0.064c-0.112-1.328-0.496-2.784-1.504-3.808c-0.976-0.992-2.464-1.504-4.432-1.504
			H24.01c-0.032-0.08-0.064-0.16-0.096-0.24c1.184-0.272,2.24-0.592,3.184-0.96h2.72C32.986,22.986,34.811,24.17,35.818,25.754z"/>
		<path fill="#231F20" d="M35.802,23.866l0.017,1.888c-1.008-1.584-2.832-2.768-6-2.768h-2.72c0.992-0.368,1.872-0.768,2.64-1.2
			h0.08C32.362,21.786,34.378,22.49,35.802,23.866z"/>
		<path fill="#D49B3C" d="M35.802,21.226v2.64c-1.424-1.376-3.439-2.08-5.984-2.08h-0.08c0.352-0.192,0.672-0.384,0.976-0.592
			L35.802,21.226z"/>
		<path fill="#D49B3C" d="M35.802,20.026v1.2l-5.088-0.032c0.608-0.384,1.136-0.784,1.601-1.184L35.802,20.026z"/>
		<path fill="#231F20" d="M35.802,33.45v0.496c-0.56-0.016-1.088-0.032-1.6-0.064c-2.224-0.784-4.608-1.264-7.072-1.36
			c-0.224-0.192-0.448-0.384-0.656-0.576l4.064-0.016C31.994,32.73,33.722,33.29,35.802,33.45z"/>
		<path fill="#D49B3C" d="M35.802,33.226v0.224c-2.08-0.16-3.808-0.72-5.264-1.52h1.136C33.098,32.234,34.474,32.666,35.802,33.226z
			"/>
		<path fill="#D49B3C" d="M35.802,31.898v1.328c-1.328-0.56-2.704-0.992-4.128-1.296L35.802,31.898z"/>
		<path fill="#D49B3C" d="M35.802,30.794v1.104l-4.128,0.032c-0.576-0.144-1.151-0.256-1.728-0.336c-0.016,0-0.016,0-0.016,0
			c-0.432-0.272-0.832-0.56-1.216-0.848l7.088-0.048C35.802,30.73,35.802,30.762,35.802,30.794z"/>
		<path fill="#D49B3C" d="M35.754,29.498c0.048,0.416,0.064,0.832,0.048,1.2l-7.088,0.048c-0.48-0.384-0.928-0.8-1.312-1.216
			L35.754,29.498z"/>
		<path fill="#D49B3C" d="M35.754,18.826c0.048,0.416,0.048,0.832,0.048,1.2l-3.487-0.016c0.447-0.4,0.848-0.8,1.184-1.2
			L35.754,18.826z"/>
		<path fill="#231F20" d="M35.802,14.97v3.856h-0.048c-0.063-0.832-0.224-1.712-0.607-2.512c0.287-0.576,0.447-1.088,0.56-1.504
			C35.738,14.858,35.786,14.922,35.802,14.97z"/>
		<path fill="#231F20" d="M35.802,14.378v0.592c-0.016-0.048-0.063-0.112-0.096-0.16C35.754,14.65,35.786,14.506,35.802,14.378z"/>
		<path fill="#231F20" d="M35.802,14.17v0.208c-0.016,0.128-0.048,0.272-0.096,0.432c-0.16-0.224-0.336-0.448-0.528-0.656
			C35.386,14.17,35.594,14.17,35.802,14.17z"/>
		<path fill="#231F20" d="M35.802,13.69v0.48c-0.208,0-0.416,0-0.624-0.016c-0.208-0.224-0.432-0.432-0.688-0.608
			C34.922,13.61,35.354,13.658,35.802,13.69z"/>
		<path fill="#231F20" d="M35.802,13.226v0.464c-0.447-0.032-0.88-0.08-1.312-0.144c-0.24-0.192-0.512-0.352-0.8-0.496
			c0.224-0.352,0.624-0.56,1.071-0.544c0.24,0.016,0.448,0.096,0.624,0.224c0.064,0.048,0.128,0.096,0.177,0.16
			C35.658,12.986,35.738,13.098,35.802,13.226z"/>
		<path fill="#231F20" d="M35.802,13.098v0.128c-0.063-0.128-0.144-0.24-0.239-0.336C35.642,12.938,35.722,13.018,35.802,13.098z"/>
		<path fill="#231F20" d="M35.802,11.77v1.328c-0.08-0.08-0.16-0.16-0.239-0.208c-0.049-0.064-0.112-0.112-0.177-0.16
			c-0.527-0.448-1.136-0.8-1.823-1.056C34.266,11.722,35.018,11.754,35.802,11.77z"/>
		<path fill="#231F20" d="M35.802,11.274v0.496c-0.784-0.016-1.536-0.048-2.239-0.096c-1.072-0.432-2.337-0.656-3.745-0.656h-1.12
			h-0.192c-0.336-0.064-0.656-0.128-0.96-0.208c-3.68-2.672-5.424-6.448-6.048-8.16h2.56C25.194,5.354,28.394,10.746,35.802,11.274z
			"/>
		<path fill="#D49B3C" d="M35.802,9.258v2.016c-7.408-0.528-10.608-5.92-11.744-8.624h5.76c1.968,0,3.457,0.512,4.432,1.504
			C35.594,5.53,35.85,7.674,35.802,9.258z"/>
		<path fill="#231F20" d="M35.802,33.946h-1.439c-0.048-0.016-0.097-0.048-0.16-0.064C34.714,33.914,35.242,33.93,35.802,33.946z"/>
		<path fill="#D49B3C" d="M35.754,18.826l-2.256-0.016c0.784-0.88,1.312-1.744,1.648-2.496C35.53,17.114,35.69,17.994,35.754,18.826
			z"/>
		<path fill="#D49B3C" d="M35.754,29.498l-8.352,0.032c-1.808-1.856-2.848-3.968-3.392-5.344h5.808c1.968,0,3.457,0.512,4.432,1.504
			C35.258,26.714,35.642,28.17,35.754,29.498z"/>
		<path fill="#231F20" d="M35.178,14.154c0.192,0.208,0.368,0.432,0.528,0.656c-0.112,0.416-0.272,0.928-0.56,1.504
			c-0.208-0.512-0.496-0.992-0.896-1.392c-0.256-0.256-0.544-0.48-0.88-0.672v-0.016c0.016-0.064,0.032-0.128,0.048-0.176
			C33.979,14.106,34.57,14.138,35.178,14.154z"/>
		<path fill="#231F20" d="M34.138,35.146c0.576,0.208,1.152,0.448,1.712,0.72c-1.424-0.096-2.72-0.352-3.888-0.736L34.138,35.146z"
			/>
		<path fill="#231F20" d="M35.178,14.154c-0.607-0.016-1.199-0.048-1.76-0.096c0.064-0.256,0.08-0.4,0.08-0.416
			c0-0.08,0.016-0.16,0.032-0.24c0.304,0.048,0.624,0.112,0.96,0.144C34.746,13.722,34.97,13.93,35.178,14.154z"/>
		<path fill="#231F20" d="M35.386,12.73c-0.176-0.128-0.384-0.208-0.624-0.224c-0.447-0.016-0.848,0.192-1.071,0.544
			c-0.96-0.512-2.177-0.816-3.744-0.832c0,0-0.016,0-0.032,0v-0.016c0-0.432-0.24-0.832-0.624-1.024
			c1.28,0.224,2.688,0.4,4.272,0.496C34.25,11.93,34.858,12.282,35.386,12.73z"/>
		<path fill="#231F20" d="M34.25,14.922c0.4,0.4,0.688,0.88,0.896,1.392c-0.336,0.752-0.864,1.616-1.648,2.496l-3.552-0.016
			c2.384-1.728,3.168-3.6,3.424-4.544C33.706,14.442,33.994,14.666,34.25,14.922z"/>
		<path fill="#231F20" d="M34.202,33.882c0.063,0.016,0.112,0.048,0.16,0.064l-5.168-0.032h-0.016
			c-0.512-0.288-0.992-0.608-1.44-0.944C29.546,33.418,31.69,33.754,34.202,33.882z"/>
		<path fill="#231F20" d="M33.69,13.05c0.288,0.144,0.56,0.304,0.8,0.496c-0.336-0.032-0.656-0.096-0.96-0.144
			C33.562,13.274,33.626,13.162,33.69,13.05z"/>
		<path fill="#231F20" d="M34.138,35.146l-2.176-0.016c-1.008-0.32-1.936-0.72-2.768-1.216
			C30.906,34.138,32.57,34.554,34.138,35.146z"/>
		<path fill="#231F20" d="M33.69,13.05c-0.064,0.112-0.128,0.224-0.16,0.352c-1.328-0.272-2.513-0.672-3.584-1.184
			C31.514,12.234,32.73,12.538,33.69,13.05z"/>
		<path fill="#231F20" d="M33.53,13.402c-0.017,0.08-0.032,0.16-0.032,0.24c0,0.016-0.016,0.16-0.08,0.416
			c-0.16,0-0.304,0-0.448-0.032c-0.848-0.4-1.903-0.608-3.152-0.608h-0.24c0.208-0.544,0.288-0.88,0.288-0.896
			c0.032-0.112,0.048-0.192,0.048-0.304c0.016,0,0.032,0,0.032,0C31.018,12.73,32.202,13.13,33.53,13.402z"/>
		<path fill="#231F20" d="M29.946,18.794l3.552,0.016c-0.336,0.4-0.736,0.8-1.184,1.2l-4.336-0.032
			C28.73,19.61,29.386,19.21,29.946,18.794z"/>
		<path fill="#231F20" d="M33.418,14.058c-0.016,0.048-0.032,0.112-0.048,0.176c-0.128-0.064-0.256-0.144-0.4-0.208
			C33.114,14.058,33.258,14.058,33.418,14.058z"/>
		<path fill="#D49B3C" d="M33.37,14.234v0.016c-0.256,0.944-1.04,2.816-3.424,4.544l-3.456-0.016
			c1.632-1.968,2.544-3.968,3.008-5.152c1.072,0.192,2.224,0.32,3.472,0.4C33.114,14.09,33.242,14.17,33.37,14.234z"/>
		<path fill="#231F20" d="M27.978,19.978l4.336,0.032c-0.465,0.4-0.992,0.8-1.601,1.184l-5.696-0.032
			C26.154,20.81,27.13,20.41,27.978,19.978z"/>
		<path fill="#231F20" d="M31.962,35.13l-4.72-0.016c-0.016-0.48-0.352-0.944-0.848-1.104c-0.576-0.176-1.184,0.096-1.44,0.64
			c-0.688-0.24-1.328-0.48-1.92-0.752c0.016-0.016,0.032-0.016,0.048-0.016l6.096,0.032h0.016
			C30.026,34.41,30.954,34.81,31.962,35.13z"/>
		<path fill="#D49B3C" d="M31.674,31.93h-1.136c-0.208-0.096-0.4-0.208-0.592-0.336C30.522,31.674,31.098,31.786,31.674,31.93z"/>
		<path fill="#231F20" d="M29.818,11.018c1.408,0,2.672,0.224,3.745,0.656c-1.584-0.096-2.992-0.272-4.272-0.496
			c-0.08-0.048-0.176-0.096-0.272-0.112c-0.112-0.032-0.208-0.048-0.32-0.048H29.818z"/>
		<path fill="#231F20" d="M25.018,21.162l5.696,0.032c-0.304,0.208-0.624,0.4-0.976,0.592h-6.496
			c0.112-0.064,0.208-0.144,0.304-0.224c0.016,0,0.016,0,0.016,0C24.074,21.434,24.554,21.306,25.018,21.162z"/>
		<path fill="#D49B3C" d="M29.818,13.418c1.249,0,2.304,0.208,3.152,0.608c-1.248-0.08-2.399-0.208-3.472-0.4
			c0.032-0.08,0.064-0.144,0.08-0.208H29.818z"/>
		<path fill="#231F20" d="M30.538,31.93l-4.064,0.016c-0.224-0.224-0.448-0.432-0.656-0.656c0.064,0,0.144,0,0.208,0
			c1.328,0,2.624,0.096,3.904,0.304c0,0,0,0,0.016,0C30.138,31.722,30.33,31.834,30.538,31.93z"/>
		<path fill="#D49B3C" d="M26.49,18.778l3.456,0.016c-0.56,0.416-1.216,0.816-1.968,1.184l-2.56-0.016
			C25.818,19.578,26.17,19.178,26.49,18.778z"/>
		<path fill="#231F20" d="M29.914,12.202v0.016c-0.032,0-0.064,0-0.096,0h-2.352c0.048-0.176,0.08-0.272,0.08-0.288
			c0.08-0.32,0.288-0.592,0.56-0.736C28.666,11.562,29.258,11.914,29.914,12.202z"/>
		<path fill="#231F20" d="M29.914,12.218c0,0.112-0.016,0.192-0.048,0.304c0,0.016-0.08,0.352-0.288,0.896h-1.312H28.25
			c-0.4-0.08-0.784-0.16-1.152-0.256c0.176-0.4,0.288-0.736,0.368-0.944h2.352C29.85,12.218,29.882,12.218,29.914,12.218z"/>
		<path fill="#231F20" d="M23.242,21.786h6.496c-0.768,0.432-1.648,0.832-2.64,1.2H25.53h-1.936c-0.048-0.16-0.08-0.256-0.08-0.288
			c-0.08-0.32-0.272-0.576-0.544-0.736C23.066,21.914,23.162,21.85,23.242,21.786z"/>
		<path fill="#231F20" d="M29.578,13.418c-0.016,0.064-0.048,0.128-0.08,0.208c-0.432-0.048-0.832-0.128-1.232-0.208H29.578z"/>
		<path fill="#231F20" d="M29.29,11.178c0.384,0.192,0.624,0.592,0.624,1.024c-0.656-0.288-1.248-0.64-1.808-1.008
			c0.144-0.096,0.304-0.144,0.464-0.16C28.81,11.082,29.05,11.13,29.29,11.178z"/>
		<path fill="#231F20" d="M29.29,11.178c-0.24-0.048-0.48-0.096-0.72-0.144c0.048-0.016,0.08-0.016,0.128-0.016
			c0.112,0,0.208,0.016,0.32,0.048C29.114,11.082,29.21,11.13,29.29,11.178z"/>
		<path fill="#231F20" d="M29.178,33.914l-6.096-0.032c0.96-0.128,1.952-0.192,2.944-0.192C27.098,33.69,28.154,33.77,29.178,33.914
			z"/>
		<path fill="#231F20" d="M28.714,30.746c0.384,0.288,0.784,0.576,1.216,0.848c-1.28-0.208-2.576-0.304-3.904-0.304
			c-0.064,0-0.144,0-0.208,0c-0.176-0.176-0.352-0.352-0.512-0.528L28.714,30.746z"/>
		<path fill="#231F20" d="M28.714,30.746l-3.408,0.016c-0.352-0.4-0.688-0.816-0.976-1.216l3.072-0.016
			C27.786,29.946,28.234,30.362,28.714,30.746z"/>
		<path fill="#231F20" d="M28.698,11.018c-0.048,0-0.08,0-0.128,0.016c-0.016,0-0.048,0-0.064-0.016H28.698z"/>
		<path fill="#231F20" d="M28.506,11.018c0.016,0.016,0.048,0.016,0.064,0.016c-0.16,0.016-0.32,0.064-0.464,0.16
			c-0.096-0.048-0.176-0.112-0.256-0.176H28.506z"/>
		<path fill="#231F20" d="M28.266,13.418c0.4,0.08,0.8,0.16,1.232,0.208c-0.464,1.184-1.376,3.184-3.008,5.152l-3.28-0.016
			c2.016-1.808,3.184-3.952,3.792-5.344h1.248H28.266z"/>
		<path fill="#231F20" d="M28.506,11.018H27.85c-0.112-0.064-0.208-0.128-0.304-0.208C27.85,10.89,28.17,10.954,28.506,11.018z"/>
		<path fill="#231F20" d="M34.202,33.882c-2.512-0.128-4.656-0.464-6.464-0.912c-0.208-0.144-0.416-0.304-0.608-0.448
			C29.594,32.618,31.979,33.098,34.202,33.882z"/>
		<path fill="#231F20" d="M28.25,13.418h-1.248c0.048-0.096,0.08-0.176,0.096-0.256C27.466,13.258,27.85,13.338,28.25,13.418z"/>
		<path fill="#231F20" d="M27.85,11.018c0.08,0.064,0.16,0.128,0.256,0.176c-0.272,0.144-0.48,0.416-0.56,0.736
			c0,0.016-0.032,0.112-0.08,0.288H25.53h-1.568c-0.976-0.368-1.84-0.768-2.608-1.2H27.85z"/>
		<path fill="#D49B3C" d="M25.418,19.962l2.56,0.016c-0.848,0.432-1.824,0.832-2.96,1.184h-0.944
			C24.554,20.794,25.002,20.378,25.418,19.962z"/>
		<path fill="#231F20" d="M27.85,11.018h-6.496c-3.152-1.728-4.704-3.84-5.44-5.472c0.208-0.512,0.496-0.992,0.896-1.392
			c0.256-0.256,0.544-0.48,0.864-0.672c0.416,1.536,2.176,5.488,9.872,7.328C27.642,10.89,27.738,10.954,27.85,11.018z"/>
		<path fill="#231F20" d="M27.738,32.97c0.448,0.336,0.928,0.656,1.44,0.944c-1.024-0.144-2.08-0.224-3.152-0.224
			c-0.992,0-1.984,0.064-2.944,0.192h-0.064c-0.64-0.288-1.232-0.592-1.76-0.928c1.552-0.304,3.136-0.464,4.768-0.464
			c0.016,0,0.032,0,0.032,0C26.586,32.666,27.146,32.826,27.738,32.97z"/>
		<path fill="#D49B3C" d="M27.13,32.522c0.192,0.144,0.4,0.304,0.608,0.448c-0.592-0.144-1.152-0.304-1.68-0.48
			C26.41,32.49,26.778,32.506,27.13,32.522z"/>
		<path fill="#231F20" d="M25.53,12.218h1.936c-0.08,0.208-0.192,0.544-0.368,0.944c-1.152-0.272-2.208-0.592-3.136-0.944H25.53z"/>
		<path fill="#231F20" d="M27.402,29.53l-3.072,0.016c-1.488-1.984-2.352-3.952-2.784-5.136c0.432-0.064,0.848-0.144,1.248-0.224
			h1.216C24.554,25.562,25.594,27.674,27.402,29.53z"/>
		<path fill="#231F20" d="M27.242,35.114c0,0.064,0,0.128-0.016,0.192c-0.272-0.048-0.512-0.112-0.768-0.192H27.242z"/>
		<path fill="#231F20" d="M27.242,35.114h-0.784c-0.528-0.144-1.024-0.288-1.504-0.464c0.256-0.544,0.864-0.816,1.44-0.64
			C26.89,34.17,27.226,34.634,27.242,35.114z"/>
		<path fill="#231F20" d="M27.226,35.306c0,0.064-0.016,0.128-0.048,0.208c-0.032,0.096-0.112,0.368-0.224,0.8l-2.464-0.016
			c0.128-0.544,0.24-0.944,0.304-1.2l1.664,0.016C26.714,35.194,26.954,35.258,27.226,35.306z"/>
		<path fill="#D49B3C" d="M27.13,32.522c-0.352-0.016-0.72-0.032-1.072-0.032c0,0-0.016,0-0.032,0
			c-0.496-0.16-0.96-0.336-1.408-0.528l1.856-0.016C26.682,32.138,26.906,32.33,27.13,32.522z"/>
		<path fill="#231F20" d="M25.53,22.986h1.568c-0.944,0.368-2,0.688-3.184,0.96c-0.16-0.416-0.256-0.752-0.32-0.96H25.53z"/>
		<path fill="#231F20" d="M27.098,13.162c-0.016,0.08-0.048,0.16-0.096,0.256h-5.76c-1.968,0-3.456,0.512-4.432,1.504
			c-0.992,1.024-1.392,2.48-1.504,3.808h-0.064v-3.744c1.008-1.584,2.832-2.768,6-2.768h2.72
			C24.89,12.57,25.946,12.89,27.098,13.162z"/>
		<path fill="#D49B3C" d="M21.242,13.418h5.76c-0.608,1.392-1.776,3.536-3.792,5.344l-7.904-0.032
			c0.112-1.328,0.512-2.784,1.504-3.808C17.786,13.93,19.274,13.418,21.242,13.418z"/>
		<path fill="#231F20" d="M24.49,36.298l2.464,0.016c-0.592,2.128-1.968,8.048-1.648,15.552c-0.864-2.624-1.552-4.976-2.112-7.04
			C23.482,40.986,24.09,37.978,24.49,36.298z"/>
		<path fill="#231F20" d="M26.618,77.322c0.272,0.592,0,1.312-0.592,1.584c-1.84,0.832-3.92,1.36-5.92,1.729v-1.04
			c0-0.656-0.528-1.2-1.2-1.2c-0.08,0-0.16,0.016-0.24,0.032c2.128-0.32,4.416-0.849,6.368-1.712
			C25.642,76.442,26.362,76.714,26.618,77.322z"/>
		<path fill="#231F20" d="M23.21,18.762l3.28,0.016c-0.32,0.4-0.672,0.8-1.072,1.184l-3.744-0.016
			C22.234,19.578,22.746,19.178,23.21,18.762z"/>
		<path fill="#D49B3C" d="M26.474,31.946l-1.856,0.016c-0.416-0.176-0.816-0.352-1.184-0.544c0.784-0.08,1.584-0.128,2.384-0.128
			C26.026,31.514,26.25,31.722,26.474,31.946z"/>
		<path fill="#231F20" d="M26.458,35.114l-1.664-0.016c0.064-0.176,0.096-0.288,0.096-0.304c0.016-0.048,0.032-0.096,0.064-0.144
			C25.434,34.826,25.93,34.97,26.458,35.114z"/>
		<path fill="#231F20" d="M25.418,52.442c0-0.096-0.016-0.176-0.032-0.272C25.402,52.266,25.418,52.346,25.418,52.442z"/>
		<path fill="#231F20" d="M25.386,52.17c0.016,0.096,0.032,0.176,0.032,0.272c0-0.096-0.016-0.192-0.048-0.288L25.386,52.17z"/>
		<path fill="#231F20" d="M25.386,52.73c0.016-0.08,0.032-0.16,0.032-0.256C25.418,52.554,25.402,52.65,25.386,52.73z"/>
		<path fill="#231F20" d="M25.418,52.442c0,0.016,0,0.016,0,0.032c0,0.096-0.016,0.176-0.032,0.256c0,0.016,0,0.032-0.016,0.048
			c0,0.016,0,0.032-0.016,0.048c-0.016-0.272-0.032-0.544-0.032-0.816c0.016,0.048,0.032,0.096,0.048,0.128v0.016
			C25.402,52.25,25.418,52.346,25.418,52.442z"/>
		<path fill="#231F20" d="M21.674,19.946l3.744,0.016c-0.416,0.416-0.864,0.832-1.344,1.2l-4.688-0.016
			C20.234,20.81,20.986,20.394,21.674,19.946z"/>
		<path fill="#231F20" d="M25.37,52.09c0,0.016,0.016,0.032,0,0.048c-0.016-0.032-0.032-0.08-0.048-0.128l-0.016-0.016
			c0-0.032,0-0.064,0-0.096C25.322,51.962,25.354,52.026,25.37,52.09z"/>
		<path fill="#231F20" d="M25.37,52.778c0,0.016,0,0.032,0,0.048h-0.016C25.37,52.81,25.37,52.794,25.37,52.778z"/>
		<path fill="#231F20" d="M25.37,52.826c-0.016,0.016-0.016,0.016-0.016,0.016s0,0,0-0.016H25.37z"/>
		<path fill="#231F20" d="M25.354,52.842c0,0.016,0,0.016,0,0.016c0,0.016-0.016,0.032-0.016,0.048c0,0.016-0.016,0.032-0.016,0.032
			c-0.016,0.016-0.016,0.032-0.032,0.048c0,0.032-0.016,0.064-0.048,0.08c0,0.048-0.032,0.08-0.064,0.112
			c-0.016,0.048-0.064,0.096-0.112,0.128c-0.048,0.064-0.112,0.112-0.176,0.16c-0.048,0.032-0.096,0.064-0.16,0.08
			c-0.048,0.032-0.08,0.048-0.128,0.064c-0.032,0.016-0.048,0.016-0.08,0.016c-0.08,0.032-0.144,0.048-0.224,0.032
			c-0.032-0.4-0.064-0.8-0.08-1.184c-0.384-0.192-0.768-0.384-1.136-0.576c-0.032-0.464-0.048-0.928-0.048-1.392
			c0.544,0.304,1.12,0.592,1.712,0.88c0.096,0.048,0.176,0.096,0.24,0.16c0.016,0.016,0.048,0.048,0.064,0.064
			c0.064,0.064,0.112,0.128,0.16,0.192c0.032,0.048,0.064,0.112,0.08,0.16c0.016,0.016,0.016,0.016,0.016,0.032l0.016,0.016
			c0,0.272,0.016,0.544,0.032,0.816C25.354,52.842,25.354,52.842,25.354,52.842z"/>
		<path fill="#D49B3C" d="M25.306,30.762c0.16,0.176,0.336,0.352,0.512,0.528c-0.8,0-1.6,0.048-2.384,0.128
			c-0.416-0.208-0.8-0.416-1.152-0.656H25.306z"/>
		<path fill="#231F20" d="M25.338,52.906c0,0.016-0.016,0.032-0.016,0.032S25.338,52.922,25.338,52.906z"/>
		<path fill="#231F20" d="M25.306,51.994l0.016,0.016L25.306,51.994z"/>
		<path fill="#231F20" d="M25.322,52.938c0,0.016-0.016,0.032-0.016,0.048H25.29C25.306,52.97,25.306,52.954,25.322,52.938z"/>
		<path fill="#231F20" d="M25.306,51.994c0-0.016,0-0.016-0.016-0.032c0-0.048-0.032-0.112-0.08-0.16
			c-0.048-0.064-0.096-0.128-0.16-0.192c-0.016-0.016-0.048-0.048-0.064-0.064c-0.704-0.672-1.36-1.392-1.968-2.144
			c-0.016-1.616,0.064-3.152,0.176-4.576c0.56,2.064,1.248,4.416,2.112,7.04c0,0,0,0.016,0,0.032
			C25.306,51.93,25.306,51.962,25.306,51.994z"/>
		<path fill="#231F20" d="M25.306,52.986c-0.016,0.032-0.032,0.064-0.064,0.08c0.032-0.016,0.048-0.048,0.048-0.08H25.306z"/>
		<path fill="#D49B3C" d="M25.306,30.762h-3.024c-0.624-0.368-1.184-0.768-1.648-1.2l3.696-0.016
			C24.618,29.946,24.954,30.362,25.306,30.762z"/>
		<path fill="#231F20" d="M25.29,51.962c-0.016-0.048-0.048-0.112-0.08-0.16C25.258,51.85,25.29,51.914,25.29,51.962z"/>
		<path fill="#231F20" d="M25.066,53.306c0.048-0.032,0.096-0.08,0.112-0.128c-0.016,0.048-0.064,0.096-0.096,0.128H25.066z"/>
		<path fill="#231F20" d="M24.618,31.962c0.448,0.192,0.912,0.368,1.408,0.528c-1.632,0-3.216,0.16-4.768,0.464
			c-0.512-0.272-0.976-0.592-1.392-0.912c0.08-0.032,0.176-0.048,0.272-0.064L24.618,31.962z"/>
		<path fill="#D49B3C" d="M24.074,21.162h0.944c-0.464,0.144-0.944,0.272-1.456,0.4C23.738,21.434,23.914,21.306,24.074,21.162z"/>
		<path fill="#231F20" d="M24.986,51.546c-0.064-0.064-0.144-0.112-0.24-0.16c-0.592-0.288-1.168-0.576-1.712-0.88
			c-0.016-0.368-0.016-0.736-0.016-1.104C23.626,50.154,24.282,50.874,24.986,51.546z"/>
		<path fill="#231F20" d="M24.954,34.65c-0.032,0.048-0.048,0.096-0.064,0.144c0,0.016-0.032,0.128-0.096,0.304l-3.664-0.016
			c0-0.032,0-0.064,0-0.064c-0.032-0.288-0.16-0.528-0.368-0.72c0.736-0.176,1.504-0.32,2.272-0.4
			C23.626,34.17,24.266,34.41,24.954,34.65z"/>
		<path fill="#231F20" d="M24.73,53.546c0.064-0.016,0.112-0.048,0.16-0.08C24.842,53.498,24.778,53.53,24.73,53.546z"/>
		<path fill="#D49B3C" d="M21.498,2.65c0.624,1.712,2.368,5.488,6.048,8.16c-7.696-1.84-9.456-5.792-9.872-7.328
			c0.912-0.544,2.112-0.832,3.568-0.832H21.498z"/>
		<path fill="#231F20" d="M21.13,35.082l3.664,0.016c-0.064,0.256-0.176,0.656-0.304,1.2l-3.168-0.016
			C21.21,35.642,21.162,35.226,21.13,35.082z"/>
		<path fill="#231F20" d="M24.618,31.962l-4.48,0.016c1.072-0.256,2.176-0.448,3.296-0.56C23.802,31.61,24.202,31.786,24.618,31.962
			z"/>
		<path fill="#231F20" d="M24.522,53.626c-0.032,0.016-0.08,0.032-0.112,0.032c-0.032,0-0.08,0.016-0.112,0.016v-0.016
			C24.378,53.674,24.442,53.658,24.522,53.626z"/>
		<path fill="#231F20" d="M24.41,53.658c0.032,0,0.08-0.016,0.112-0.032C24.49,53.642,24.442,53.658,24.41,53.658z"/>
		<path fill="#D49B3C" d="M21.322,36.282l3.168,0.016c-0.4,1.68-1.008,4.688-1.296,8.528C22.106,40.746,21.562,37.834,21.322,36.282
			z"/>
		<path fill="#D49B3C" d="M24.33,29.546l-3.696,0.016c-2.064-1.76-2.752-3.6-2.96-4.544c0.128-0.08,0.272-0.16,0.416-0.224
			c1.232-0.08,2.384-0.208,3.456-0.384C21.978,25.594,22.842,27.562,24.33,29.546z"/>
		<path fill="#231F20" d="M24.298,53.658v0.016c-0.032,0-0.048,0-0.08,0C24.25,53.674,24.266,53.674,24.298,53.658z"/>
		<path fill="#231F20" d="M24.298,53.658c-0.032,0.016-0.048,0.016-0.08,0.016c-0.064,0-0.128,0-0.192-0.032
			c-0.048,0.016-0.08,0-0.128-0.016c-0.016,0-0.032,0-0.048-0.016c-0.064-0.016-0.128-0.048-0.176-0.08
			c-0.064-0.016-0.112-0.048-0.144-0.08c-0.112-0.064-0.192-0.16-0.272-0.256c-0.048-0.08-0.096-0.16-0.128-0.256
			c0,0-0.016,0,0-0.016c-0.016-0.352-0.048-0.688-0.048-1.024c0.368,0.192,0.752,0.384,1.136,0.576
			C24.234,52.858,24.266,53.258,24.298,53.658z"/>
		<path fill="#231F20" d="M24.026,53.642c0.064,0.032,0.128,0.032,0.192,0.032c-0.08,0-0.176-0.016-0.256-0.032
			C23.978,53.642,23.994,53.658,24.026,53.642z"/>
		<path fill="#231F20" d="M19.386,21.146l4.688,0.016c-0.16,0.144-0.336,0.272-0.512,0.4c0,0,0,0-0.016,0
			c-0.32,0.08-0.656,0.16-0.992,0.224H22.33h-1.088c-1.408,0-2.672,0.224-3.744,0.656c-0.72,0.048-1.456,0.08-2.24,0.096v-0.48
			C16.81,21.946,18.186,21.61,19.386,21.146z"/>
		<path fill="#231F20" d="M24.058,2.65h-2.56c-0.208-0.544-0.304-0.88-0.304-0.896c-0.032-0.112-0.048-0.192-0.048-0.304
			c0.032,0,0.064,0,0.096,0h2.352C23.674,1.706,23.834,2.138,24.058,2.65z"/>
		<path fill="#231F20" d="M24.026,53.642c-0.032,0.016-0.048,0-0.064,0c-0.016,0-0.048,0-0.064-0.016
			C23.946,53.642,23.978,53.658,24.026,53.642z"/>
		<path fill="#231F20" d="M24.01,24.186h-1.216c0.384-0.08,0.768-0.16,1.12-0.24C23.946,24.026,23.978,24.106,24.01,24.186z"/>
		<path fill="#231F20" d="M23.962,12.218h-2.72c-3.168,0-4.992,1.184-6,2.768l0.016-1.888c1.424-1.376,3.456-2.08,5.984-2.08h0.112
			C22.122,11.45,22.986,11.85,23.962,12.218z"/>
		<path fill="#231F20" d="M23.674,53.53c0.048,0.032,0.112,0.064,0.176,0.08c-0.096-0.016-0.192-0.064-0.288-0.128
			C23.594,53.498,23.642,53.514,23.674,53.53z"/>
		<path fill="#231F20" d="M23.914,23.946c-0.352,0.08-0.736,0.16-1.12,0.24h-1.328c-0.192-0.56-0.288-0.896-0.288-0.912
			c-0.016-0.096-0.032-0.176-0.032-0.272v-0.016c0,0,0,0,0.016,0c0.032,0,0.048,0,0.08,0h2.352
			C23.658,23.194,23.754,23.53,23.914,23.946z"/>
		<path fill="#231F20" d="M23.53,53.45c0.032,0.032,0.08,0.064,0.144,0.08c-0.032-0.016-0.08-0.032-0.112-0.048
			C23.562,53.482,23.546,53.466,23.53,53.45z"/>
		<path fill="#231F20" d="M23.594,1.45h-2.352c-0.032,0-0.064,0-0.096,0c0-0.528,0.352-1.024,0.896-1.152
			c0.112-0.032,0.208-0.048,0.32-0.048c0.528,0,1.008,0.368,1.152,0.896C23.53,1.178,23.546,1.29,23.594,1.45z"/>
		<path fill="#231F20" d="M23.594,22.986h-2.352c-0.032,0-0.048,0-0.08,0c0.656-0.304,1.248-0.64,1.808-1.024
			c0.272,0.16,0.464,0.416,0.544,0.736C23.514,22.73,23.546,22.826,23.594,22.986z"/>
		<path fill="#231F20" d="M23.53,53.45c-0.128-0.048-0.256-0.112-0.368-0.176c-0.016-0.064-0.016-0.128-0.016-0.192
			c0.016,0.048,0.064,0.08,0.112,0.112c0.032,0.048,0.08,0.096,0.128,0.144C23.434,53.386,23.482,53.418,23.53,53.45z"/>
		<path fill="#231F20" d="M23.53,53.45c-0.048-0.032-0.096-0.064-0.144-0.112c-0.048-0.048-0.096-0.096-0.128-0.144
			C23.338,53.29,23.418,53.386,23.53,53.45z"/>
		<path fill="#231F20" d="M23.546,21.562c-0.096,0.08-0.192,0.16-0.304,0.224h-0.688C22.89,21.722,23.226,21.642,23.546,21.562z"/>
		<path fill="#231F20" d="M23.13,52.938c0.032,0.096,0.08,0.176,0.128,0.256c-0.048-0.032-0.096-0.064-0.112-0.112
			S23.13,52.986,23.13,52.938z"/>
		<path fill="#231F20" d="M23.242,21.786c-0.08,0.064-0.176,0.128-0.272,0.176c-0.144-0.08-0.304-0.144-0.48-0.16
			c0.016,0,0.048,0,0.064-0.016H23.242z"/>
		<path fill="#D49B3C" d="M15.306,18.73l7.904,0.032c-0.464,0.416-0.976,0.816-1.536,1.184l-6.416-0.032
			C15.258,19.546,15.258,19.146,15.306,18.73z"/>
		<path fill="#231F20" d="M23.146,53.082c0,0.064,0,0.128,0.016,0.192C14.57,48.986,10.858,43.386,9.45,40.602
			c0.304-0.304,0.608-0.592,0.912-0.864c1.04,2.16,3.936,6.928,10.656,11.008C21.674,51.562,22.378,52.33,23.146,53.082z"/>
		<path fill="#231F20" d="M23.13,52.938c0,0.048,0,0.096,0.016,0.144c-0.768-0.752-1.472-1.52-2.128-2.336
			c0.544,0.32,1.104,0.64,1.696,0.96c0.112,0.368,0.24,0.752,0.368,1.136c0.016,0.032,0.016,0.064,0.048,0.08
			C23.114,52.938,23.13,52.938,23.13,52.938z"/>
		<path fill="#231F20" d="M23.082,51.898c0,0.336,0.032,0.672,0.048,1.024c-0.032-0.016-0.032-0.048-0.048-0.08
			c-0.128-0.384-0.256-0.768-0.368-1.136C22.826,51.77,22.954,51.834,23.082,51.898z"/>
		<path fill="#231F20" d="M23.082,33.882c-0.016,0-0.032,0-0.048,0.016c-0.016,0-0.016-0.016-0.016-0.016H23.082z"/>
		<path fill="#231F20" d="M23.082,51.898c-0.128-0.064-0.256-0.128-0.368-0.192c-0.176-0.576-0.352-1.12-0.512-1.664
			c0.272,0.16,0.544,0.304,0.832,0.464C23.034,50.97,23.05,51.434,23.082,51.898z"/>
		<path fill="#231F20" d="M23.018,33.882c0,0,0,0.016,0.016,0.016c-0.768,0.08-1.536,0.224-2.272,0.4
			c-0.224-0.24-0.592-0.384-0.96-0.336c-0.512,0.064-0.912,0.432-1.04,0.896c-0.224,0.064-0.432,0.128-0.64,0.208l-2.816-0.016
			c-0.016-0.032-0.016-0.064-0.032-0.096c0.848-0.4,1.744-0.784,2.656-1.088L23.018,33.882z"/>
		<path fill="#231F20" d="M23.194,44.826c-0.112,1.424-0.192,2.96-0.176,4.576c-0.592-0.688-1.136-1.408-1.648-2.144
			c-1.568-5.536-2.24-9.312-2.48-10.992l2.432,0.016C21.562,37.834,22.106,40.746,23.194,44.826z"/>
		<path fill="#231F20" d="M23.018,49.402c0,0.368,0,0.736,0.016,1.104c-0.288-0.16-0.56-0.304-0.832-0.464
			c-0.304-0.976-0.576-1.904-0.832-2.784C21.882,47.994,22.426,48.714,23.018,49.402z"/>
		<path fill="#D49B3C" d="M23.018,33.882l-5.088-0.016c1.072-0.384,2.192-0.688,3.328-0.912
			C21.786,33.29,22.378,33.594,23.018,33.882z"/>
		<path fill="#231F20" d="M21.466,24.186h1.328c-0.4,0.08-0.816,0.16-1.248,0.224C21.514,24.33,21.498,24.25,21.466,24.186z"/>
		<path fill="#231F20" d="M22.282,30.762c0.352,0.24,0.736,0.448,1.152,0.656c-1.12,0.112-2.224,0.304-3.296,0.56h-0.352
			c-0.528-0.384-0.992-0.784-1.392-1.184L22.282,30.762z"/>
		<path fill="#231F20" d="M22.554,21.786c-0.016,0.016-0.048,0.016-0.064,0.016c-0.048-0.016-0.112-0.016-0.16-0.016H22.554z"/>
		<path fill="#231F20" d="M22.49,21.802c0.176,0.016,0.336,0.08,0.48,0.16c-0.56,0.384-1.152,0.72-1.808,1.024
			c-0.016,0-0.016,0-0.016,0c0-0.432,0.24-0.832,0.624-1.04C22.026,21.898,22.25,21.85,22.49,21.802z"/>
		<path fill="#231F20" d="M22.49,21.802c-0.24,0.048-0.464,0.096-0.72,0.144c0.08-0.064,0.176-0.096,0.288-0.128
			c0.096-0.016,0.192-0.032,0.272-0.032C22.378,21.786,22.442,21.786,22.49,21.802z"/>
		<path fill="#231F20" d="M22.202,50.042c0.16,0.544,0.336,1.088,0.512,1.664c-0.592-0.32-1.152-0.64-1.696-0.96
			c-0.816-0.976-1.568-1.984-2.24-2.992C19.786,48.538,20.922,49.306,22.202,50.042z"/>
		<path fill="#231F20" d="M22.362,0.25c-0.112,0-0.208,0.016-0.32,0.048c-0.544,0.128-0.896,0.624-0.896,1.152
			c-1.584,0.016-2.816,0.32-3.776,0.832c-0.224-0.352-0.624-0.576-1.072-0.544c-0.208,0.016-0.4,0.08-0.56,0.176
			C17.13,0.81,18.986,0.25,21.242,0.25H22.362z"/>
		<path fill="#231F20" d="M22.33,21.786c-0.08,0-0.176,0.016-0.272,0.032c-0.112,0.032-0.208,0.064-0.288,0.128
			c-1.28,0.224-2.688,0.4-4.272,0.496c1.072-0.432,2.336-0.656,3.744-0.656H22.33z"/>
		<path fill="#231F20" d="M22.282,30.762l-3.888,0.032c-0.416-0.416-0.768-0.816-1.072-1.216l3.312-0.016
			C21.098,29.994,21.658,30.394,22.282,30.762z"/>
		<path fill="#231F20" d="M21.37,47.258c0.256,0.88,0.528,1.808,0.832,2.784c-1.28-0.736-2.416-1.504-3.424-2.288
			c-2.72-4.048-4.4-8.112-5.248-10.432c0.608-0.384,1.232-0.736,1.872-1.072l0.304,0.016C16.538,38.554,18.362,43.034,21.37,47.258z
			"/>
		<path fill="#D49B3C" d="M15.258,19.914l6.416,0.032c-0.688,0.448-1.44,0.864-2.288,1.2l-4.128-0.032V20.01
			C15.258,19.978,15.258,19.946,15.258,19.914z"/>
		<path fill="#D49B3C" d="M21.466,24.186c0.032,0.064,0.048,0.144,0.08,0.224c-1.072,0.176-2.224,0.304-3.456,0.384
			c0.848-0.4,1.904-0.608,3.152-0.608H21.466z"/>
		<path fill="#231F20" d="M21.498,2.65h-0.256c-1.456,0-2.656,0.288-3.568,0.832c-0.08-0.352-0.112-0.576-0.112-0.624
			c-0.016-0.208-0.08-0.416-0.192-0.576c0.96-0.512,2.192-0.816,3.776-0.832c0,0.112,0.016,0.192,0.048,0.304
			C21.194,1.77,21.29,2.106,21.498,2.65z"/>
		<path fill="#231F20" d="M21.466,24.186h-0.224c-1.248,0-2.304,0.208-3.152,0.608c-0.144,0.032-0.304,0.032-0.464,0.032
			c-0.048-0.24-0.064-0.384-0.064-0.432c0-0.08-0.016-0.144-0.032-0.208c0-0.016,0-0.016,0-0.016
			c1.344-0.256,2.544-0.656,3.616-1.168c0,0.096,0.016,0.176,0.032,0.272C21.178,23.29,21.274,23.626,21.466,24.186z"/>
		<path fill="#D49B3C" d="M21.354,11.018h-0.112c-2.528,0-4.56,0.704-5.984,2.08V9.226c-0.016-1.088,0.096-2.48,0.656-3.68
			C16.65,7.178,18.202,9.29,21.354,11.018z"/>
		<path fill="#231F20" d="M21.322,36.282l-2.432-0.016c-0.096-0.592-0.144-0.928-0.144-0.976c-0.016-0.08-0.016-0.144-0.016-0.224
			l2.4,0.016C21.162,35.226,21.21,35.642,21.322,36.282z"/>
		<path fill="#231F20" d="M21.77,21.946c-0.384,0.208-0.624,0.608-0.624,1.04c-1.584,0.016-2.816,0.32-3.776,0.832
			c-0.208-0.352-0.624-0.56-1.072-0.544c-0.208,0.016-0.4,0.08-0.56,0.176c0.528-0.416,1.104-0.752,1.76-1.008
			C19.082,22.346,20.49,22.17,21.77,21.946z"/>
		<path fill="#231F20" d="M21.146,22.986v0.016c-1.072,0.512-2.272,0.912-3.616,1.168c-0.032-0.128-0.08-0.24-0.16-0.352
			C18.33,23.306,19.562,23.002,21.146,22.986z"/>
		<path fill="#231F20" d="M21.13,35.018c0,0,0,0.032,0,0.064l-2.4-0.016c0-0.064,0.016-0.144,0.032-0.208
			c0.656-0.224,1.312-0.416,2-0.56C20.97,34.49,21.098,34.73,21.13,35.018z"/>
		<path fill="#231F20" d="M20.634,29.562l-3.312,0.016c-0.672-0.848-1.136-1.68-1.456-2.416c0.224-0.544,0.528-1.04,0.944-1.472
			c0.256-0.256,0.544-0.48,0.864-0.672C17.882,25.962,18.57,27.802,20.634,29.562z"/>
		<path fill="#231F20" d="M19.802,33.962c0.368-0.048,0.736,0.096,0.96,0.336c-0.688,0.144-1.344,0.336-2,0.56
			C18.89,34.394,19.29,34.026,19.802,33.962z"/>
		<path fill="#231F20" d="M20.138,31.978c-0.096,0.016-0.192,0.032-0.272,0.064c-0.032-0.016-0.064-0.032-0.08-0.064H20.138z"/>
		<path fill="#D49B3C" d="M19.866,32.042c0.416,0.32,0.88,0.64,1.392,0.912c-1.136,0.224-2.256,0.528-3.328,0.912l-2.688-0.016
			v-0.192C16.714,32.986,18.25,32.426,19.866,32.042z"/>
		<path fill="#231F20" d="M20.106,79.594v1.04c-0.832,0.144-1.648,0.256-2.4,0.336v-1.376c0-0.576,0.416-1.057,0.96-1.168
			c0.08-0.017,0.16-0.032,0.24-0.032C19.578,78.394,20.106,78.938,20.106,79.594z"/>
		<path fill="#D49B3C" d="M19.786,31.978c0.016,0.032,0.048,0.048,0.08,0.064c-1.616,0.384-3.152,0.944-4.624,1.616l0.016-1.648
			L19.786,31.978z"/>
		<path fill="#D49B3C" d="M18.89,36.266c0.24,1.68,0.912,5.456,2.48,10.992c-3.008-4.224-4.832-8.704-5.664-10.992H18.89z"/>
		<path fill="#D49B3C" d="M19.786,31.978l-4.528,0.032v-1.2l3.136-0.016C18.794,31.194,19.258,31.594,19.786,31.978z"/>
		<path fill="#231F20" d="M18.778,47.754c0.672,1.008,1.424,2.016,2.24,2.992c-6.72-4.08-9.616-8.848-10.656-11.008
			c0.304-0.288,0.624-0.544,0.944-0.816C12.01,40.442,14.058,44.17,18.778,47.754z"/>
		<path fill="#D49B3C" d="M15.258,21.114l4.128,0.032c-1.2,0.464-2.576,0.8-4.128,0.912V21.114z"/>
		<path fill="#231F20" d="M18.89,36.266h-3.184c0-0.048-0.032-0.096-0.048-0.144c0.8-0.4,1.616-0.752,2.464-1.056h0.608
			c0,0.08,0,0.144,0.016,0.224C18.746,35.338,18.794,35.674,18.89,36.266z"/>
		<path fill="#231F20" d="M18.122,35.066c0.208-0.08,0.416-0.144,0.64-0.208c-0.016,0.064-0.032,0.144-0.032,0.208H18.122z"/>
		<path fill="#D49B3C" d="M17.322,29.578c0.304,0.4,0.656,0.8,1.072,1.216l-3.136,0.016v-0.032c0-0.368,0-0.768,0.048-1.184
			L17.322,29.578z"/>
		<path fill="#231F20" d="M15.306,35.05l2.816,0.016c-0.848,0.304-1.664,0.656-2.464,1.056C15.498,35.658,15.386,35.29,15.306,35.05
			z"/>
		<path fill="#231F20" d="M18.09,24.794c-0.144,0.064-0.288,0.144-0.416,0.224c-0.016-0.08-0.032-0.144-0.048-0.192
			C17.786,24.826,17.946,24.826,18.09,24.794z"/>
		<path fill="#231F20" d="M17.93,33.866c-0.912,0.304-1.808,0.688-2.656,1.088c-0.048-0.144-0.064-0.224-0.064-0.24
			c-0.112-0.336-0.352-0.608-0.64-0.72c0.224-0.128,0.448-0.224,0.672-0.336v0.192L17.93,33.866z"/>
		<path fill="#231F20" d="M18.666,78.426c-0.544,0.111-0.96,0.592-0.96,1.168v1.376c-2.32,0.271-4.304,0.319-5.376,0.319
			c-0.4,0-0.688,0-0.8-0.016c0.656,0,1.2-0.528,1.2-1.2c0-0.64-0.528-1.184-1.168-1.2C11.61,78.874,14.89,78.97,18.666,78.426z"/>
		<path fill="#231F20" d="M17.626,24.826c0.016,0.048,0.032,0.112,0.048,0.192c-0.32,0.192-0.608,0.416-0.864,0.672
			c-0.416,0.432-0.72,0.928-0.944,1.472c-0.256-0.608-0.416-1.136-0.528-1.552c0.16-0.24,0.336-0.464,0.544-0.688
			C16.49,24.906,17.066,24.874,17.626,24.826z"/>
		<path fill="#231F20" d="M17.562,2.858c0,0.048,0.032,0.272,0.112,0.624c-0.32,0.192-0.608,0.416-0.864,0.672
			c-0.4,0.4-0.688,0.88-0.896,1.392c-0.288-0.576-0.448-1.088-0.56-1.504c0.48-0.704,1.136-1.312,2.016-1.76
			C17.482,2.442,17.546,2.65,17.562,2.858z"/>
		<path fill="#231F20" d="M17.562,24.394c0,0.048,0.016,0.192,0.064,0.432c-0.56,0.048-1.136,0.08-1.744,0.096
			c0.192-0.208,0.416-0.416,0.672-0.576c0.336-0.048,0.656-0.112,0.976-0.16C17.546,24.25,17.562,24.314,17.562,24.394z"/>
		<path fill="#231F20" d="M17.53,24.17c0,0,0,0,0,0.016c-0.32,0.048-0.64,0.112-0.976,0.16c0.24-0.208,0.512-0.384,0.816-0.528
			C17.45,23.93,17.498,24.042,17.53,24.17z"/>
		<path fill="#D49B3C" d="M17.322,29.578l-2.016,0.016c0.048-0.8,0.208-1.664,0.56-2.432C16.186,27.898,16.65,28.73,17.322,29.578z"
			/>
		<path fill="#231F20" d="M17.37,23.818c-0.304,0.144-0.576,0.32-0.816,0.528c-0.416,0.048-0.848,0.096-1.296,0.128v-0.48
			c0.064-0.128,0.144-0.24,0.24-0.336c0.064-0.08,0.144-0.144,0.24-0.208c0.16-0.096,0.352-0.16,0.56-0.176
			C16.746,23.258,17.162,23.466,17.37,23.818z"/>
		<path fill="#231F20" d="M16.298,1.738c0.448-0.032,0.848,0.192,1.072,0.544c-0.88,0.448-1.536,1.056-2.016,1.76
			c-0.16-0.576-0.192-0.96-0.192-1.04c-0.016-0.336,0.112-0.656,0.336-0.88c0.064-0.08,0.144-0.144,0.24-0.208
			C15.898,1.818,16.09,1.754,16.298,1.738z"/>
		<path fill="#231F20" d="M15.258,24.474c0.448-0.032,0.88-0.08,1.296-0.128c-0.256,0.16-0.48,0.368-0.672,0.576
			c-0.208,0.016-0.416,0.016-0.624,0.016V24.474z"/>
		<path fill="#231F20" d="M17.498,22.442c-0.656,0.256-1.232,0.592-1.76,1.008c-0.096,0.064-0.176,0.128-0.24,0.208
			c-0.08,0.048-0.16,0.128-0.24,0.208v-1.328C16.042,22.522,16.778,22.49,17.498,22.442z"/>
		<path fill="#D49B3C" d="M13.53,37.322c0.848,2.32,2.528,6.384,5.248,10.432c-4.72-3.584-6.768-7.312-7.472-8.832
			C12.01,38.346,12.762,37.818,13.53,37.322z"/>
		<path fill="#231F20" d="M15.706,68.874c0.512,0.433,0.592,1.185,0.16,1.696c-1.952,2.4-5.824,2.752-7.936,2.752
			c-0.016,0-0.048,0-0.064,0v-2.399c1.888,0,4.896-0.336,6.144-1.872C14.426,68.538,15.194,68.458,15.706,68.874z"/>
		<path fill="#231F20" d="M15.258,24.938c0.208,0,0.416,0,0.624-0.016c-0.208,0.224-0.384,0.448-0.544,0.688
			c-0.032-0.16-0.064-0.304-0.08-0.432V24.938z"/>
		<path fill="#231F20" d="M15.658,36.122c0.016,0.048,0.048,0.096,0.048,0.144l-0.304-0.016
			C15.482,36.202,15.578,36.17,15.658,36.122z"/>
		<path fill="#231F20" d="M15.658,36.122c-0.08,0.048-0.176,0.08-0.256,0.128h-1.36c-0.256,0-0.512-0.096-0.704-0.24
			c0.56-0.336,1.152-0.656,1.76-0.96h0.208C15.386,35.29,15.498,35.658,15.658,36.122z"/>
		<path fill="#231F20" d="M15.098,2.474c0.128-0.128,0.256-0.256,0.4-0.352c-0.224,0.224-0.352,0.544-0.336,0.88
			c0,0.08,0.032,0.464,0.192,1.04c-1.088,1.568-1.328,3.584-1.296,5.216l-0.016,5.376c-0.832,1.44-1.232,3.28-1.184,5.392
			c-0.016-0.032-0.016-0.08-0.016-0.112l0.016-10.656C12.794,6.378,13.578,4.026,15.098,2.474z"/>
		<path fill="#231F20" d="M15.258,23.866c0.08-0.08,0.16-0.16,0.24-0.208c-0.096,0.096-0.176,0.208-0.24,0.336V23.866z"/>
		<path fill="#231F20" d="M15.354,4.042c0.112,0.416,0.272,0.928,0.56,1.504c-0.56,1.2-0.672,2.592-0.656,3.68v3.872
			c-0.064,0.048-0.112,0.096-0.16,0.144c-0.4,0.416-0.752,0.88-1.056,1.392l0.016-5.376C14.026,7.626,14.266,5.61,15.354,4.042z"/>
		<path fill="#231F20" d="M15.338,25.61c0.112,0.416,0.272,0.944,0.528,1.552c-0.352,0.768-0.512,1.632-0.56,2.432h-0.048v-3.856
			C15.274,25.69,15.306,25.642,15.338,25.61z"/>
		<path fill="#231F20" d="M14.042,36.25h1.36c-0.64,0.336-1.264,0.688-1.872,1.072c-0.16-0.464-0.304-0.864-0.4-1.168
			c0.064-0.048,0.128-0.096,0.208-0.144C13.53,36.154,13.786,36.25,14.042,36.25z"/>
		<path fill="#231F20" d="M15.338,25.61c-0.032,0.032-0.064,0.08-0.08,0.128v-0.56C15.274,25.306,15.306,25.45,15.338,25.61z"/>
		<path fill="#231F20" d="M15.242,18.73h0.064c-0.048,0.416-0.048,0.816-0.048,1.184h-1.2c-0.032-1.552,0.208-3.424,1.184-4.928
			V18.73z"/>
		<path fill="#231F20" d="M15.258,29.594h0.048c-0.048,0.416-0.048,0.816-0.048,1.184v0.032h-1.2v-0.016c0-0.192,0-0.384,0-0.592
			c0.032-1.456,0.304-3.104,1.2-4.464V29.594z"/>
		<path fill="#231F20" d="M15.306,35.05h-0.208c0.048-0.032,0.112-0.048,0.176-0.096C15.29,34.986,15.29,35.018,15.306,35.05z"/>
		<path fill="#231F20" d="M15.258,25.178v0.56c-0.896,1.36-1.168,3.008-1.2,4.464v-4.784c0.08-0.16,0.176-0.32,0.288-0.464h0.016
			c0.288,0,0.576,0,0.848-0.016C15.226,25.018,15.226,25.098,15.258,25.178z"/>
		<path fill="#231F20" d="M15.258,24.938v0.24c-0.032-0.08-0.032-0.16-0.048-0.24C15.226,24.938,15.242,24.938,15.258,24.938z"/>
		<path fill="#231F20" d="M15.258,24.474v0.464c-0.016,0-0.032,0-0.048,0c-0.032-0.208-0.048-0.352-0.048-0.4
			c0-0.016,0-0.032,0-0.064C15.194,24.474,15.226,24.474,15.258,24.474z"/>
		<path fill="#231F20" d="M15.258,23.994v0.48c-0.032,0-0.064,0-0.096,0C15.162,24.298,15.194,24.138,15.258,23.994z"/>
		<path fill="#231F20" d="M15.258,23.866v0.128c-0.064,0.144-0.096,0.304-0.096,0.48c-0.16,0.016-0.32,0.016-0.48,0.016
			c0.128-0.16,0.272-0.32,0.416-0.48C15.146,23.962,15.194,23.914,15.258,23.866z"/>
		<path fill="#231F20" d="M15.258,22.538v1.328c-0.064,0.048-0.112,0.096-0.16,0.144c-0.144,0.16-0.288,0.32-0.416,0.48
			c-0.208,0.016-0.416,0.016-0.624,0.016v-1.952C14.474,22.554,14.874,22.554,15.258,22.538z"/>
		<path fill="#231F20" d="M15.258,22.058v0.48c-0.384,0.016-0.784,0.016-1.2,0.016v-0.448C14.474,22.106,14.874,22.09,15.258,22.058
			z"/>
		<path fill="#231F20" d="M15.258,21.114v0.944c-0.384,0.032-0.784,0.048-1.2,0.048v-0.992H15.258z"/>
		<path fill="#231F20" d="M15.258,20.01v1.104h-1.2v-1.088c0-0.032,0-0.08,0-0.112h1.2C15.258,19.946,15.258,19.978,15.258,20.01z"
			/>
		<path fill="#231F20" d="M15.098,13.242c0.048-0.048,0.096-0.096,0.16-0.144l-0.016,1.888c-0.976,1.504-1.216,3.376-1.184,4.928
			h-0.016v-5.28C14.346,14.122,14.698,13.658,15.098,13.242z"/>
		<rect x="14.058" y="30.81" fill="#231F20" width="1.2" height="1.2"/>
		<path fill="#231F20" d="M15.258,32.01l-0.016,1.648c-0.224,0.112-0.448,0.208-0.672,0.336c-0.16-0.112-0.336-0.144-0.528-0.144
			l0.016-1.84H15.258z"/>
		<path fill="#231F20" d="M15.274,34.954c-0.064,0.048-0.128,0.064-0.176,0.096h-1.056v-0.784c0.176-0.096,0.352-0.192,0.528-0.272
			c0.288,0.112,0.528,0.384,0.64,0.72C15.21,34.73,15.226,34.81,15.274,34.954z"/>
		<path fill="#231F20" d="M15.21,24.938c-0.272,0.016-0.56,0.016-0.848,0.016c0.08-0.16,0.192-0.32,0.32-0.464
			c0.16,0,0.32,0,0.48-0.016c0,0.032,0,0.048,0,0.064C15.162,24.586,15.178,24.73,15.21,24.938z"/>
		<path fill="#231F20" d="M14.042,35.05h1.056c-0.608,0.304-1.2,0.624-1.76,0.96c-0.16-0.112-0.288-0.272-0.384-0.448
			c-0.032-0.096-0.048-0.16-0.064-0.192c-0.032-0.112-0.048-0.208-0.048-0.32c0-0.048,0-0.08,0.016-0.128
			c0.384-0.24,0.784-0.448,1.184-0.656V35.05z"/>
		<path fill="#231F20" d="M14.058,24.506c0.208,0,0.416,0,0.624-0.016c-0.128,0.144-0.24,0.304-0.32,0.464h-0.016
			c-0.096,0-0.192,0-0.288,0V24.506z"/>
		<path fill="#231F20" d="M14.57,33.994c-0.176,0.08-0.352,0.176-0.528,0.272V33.85C14.234,33.85,14.41,33.882,14.57,33.994z"/>
		<path fill="#231F20" d="M14.058,24.954c0.096,0,0.192,0,0.288,0c-0.112,0.144-0.208,0.304-0.288,0.464V24.954z"/>
		<path fill="#231F20" d="M14.058,30.794v0.016v1.2c-0.32,0-0.624-0.128-0.848-0.352c-0.224-0.224-0.352-0.544-0.352-0.848v-0.016
			c0-0.112,0-0.208,0-0.32c0-1.968,0.416-3.696,1.2-5.056v4.784C14.058,30.41,14.058,30.602,14.058,30.794z"/>
		<path fill="#231F20" d="M14.058,24.954v0.464c-0.784,1.36-1.2,3.088-1.2,5.056v-6.72C12.858,24.41,13.386,24.954,14.058,24.954z"
			/>
		<path fill="#231F20" d="M14.058,24.506v0.448c-0.672,0-1.2-0.544-1.2-1.2c0-0.016,0-0.048,0-0.064
			c0-0.048,0.016-0.096,0.016-0.144C12.986,24.09,13.466,24.506,14.058,24.506z"/>
		<path fill="#231F20" d="M14.058,22.554v1.952c-0.592,0-1.072-0.416-1.184-0.96c0-0.016,0-0.016,0-0.032
			C12.986,22.97,13.466,22.554,14.058,22.554z"/>
		<path fill="#231F20" d="M14.058,22.106v0.448c-0.592,0-1.072,0.416-1.184,0.96c-0.016-0.064-0.016-0.144-0.016-0.208
			C12.858,22.634,13.386,22.106,14.058,22.106z"/>
		<path fill="#231F20" d="M14.058,21.114v0.992c-0.672,0-1.2,0.528-1.2,1.2v-3.264c0.064,0.608,0.576,1.072,1.184,1.072H14.058z"/>
		<path fill="#231F20" d="M14.058,20.026v1.088h-0.016c-0.608,0-1.12-0.464-1.184-1.072v-0.016
			c-0.048-2.112,0.352-3.952,1.184-5.392v5.28h0.016C14.058,19.946,14.058,19.994,14.058,20.026z"/>
		<path fill="#231F20" d="M14.058,32.01l-0.016,1.84c-0.112,0-0.208,0.016-0.32,0.048c-0.48,0.128-0.816,0.56-0.864,1.024
			c0,0,0,0-0.016,0.016l0.016-4.128c0,0.304,0.128,0.624,0.352,0.848C13.434,31.882,13.738,32.01,14.058,32.01z"/>
		<path fill="#231F20" d="M14.042,33.85v0.416c-0.4,0.208-0.8,0.416-1.184,0.656c0.048-0.464,0.384-0.896,0.864-1.024
			C13.834,33.866,13.93,33.85,14.042,33.85z"/>
		<path fill="#231F20" d="M14.922,51.834c0,2.288-1.856,4.144-4.144,4.144c-2.288,0-4.144-1.856-4.144-4.144
			c0-0.672,0.528-1.2,1.2-1.2c0.656,0,1.2,0.528,1.2,1.2c0,0.96,0.784,1.744,1.744,1.744c0.96,0,1.744-0.784,1.744-1.744
			c0-0.672,0.544-1.2,1.2-1.2C14.394,50.634,14.922,51.162,14.922,51.834z"/>
		<path fill="#231F20" d="M13.338,36.01c-0.08,0.048-0.144,0.096-0.208,0.144c-0.08-0.256-0.144-0.448-0.176-0.592
			C13.05,35.738,13.178,35.898,13.338,36.01z"/>
		<path fill="#231F20" d="M13.13,36.154c0.096,0.304,0.24,0.704,0.4,1.168c-0.768,0.496-1.52,1.024-2.224,1.6
			c-0.192-0.464-0.288-0.72-0.288-0.736c-0.048-0.144-0.128-0.288-0.224-0.4C11.53,37.194,12.314,36.65,13.13,36.154z"/>
		<path fill="#231F20" d="M12.954,35.562c0.032,0.144,0.096,0.336,0.176,0.592c-0.816,0.496-1.6,1.04-2.336,1.632
			c-0.304-0.368-0.8-0.528-1.28-0.384c-0.096,0.032-0.176,0.064-0.256,0.128c1.12-0.976,2.32-1.84,3.584-2.592v0.112
			c0,0.112,0.016,0.208,0.048,0.32C12.906,35.402,12.922,35.466,12.954,35.562z"/>
		<path fill="#231F20" d="M12.858,23.306c0,0.064,0,0.144,0.016,0.208c0,0.016,0,0.016,0,0.032c0,0.048-0.016,0.096-0.016,0.144
			V23.306z"/>
		<path fill="#231F20" d="M12.858,34.922c-0.016,0.048-0.016,0.08-0.016,0.128v-0.112C12.858,34.922,12.858,34.922,12.858,34.922z"
			/>
		<path fill="#231F20" d="M11.562,78.874c0.64,0.017,1.168,0.561,1.168,1.2c0,0.672-0.544,1.2-1.2,1.2c-0.016,0-0.032,0-0.048,0
			s-0.016,0-0.032,0c-0.64-0.032-1.136-0.592-1.12-1.232c0.016-0.64,0.56-1.151,1.2-1.168
			C11.546,78.874,11.546,78.874,11.562,78.874z"/>
		<path fill="#231F20" d="M11.306,38.922c-0.32,0.272-0.64,0.528-0.944,0.816c-0.352-0.752-0.496-1.184-0.496-1.184
			c0.304-0.256,0.608-0.512,0.928-0.768c0.096,0.112,0.176,0.256,0.224,0.4C11.018,38.202,11.114,38.458,11.306,38.922z"/>
		<path fill="#231F20" d="M10.794,37.786c-0.32,0.256-0.624,0.512-0.928,0.768c0,0,0.144,0.432,0.496,1.184
			c-0.304,0.272-0.608,0.56-0.912,0.864c-0.496-0.976-0.688-1.6-0.72-1.696c-0.128-0.368-0.048-0.768,0.176-1.056
			c0-0.016,0.016-0.032,0.048-0.048c0.096-0.096,0.192-0.192,0.304-0.272c0.08-0.064,0.16-0.096,0.256-0.128
			C9.994,37.258,10.49,37.418,10.794,37.786z"/>
		<path fill="#231F20" d="M11.53,78.874c-0.64,0.017-1.184,0.528-1.2,1.168c-0.016,0.641,0.48,1.2,1.12,1.232
			c-3.312-0.048-5.984-2.752-5.984-6.063v-3.152c0,0.624,0.464,1.152,1.088,1.216c0.176,0.016,0.64,0.048,1.312,0.048v1.889
			C7.866,77.242,9.514,78.874,11.53,78.874z"/>
		<path fill="#231F20" d="M9.258,37.53c-0.112,0.08-0.208,0.176-0.304,0.272C9.018,37.69,9.13,37.594,9.258,37.53z"/>
		<path fill="#231F20" d="M8.73,38.906c0.032,0.096,0.224,0.72,0.72,1.696c-4.192,4.224-6.8,10.048-6.8,16.479v4.864h4.016
			c0.656,0,1.2,0.528,1.2,1.2v7.776c-0.432,0-0.8-0.017-1.088-0.049c-0.656-0.048-1.248,0.433-1.312,1.089v-7.616H1.45
			c-0.672,0-1.2-0.544-1.2-1.2v-6.064c0-7.647,3.344-14.527,8.656-19.231C8.682,38.138,8.602,38.538,8.73,38.906z"/>
		<path fill="#231F20" d="M7.866,70.922v2.399c-0.672,0-1.136-0.032-1.312-0.048c-0.624-0.063-1.088-0.592-1.088-1.216
			c0-0.032,0-0.064,0-0.096c0.064-0.656,0.656-1.137,1.312-1.089C7.066,70.906,7.434,70.922,7.866,70.922z"/>
	</g>
	<g>
	</g>
</g>
</svg>
