<?xml version="1.0" encoding="utf-8"?>
<!-- Generator: Adobe Illustrator 15.0.0, SVG Export Plug-In  -->
<!DOCTYPE svg PUBLIC "-//W3C//DTD SVG 1.1//EN" "http://www.w3.org/Graphics/SVG/1.1/DTD/svg11.dtd" [
	<!ENTITY ns_flows "http://ns.adobe.com/Flows/1.0/">
]>
<svg version="1.1"
	 xmlns="http://www.w3.org/2000/svg" xmlns:xlink="http://www.w3.org/1999/xlink" xmlns:a="http://ns.adobe.com/AdobeSVGViewerExtensions/3.0/"
	 x="0px" y="0px" width="80px" height="120px" viewBox="-13.117 -39.649 80 120"
	 overflow="visible" enable-background="new -13.117 -39.649 80 120" xml:space="preserve">
<defs>
</defs>
<polygon fill="#FCFCFC" points="0.981,30.742 1.502,18.68 5.417,11.836 14.264,12.76 23.684,17.979 26.522,25.201 26.831,29.547 
	30.382,29.792 32.174,24.623 35.087,22.607 39.576,23.425 41.177,29.33 38.81,33.586 39.873,37.489 44.398,44.639 47.969,48.545 
	46.594,60.657 43.378,64.351 24.481,64.351 15.729,64.075 16.659,58.143 18.945,53.074 18.273,49.045 7.746,47.807 4.883,44.299 
	4.883,31.967 "/>
<path fill="#D49B3C" d="M38.562,33.042c0,0,1.075,10.888,9.044,14.729l2.771-21.979c0-13.578-11.006-24.591-24.587-24.591
	c-8.595,0-16.157,4.407-20.551,11.082h7.296c0,0,14.164-0.855,14.164,17.512h4.625v-2.41c0-2.715,2.199-4.918,4.915-4.918
	c2.713,0,4.913,2.203,4.913,4.918C41.153,27.385,41.153,30.242,38.562,33.042"/>
<g>
	<defs>
		<path id="SVGID_1_" d="M18.669,54.972c0,0-3.062,2.283-3.062,8.424h1.763l6.163,0.003h17.856c2.687,0,4.866-2.18,4.866-4.865
			l0.448-3.562H18.669z"/>
	</defs>
	<clipPath id="SVGID_2_">
		<use xlink:href="#SVGID_1_"  overflow="visible"/>
	</clipPath>
	<rect x="14.49" y="59.817" clip-path="url(#SVGID_2_)" fill="#F43940" width="31.331" height="2.399"/>
	<rect x="14.49" y="55.018" clip-path="url(#SVGID_2_)" fill="#204E98" width="31.331" height="2.399"/>
</g>
<path fill="#231F20" d="M7.688,42.039c-0.7,0-1.203-0.041-1.373-0.055c-0.659-0.06-1.146-0.643-1.087-1.302s0.648-1.146,1.3-1.089
	c1.496,0.13,5.711,0.058,7.242-1.823c0.418-0.516,1.173-0.593,1.688-0.175c0.514,0.418,0.592,1.175,0.173,1.688
	C13.676,41.686,9.791,42.039,7.688,42.039z"/>
<path fill="#231F20" d="M25.79,49.995h-7.121c-0.663,0-1.2-0.537-1.2-1.2c0-0.662,0.537-1.199,1.2-1.199h7.121
	c0.663,0,1.2,0.537,1.2,1.199C26.99,49.458,26.453,49.995,25.79,49.995z"/>
<path fill="#231F20" d="M13.485,21.747H7.584c-0.662,0-1.2-0.538-1.2-1.2s0.538-1.2,1.2-1.2h5.901c0.662,0,1.199,0.538,1.199,1.2
	S14.147,21.747,13.485,21.747z"/>
<path fill="#231F20" d="M33.469,37.633c-0.472,0-0.921-0.279-1.111-0.744c-0.25-0.612,0.042-1.313,0.656-1.565
	c6.859-2.812,6.939-7.888,6.939-7.938c0-2.052-1.666-3.72-3.713-3.72c-2.048,0-3.716,1.668-3.716,3.72v2.409
	c0,0.663-0.537,1.2-1.199,1.2H26.7c-0.663,0-1.2-0.537-1.2-1.2c0-5.899-1.502-10.303-4.464-13.09
	c-3.682-3.469-8.381-3.223-8.426-3.223l-7.37,0.002c-0.662,0-1.2-0.537-1.2-1.2c0-0.662,0.538-1.2,1.2-1.2h7.298
	c0.163-0.012,5.713-0.298,10.143,3.872c3.25,3.058,4.997,7.643,5.199,13.64h2.245v-1.21c0-3.375,2.743-6.12,6.115-6.12
	c3.37,0,6.112,2.745,6.112,6.12c0,0.272-0.095,6.741-8.43,10.158C33.774,37.604,33.62,37.633,33.469,37.633z"/>
<path fill="#231F20" d="M47.604,48.971c-0.174,0-0.352-0.039-0.519-0.119c-8.479-4.088-9.638-14.881-9.683-15.338
	c-0.066-0.659,0.415-1.246,1.074-1.312c0.653-0.071,1.246,0.416,1.312,1.075c0.012,0.099,1.085,9.917,8.336,13.413
	c0.598,0.287,0.849,1.004,0.562,1.602C48.481,48.721,48.052,48.971,47.604,48.971z"/>
<path fill="#231F20" d="M41.388,64.599l-25.781-0.003c-0.663,0-1.2-0.538-1.2-1.2c0-5.227,2.09-7.96,3.062-8.95v-4.45h-6.185
	c-3.342,0-6.062-2.722-6.062-6.065V33.058H1.2c-0.663,0-1.2-0.537-1.2-1.2v-6.066C0,11.57,11.569,0,25.79,0
	c14.219,0,25.788,11.57,25.788,25.791l-4.135,32.892C47.453,61.877,44.732,64.599,41.388,64.599z M16.849,62.195l24.539,0.003
	c2.021,0,3.665-1.644,3.665-3.665l4.135-32.893C49.178,12.893,38.686,2.4,25.79,2.4C12.893,2.4,2.399,12.893,2.399,25.791v4.867
	h4.023c0.662,0,1.199,0.537,1.199,1.199V43.93c0,2.021,1.644,3.666,3.662,3.666h7.385c0.662,0,1.199,0.537,1.199,1.199v6.176
	c0,0.379-0.179,0.737-0.482,0.962C19.298,56.002,17.18,57.711,16.849,62.195z"/>
</svg>
