<?xml version="1.0" encoding="utf-8"?>
<!-- Generator: Adobe Illustrator 15.0.0, SVG Export Plug-In  -->
<!DOCTYPE svg PUBLIC "-//W3C//DTD SVG 1.1//EN" "http://www.w3.org/Graphics/SVG/1.1/DTD/svg11.dtd" [
	<!ENTITY ns_flows "http://ns.adobe.com/Flows/1.0/">
]>
<svg version="1.1"
	 xmlns="http://www.w3.org/2000/svg" xmlns:xlink="http://www.w3.org/1999/xlink" xmlns:a="http://ns.adobe.com/AdobeSVGViewerExtensions/3.0/"
	 x="0px" y="0px" width="80px" height="120px" viewBox="-10.85 -35.165 80 120"
	 overflow="visible" enable-background="new -10.85 -35.165 80 120" xml:space="preserve">
<defs>
</defs>
<g id="XMLID_2_">
	<g>
		<path fill="#231F20" d="M63.47,58.825c0.16,0.46-0.011,0.97-0.4,1.25l-4.13,3.05l3.99,2.94c0.37,0.18,0.63,0.56,0.63,1.01
			c0,0.62-0.5,1.13-1.12,1.13c-0.01-0.01-0.021-0.01-0.03,0H39.14c1.229-0.021,2.38-0.44,3.3-1.13h19.97l-5.37-3.95l5.37-3.95
			h-17.24l0.141-1.13h17.1C62.89,58.045,63.32,58.365,63.47,58.825z"/>
		<path fill="#231F20" d="M62.41,59.175l-5.37,3.95l5.37,3.95H42.44c0.44-0.32,0.82-0.69,1.15-1.12h15.39l-2.6-1.92
			c-0.29-0.22-0.461-0.55-0.461-0.91s0.171-0.69,0.461-0.91l2.6-1.92H45.03l0.14-1.12H62.41z"/>
		<path fill="#CF9B46" d="M58.98,60.295l-2.6,1.92c-0.29,0.22-0.461,0.55-0.461,0.91s0.171,0.69,0.461,0.91l2.6,1.92H43.59
			c0.71-0.93,1.14-2.07,1.14-3.3l0.3-2.36H58.98z"/>
		<path fill="#231F20" d="M49.99,31.915c0.34,0.24,0.521,0.65,0.47,1.06l-1.01,8.45c-0.05,0.391-0.3,0.73-0.66,0.891
			c-0.149,0.06-0.31,0.1-0.46,0.1c-0.229,0-0.449-0.07-0.649-0.21l-0.351-0.25l0.16-1.26l0.84,0.59l1.021-8.45l-0.811-0.56
			l0.061-0.46c0-0.301-0.01-0.601-0.021-0.891L49.99,31.915z"/>
		<polygon fill="#231F20" points="49.35,32.835 48.33,41.285 47.49,40.695 48.54,32.275 		"/>
		<path fill="#231F20" d="M48.58,30.925c0.011,0.29,0.021,0.59,0.021,0.891l-0.061,0.46l-1.069-0.75c0-0.471-0.021-0.94-0.061-1.41
			L48.58,30.925z"/>
		<path fill="#231F20" d="M48.58,30.925l-1.17-0.81C46.55,18.175,36.59,8.765,24.43,8.765c-2.19,0-4.3,0.3-6.31,0.87l-1.08-0.75
			l0.08-0.12c2.31-0.74,4.76-1.13,7.31-1.13C37.459,7.635,48.11,18.005,48.58,30.925z"/>
		<path fill="#231F20" d="M47.47,31.525l1.069,0.75l-1.05,8.42l-1.04-0.721l0.16-1.26l0.83,0.58l0.71-5.92l-0.8-0.56l0.13-1
			C47.48,31.715,47.48,31.625,47.47,31.525z"/>
		<polygon fill="#FFFFFF" points="48.15,33.375 47.44,39.295 46.61,38.715 47.35,32.815 		"/>
		<polygon fill="#231F20" points="47.49,40.695 47.33,41.955 46.29,41.235 46.45,39.975 		"/>
		<path fill="#231F20" d="M47.47,31.525c0.01,0.1,0.01,0.189,0.01,0.29l-0.13,1l-1.04-0.73l0.05-0.41c0-0.32-0.01-0.64-0.03-0.95
			L47.47,31.525z"/>
		<path fill="#231F20" d="M47.47,31.525l-1.141-0.801c-0.01-0.489-0.05-0.97-0.109-1.449l1.189,0.84
			C47.45,30.585,47.47,31.055,47.47,31.525z"/>
		<path fill="#231F20" d="M47.41,30.115l-1.189-0.84C45.01,18.435,35.7,9.885,24.43,9.885c-1.75,0-3.46,0.21-5.09,0.6l-1.22-0.85
			c2.01-0.57,4.12-0.87,6.31-0.87C36.59,8.765,46.55,18.175,47.41,30.115z"/>
		<polygon fill="#FFFFFF" points="47.35,32.815 46.61,38.715 45.57,37.985 46.31,32.085 		"/>
		<path fill="#231F20" d="M47.33,41.955l-1.319,10.46H46c0-0.41-0.229-0.82-0.63-1.01c-0.12-0.061-0.229-0.11-0.34-0.181l1.26-9.989
			L47.33,41.955z"/>
		<polygon fill="#231F20" points="46.61,38.715 46.45,39.975 45.41,39.245 45.57,37.985 		"/>
		<polygon fill="#231F20" points="45.41,39.245 46.45,39.975 46.29,41.235 45.25,40.505 		"/>
		<path fill="#231F20" d="M46.33,30.725c0.021,0.311,0.03,0.63,0.03,0.95l-0.05,0.41l-17.47-12.21l0.65-0.92L46.33,30.725z"/>
		<path fill="#231F20" d="M46.33,30.725l-16.84-11.77c0.34-0.5,0.24-1.18-0.25-1.54l16.98,11.86
			C46.28,29.755,46.32,30.235,46.33,30.725z"/>
		<path fill="#FFFFFF" d="M46.31,32.085l-0.74,5.9l-5.68-3.971c0.06-0.399,0.06-0.649,0.06-0.699c0-3.171-2.569-5.74-5.729-5.74
			c-0.95,0-1.84,0.229-2.63,0.64l-5.76-4.02l3.01-4.32L46.31,32.085z"/>
		<path fill="#231F20" d="M46.29,41.235l-1.26,9.989c-0.37-0.189-0.72-0.399-1.05-0.63l1.27-10.09L46.29,41.235z"/>
		<path fill="#CF9B46" d="M46.22,29.275l-16.98-11.86c-0.01-0.01-0.02-0.02-0.03-0.03c-0.02-0.01-0.04-0.03-0.06-0.04l-9.81-6.86
			c1.63-0.39,3.34-0.6,5.09-0.6C35.7,9.885,45.01,18.435,46.22,29.275z"/>
		<path fill="#231F20" d="M46.01,52.415l-0.7,5.63H43.04l0.63-4.99c0.24,0.141,0.471,0.261,0.721,0.38
			c0.16,0.08,0.319,0.11,0.49,0.11c0.42,0,0.819-0.229,1.01-0.64c0.08-0.16,0.109-0.32,0.109-0.49H46.01z"/>
		<path fill="#231F20" d="M46,52.415c0,0.17-0.029,0.33-0.109,0.49c-0.19,0.41-0.59,0.64-1.01,0.64c-0.171,0-0.33-0.03-0.49-0.11
			c-0.25-0.119-0.48-0.239-0.721-0.38l0.15-1.22c0.34,0.22,0.69,0.41,1.061,0.59l0.149-1.2c0.11,0.07,0.22,0.12,0.34,0.181
			C45.77,51.595,46,52.005,46,52.415z"/>
		<path fill="#231F20" d="M45.57,37.985l-0.16,1.26l-5.779-4.04c0.14-0.47,0.21-0.87,0.26-1.19L45.57,37.985z"/>
		<path fill="#231F20" d="M45.41,39.245l-0.16,1.26l-6.01-4.2c0.17-0.39,0.29-0.76,0.391-1.1L45.41,39.245z"/>
		<polygon fill="#231F20" points="45.31,58.045 45.169,59.175 42.9,59.175 43.04,58.045 		"/>
		<path fill="#CF9B46" d="M45.25,40.505l-1.27,10.09c-5.11-3.45-6.25-10.45-6.41-11.6c0.79-0.93,1.32-1.86,1.67-2.69L45.25,40.505z"
			/>
		<polygon fill="#231F20" points="45.169,59.175 45.03,60.295 42.76,60.295 42.9,59.175 		"/>
		<path fill="#231F20" d="M45.03,51.225l-0.149,1.2c-0.37-0.18-0.721-0.37-1.061-0.59l0.16-1.24
			C44.31,50.825,44.66,51.035,45.03,51.225z"/>
		<path fill="#CF9B46" d="M45.03,60.295l-0.3,2.36c0,1.229-0.43,2.37-1.14,3.3h-4.46c1.85-0.04,3.35-1.58,3.35-3.44l0.28-2.22H45.03
			z"/>
		<path fill="#231F20" d="M43.98,50.595l-0.16,1.24c-4.96-3.04-6.67-9.12-7.2-11.84c0.351-0.33,0.67-0.66,0.95-1
			C37.73,40.145,38.87,47.145,43.98,50.595z"/>
		<path fill="#231F20" d="M43.82,51.835l-0.15,1.22c-5.479-3.05-7.42-9.189-8.06-12.22c0.37-0.27,0.7-0.56,1.01-0.84
			C37.15,42.715,38.86,48.795,43.82,51.835z"/>
		<path fill="#FFFFFF" d="M43.669,53.055l-0.63,4.99H18.87v-3.54h5.56c0.62,0,1.12-0.5,1.12-1.12s-0.5-1.13-1.12-1.13h-6.68h-6.92
			c-1.9,0-3.44-1.54-3.44-3.43v-1.78c0.02,0,0.04,0,0.06,0c1.98,0,5.62-0.33,7.45-2.58c0.39-0.479,0.32-1.189-0.16-1.58
			c-0.48-0.39-1.19-0.319-1.58,0.16c-1.17,1.44-4,1.75-5.77,1.75v-7.29c0-0.62-0.5-1.13-1.12-1.13H2.5v-4.56
			c0-4.23,1.21-8.19,3.3-11.541h0.6c0.11,0.01,0.23,0.01,0.34,0.01c0.06,0,0.12,0,0.18-0.01h5.15c0.04,0,4.45-0.23,7.9,3.02
			c2.77,2.62,4.18,6.75,4.18,12.28c0,0.62,0.51,1.12,1.13,1.12h4.34c0.12,0,0.23-0.021,0.34-0.061l1.32,4.08
			c-0.03,0.021-0.05,0.03-0.08,0.04c-0.58,0.23-0.85,0.89-0.62,1.46c0.181,0.44,0.601,0.7,1.051,0.7c0.14,0,0.279-0.021,0.42-0.08
			c1.43-0.59,2.6-1.27,3.56-2C36.25,43.865,38.19,50.005,43.669,53.055z M14.01,26.905c0-0.63-0.5-1.13-1.12-1.13H7.36
			c-0.62,0-1.13,0.5-1.13,1.13c0,0.62,0.51,1.12,1.13,1.12h5.53C13.51,28.025,14.01,27.525,14.01,26.905z"/>
		<path fill="#231F20" d="M39.13,65.955h4.46c-0.33,0.43-0.71,0.8-1.15,1.12H14.88c0-5.76,2.87-7.9,2.87-7.9h1.12
			c0,0.36-0.16,0.69-0.45,0.9c-0.02,0.02-0.1,0.09-0.23,0.22h-0.01c-0.03,0.04-0.07,0.07-0.11,0.12c-0.17,0.18-0.37,0.43-0.58,0.76
			c-0.11,0.17-0.22,0.351-0.33,0.561c-0.02,0.029-0.04,0.06-0.05,0.1c-0.13,0.25-0.25,0.52-0.37,0.83
			c-0.14,0.35-0.26,0.74-0.37,1.18c-0.05,0.2-0.1,0.41-0.14,0.641c-0.04,0.21-0.07,0.43-0.1,0.659
			c-0.04,0.261-0.07,0.521-0.09,0.801L39.13,65.955z"/>
		<polygon fill="#231F20" points="43.04,58.045 42.9,59.175 18.87,59.175 18.87,58.045 		"/>
		<path fill="#231F20" d="M42.9,59.175l-0.14,1.12H18.19c0.13-0.13,0.21-0.2,0.23-0.22c0.29-0.21,0.45-0.54,0.45-0.9H42.9z"/>
		<path fill="#CF9B46" d="M42.76,60.295l-0.28,2.22c0,1.86-1.5,3.4-3.35,3.44l-23.09-0.01c0.02-0.28,0.05-0.54,0.09-0.801
			c0.02-0.229,0.06-0.449,0.1-0.659c0.04-0.221,0.08-0.431,0.14-0.641c0.11-0.439,0.23-0.83,0.37-1.18
			c0.12-0.311,0.25-0.58,0.37-0.83c0.01-0.04,0.03-0.07,0.05-0.1c0.12-0.21,0.23-0.4,0.33-0.561c0.21-0.33,0.41-0.58,0.58-0.76
			c0.05-0.05,0.08-0.09,0.12-0.12H42.76z"/>
		<path fill="#231F20" d="M14.88,67.075h27.56c-0.92,0.689-2.07,1.109-3.3,1.13l-24.26-0.01c-0.62,0-1.13-0.5-1.13-1.12
			c0-0.23,0-0.45,0.02-0.67c0-0.141,0.01-0.29,0.02-0.431c0.01-0.22,0.03-0.43,0.05-0.63c0.02-0.27,0.06-0.529,0.1-0.79
			c0.12-0.76,0.28-1.439,0.48-2.04c0.04-0.149,0.09-0.29,0.15-0.43c0.36-1.01,0.8-1.79,1.22-2.38c0.08-0.11,0.16-0.22,0.23-0.32
			c0.22-0.29,0.43-0.52,0.6-0.7c0.26-0.26,0.43-0.39,0.46-0.409c0.19-0.15,0.43-0.23,0.67-0.23h1.12v1.13h-1.12
			C17.75,59.175,14.88,61.315,14.88,67.075z"/>
		<path fill="#231F20" d="M39.95,33.315c0,0.05,0,0.3-0.06,0.699l-1.061-0.739c-0.01-1.25-0.52-2.391-1.35-3.221
			c-0.2-0.21-0.43-0.399-0.68-0.569c-0.12-0.08-0.25-0.16-0.381-0.23c-0.659-0.36-1.409-0.56-2.199-0.56
			c-0.54,0-1.07,0.1-1.551,0.279l-1.079-0.76c0.79-0.41,1.68-0.64,2.63-0.64C37.38,27.575,39.95,30.145,39.95,33.315z"/>
		<path fill="#231F20" d="M38.83,33.275l1.061,0.739c-0.05,0.32-0.12,0.721-0.26,1.19l-0.98-0.69c0.03-0.13,0.06-0.239,0.08-0.35
			c0.02-0.12,0.04-0.23,0.05-0.32c0.05-0.34,0.05-0.529,0.05-0.529C38.83,33.305,38.83,33.285,38.83,33.275z"/>
		<path fill="#231F20" d="M38.65,34.515l0.98,0.69c-0.101,0.34-0.221,0.71-0.391,1.1l-0.95-0.66
			C38.459,35.225,38.57,34.845,38.65,34.515z"/>
		<path fill="#231F20" d="M38.29,35.645l0.95,0.66c-0.35,0.83-0.88,1.761-1.67,2.69c-0.01-0.101-0.02-0.15-0.02-0.16
			c-0.04-0.39-0.271-0.72-0.591-0.88c0.261-0.33,0.48-0.65,0.66-0.97c0.07-0.101,0.13-0.21,0.181-0.311
			C38.01,36.315,38.16,35.975,38.29,35.645z"/>
		<path fill="#231F20" d="M38.83,33.275c0,0.01,0,0.029,0,0.04c0,0,0,0.189-0.05,0.529c-0.01,0.09-0.03,0.2-0.05,0.32
			c-0.021,0.11-0.05,0.22-0.08,0.35l-1-0.689c0.05-0.3,0.05-0.48,0.05-0.521c0-0.319-0.04-0.62-0.13-0.91L38.83,33.275z"/>
		<path fill="#231F20" d="M38.83,33.275l-1.26-0.881c-0.39-1.479-1.75-2.569-3.35-2.569c-0.101,0-0.2,0-0.301,0.02l-1.239-0.87
			c0.479-0.18,1-0.27,1.54-0.27c0.79,0,1.54,0.2,2.199,0.55c0.131,0.07,0.261,0.15,0.381,0.23c0.239,0.17,0.47,0.359,0.68,0.569
			C38.31,30.885,38.82,32.025,38.83,33.275z"/>
		<path fill="#231F20" d="M38.78,33.845c-0.01,0.09-0.03,0.2-0.05,0.32C38.75,34.045,38.77,33.935,38.78,33.845z"/>
		<path fill="#231F20" d="M38.65,34.515c-0.08,0.33-0.19,0.71-0.36,1.13l-0.939-0.659c0.17-0.471,0.25-0.87,0.3-1.16L38.65,34.515z"
			/>
		<path fill="#231F20" d="M38.29,35.645c-0.13,0.33-0.279,0.671-0.489,1.03c-0.051,0.11-0.11,0.21-0.181,0.311
			c-0.18,0.319-0.399,0.64-0.66,0.97c-0.189-0.11-0.409-0.16-0.64-0.13c-0.62,0.06-1.07,0.609-1.01,1.229
			c0,0.05,0.02,0.24,0.07,0.53c-0.961,0.8-2.19,1.57-3.75,2.21l-0.351-1.08c3.98-1.649,5.5-4.11,6.07-5.729L38.29,35.645z"/>
		<path fill="#231F20" d="M37.62,36.985c0.07-0.101,0.13-0.2,0.181-0.311C37.75,36.775,37.69,36.885,37.62,36.985z"/>
		<path fill="#FFFFFF" d="M37.7,33.305c0,0.04,0,0.221-0.05,0.521l-5.1-3.57c0.42-0.229,0.88-0.38,1.369-0.41l3.65,2.55
			C37.66,32.685,37.7,32.985,37.7,33.305z"/>
		<path fill="#FFFFFF" d="M32.55,30.255l5.1,3.57c-0.05,0.29-0.13,0.689-0.3,1.16l-5.72-4C31.89,30.685,32.2,30.445,32.55,30.255z"
			/>
		<path fill="#FFFFFF" d="M37.57,32.395l-3.65-2.55c0.101-0.02,0.2-0.02,0.301-0.02C35.82,29.825,37.18,30.915,37.57,32.395z"/>
		<path fill="#231F20" d="M37.55,38.835c0,0.01,0.01,0.06,0.02,0.16c-0.28,0.34-0.6,0.67-0.95,1c-0.17-0.86-0.22-1.38-0.22-1.38
			c0.2-0.221,0.39-0.44,0.56-0.66C37.28,38.115,37.51,38.445,37.55,38.835z"/>
		<path fill="#231F20" d="M36.8,29.485c0.25,0.17,0.479,0.359,0.68,0.569C37.27,29.845,37.04,29.655,36.8,29.485z"/>
		<path fill="#FFFFFF" d="M31.63,30.985l5.72,4c-0.57,1.619-2.09,4.08-6.07,5.729l-1.32-4.08c0.45-0.13,0.78-0.56,0.78-1.06v-2.26
			C30.74,32.425,31.08,31.595,31.63,30.985z"/>
		<path fill="#231F20" d="M36.959,37.955c-0.17,0.22-0.359,0.439-0.56,0.66c-0.3,0.33-0.64,0.649-1.02,0.97
			c-0.051-0.29-0.07-0.48-0.07-0.53c-0.061-0.62,0.39-1.17,1.01-1.229C36.55,37.795,36.77,37.845,36.959,37.955z"/>
		<path fill="#231F20" d="M36.4,38.615c0,0,0.05,0.52,0.22,1.38c-0.31,0.28-0.64,0.57-1.01,0.84c-0.11-0.52-0.19-0.94-0.229-1.25
			C35.76,39.265,36.1,38.945,36.4,38.615z"/>
		<path fill="#231F20" d="M35.38,39.585c0.039,0.31,0.119,0.73,0.229,1.25c-0.96,0.73-2.13,1.41-3.56,2
			c-0.141,0.06-0.28,0.08-0.42,0.08c-0.45,0-0.87-0.26-1.051-0.7c-0.229-0.57,0.04-1.229,0.62-1.46c0.03-0.01,0.05-0.02,0.08-0.04
			l0.351,1.08C33.19,41.155,34.419,40.385,35.38,39.585z"/>
		<path fill="#231F20" d="M34.22,28.695c0.79,0,1.54,0.199,2.199,0.56c-0.659-0.35-1.409-0.55-2.199-0.55
			c-0.54,0-1.061,0.09-1.54,0.27h-0.011C33.15,28.795,33.68,28.695,34.22,28.695z"/>
		<path fill="#231F20" d="M32.68,28.975l1.239,0.87c-0.489,0.03-0.949,0.181-1.369,0.41l-0.99-0.7c0.149-0.109,0.3-0.21,0.47-0.3
			c0.2-0.11,0.42-0.2,0.64-0.28H32.68z"/>
		<path fill="#231F20" d="M31.59,28.215l1.079,0.76c-0.22,0.07-0.439,0.17-0.64,0.28c-0.17,0.09-0.32,0.19-0.47,0.3
			c-0.01,0-0.01,0-0.01,0l-0.96-0.68C30.9,28.625,31.23,28.395,31.59,28.215z"/>
		<path fill="#231F20" d="M31.56,29.555l0.99,0.7c-0.351,0.19-0.66,0.43-0.92,0.73l-0.921-0.641c0.08-0.1,0.171-0.2,0.261-0.29
			c0.18-0.18,0.37-0.34,0.58-0.5C31.55,29.555,31.55,29.555,31.56,29.555z"/>
		<path fill="#231F20" d="M32.03,29.255c0.2-0.11,0.42-0.21,0.64-0.28C32.45,29.055,32.23,29.145,32.03,29.255z"/>
		<path fill="#231F20" d="M30.709,30.345l0.921,0.641c-0.551,0.609-0.891,1.439-0.891,2.33v2.26c0,0.5-0.33,0.93-0.78,1.06
			l-0.34-1.06v-2.26c0-1.12,0.39-2.141,1.049-2.94C30.69,30.365,30.69,30.354,30.709,30.345z"/>
		<path fill="#231F20" d="M25.83,24.195l5.76,4.02c-0.36,0.18-0.69,0.41-1,0.66l-5.4-3.77L25.83,24.195z"/>
		<path fill="#231F20" d="M30.59,28.875l0.96,0.68c-0.21,0.15-0.41,0.32-0.58,0.5c-0.101,0.09-0.181,0.181-0.271,0.28l-0.92-0.64
			C30.02,29.395,30.29,29.125,30.59,28.875z"/>
		<path fill="#231F20" d="M30.97,30.055c0.17-0.18,0.37-0.35,0.58-0.5C31.34,29.715,31.15,29.875,30.97,30.055z"/>
		<path fill="#231F20" d="M30.97,30.055c-0.09,0.09-0.181,0.19-0.261,0.29l-0.01-0.01C30.79,30.235,30.87,30.145,30.97,30.055z"/>
		<path fill="#231F20" d="M30.709,30.345c-0.02,0.01-0.02,0.021-0.04,0.03c0.011-0.01,0.021-0.03,0.03-0.04L30.709,30.345z"/>
		<path fill="#231F20" d="M30.7,30.335c-0.01,0.01-0.02,0.03-0.03,0.04c-0.66,0.8-1.049,1.82-1.049,2.94v2.26h-4.34
			c0-5.021-1.13-8.51-2.73-10.93l1.07,0.74l1.01,0.71c1.06,2.34,1.64,5.13,1.75,8.351h2.11v-1.13c0-1.37,0.48-2.631,1.29-3.62
			L30.7,30.335z"/>
		<path fill="#231F20" d="M25.19,25.105l5.4,3.77c-0.301,0.25-0.57,0.52-0.811,0.82l-5.15-3.601c-0.07-0.18-0.15-0.35-0.25-0.52
			C24.7,25.545,24.99,25.385,25.19,25.105z"/>
		<path fill="#231F20" d="M29.62,35.575l0.34,1.06c-0.11,0.04-0.22,0.061-0.34,0.061h-4.34c-0.62,0-1.13-0.5-1.13-1.12
			c0-5.53-1.41-9.66-4.18-12.28c-3.45-3.25-7.86-3.02-7.9-3.02H6.92c1.04-0.04,2.02-0.44,2.78-1.12H12c0,0,1.37-0.08,3.23,0.37
			l7.32,5.12c1.6,2.42,2.73,5.91,2.73,10.93H29.62z"/>
		<path fill="#CF9B46" d="M24.63,26.095l5.15,3.601c-0.81,0.989-1.29,2.25-1.29,3.62v1.13h-2.11
			C26.27,31.225,25.69,28.435,24.63,26.095z"/>
		<path fill="#231F20" d="M29.24,17.415c0.49,0.36,0.59,1.04,0.25,1.54l-0.92-0.65l-0.93-0.64c0.35-0.49,1.01-0.63,1.51-0.32
			c0.02,0.01,0.04,0.03,0.06,0.04C29.22,17.395,29.23,17.405,29.24,17.415z"/>
		<polygon fill="#231F20" points="29.49,18.955 28.84,19.875 27.92,19.235 28.57,18.305 		"/>
		<path fill="#231F20" d="M19.34,10.485l9.81,6.86c-0.5-0.31-1.16-0.17-1.51,0.32l-9.71-6.79
			C18.39,10.725,18.86,10.595,19.34,10.485z"/>
		<polygon fill="#231F20" points="28.84,19.875 25.83,24.195 24.9,23.545 27.92,19.235 		"/>
		<polygon fill="#231F20" points="28.57,18.305 27.92,19.235 27,18.585 27.64,17.665 		"/>
		<polygon fill="#231F20" points="27,18.585 27.92,19.235 24.9,23.545 23.98,22.895 		"/>
		<path fill="#231F20" d="M17.93,10.875l9.71,6.79L27,18.585l-10.39-7.26c0.43-0.16,0.87-0.31,1.31-0.45H17.93z"/>
		<path fill="#FFFFFF" d="M27,18.585l-3.02,4.31l-11.25-7.86l2.02-2.89h0.01c0.6-0.31,1.22-0.58,1.85-0.82L27,18.585z"/>
		<polygon fill="#231F20" points="24.9,23.545 25.83,24.195 25.19,25.105 24.26,24.465 24.26,24.455 		"/>
		<path fill="#231F20" d="M24.26,24.465l0.93,0.64c-0.2,0.28-0.49,0.44-0.81,0.47c-0.3-0.62-0.64-1.2-1.03-1.75l0.91,0.63V24.465z"
			/>
		<path fill="#231F20" d="M24.9,23.545l-0.64,0.91l-0.91-0.63c0.01-0.01,0.01-0.01-0.01-0.01l0.64-0.92L24.9,23.545z"/>
		<path fill="#231F20" d="M24.43,52.255c0.62,0,1.12,0.51,1.12,1.13s-0.5,1.12-1.12,1.12h-5.56v-1.12c0-0.62-0.5-1.13-1.12-1.13
			H24.43z"/>
		<path fill="#231F20" d="M24.38,25.575c0.1,0.17,0.18,0.34,0.25,0.52l-1.01-0.71c0.2,0.14,0.42,0.2,0.64,0.2
			C24.3,25.585,24.34,25.585,24.38,25.575z"/>
		<path fill="#231F20" d="M24.38,25.575c-0.04,0.01-0.08,0.01-0.12,0.01c-0.22,0-0.44-0.06-0.64-0.2c-0.51-0.36-0.63-1.06-0.28-1.57
			c0.02,0,0.02,0,0.01,0.01C23.74,24.375,24.08,24.955,24.38,25.575z"/>
		<path fill="#231F20" d="M23.98,22.895l-0.64,0.92c-0.53-0.79-1.15-1.51-1.83-2.16c-1.9-1.78-4.02-2.69-5.77-3.15l-3.65-2.56
			l0.64-0.91L23.98,22.895z"/>
		<path fill="#231F20" d="M23.62,25.385l-1.07-0.74c-2.12-3.22-5.08-4.56-7.32-5.12l-2.1-1.47c0.66,0.05,1.57,0.17,2.61,0.45
			l7.6,5.31C22.99,24.325,23.11,25.025,23.62,25.385z"/>
		<path fill="#231F20" d="M23.34,23.815l-7.6-5.31c1.75,0.46,3.87,1.37,5.77,3.15C22.19,22.305,22.81,23.025,23.34,23.815z"/>
		<path fill="#231F20" d="M22.55,24.645l-7.32-5.12C17.47,20.085,20.43,21.425,22.55,24.645z"/>
		<path fill="#231F20" d="M18.12,9.635l1.22,0.85c-0.48,0.11-0.95,0.24-1.41,0.39h-0.01l-1.15-0.81
			C17.21,9.905,17.66,9.765,18.12,9.635z"/>
		<path fill="#231F20" d="M18.87,54.505v3.54h-1.12c-0.24,0-0.48,0.08-0.67,0.23c-0.03,0.02-0.2,0.149-0.46,0.409v-4.18h-5.79
			c-3.14,0-5.69-2.55-5.69-5.68v-2.94c0,0.57,0.45,1.061,1.03,1.11c0.15,0.02,0.6,0.05,1.22,0.05v1.78c0,1.89,1.54,3.43,3.44,3.43
			h6.92c-0.62,0-1.13,0.51-1.13,1.13s0.51,1.12,1.13,1.12H18.87z"/>
		<path fill="#231F20" d="M18.87,53.385v1.12h-1.12c-0.62,0-1.13-0.5-1.13-1.12s0.51-1.13,1.13-1.13S18.87,52.765,18.87,53.385z"/>
		<path fill="#231F20" d="M17.14,1.005c2,1.4,2.49,4.17,1.09,6.17l-1.11,1.59c-0.06,0.01-0.11,0.03-0.17,0.06l-0.84-0.59l1.2-1.71
			c1.04-1.49,0.67-3.56-0.82-4.6c-1.14-0.79-2.61-0.77-3.71-0.04c-0.06-0.06-0.12-0.11-0.18-0.15c-0.28-0.19-0.58-0.33-0.9-0.43
			C13.19,0.055,15.5-0.135,17.14,1.005z"/>
		<path fill="#CF9B46" d="M18.19,60.295c-0.04,0.03-0.07,0.07-0.12,0.12c0.04-0.05,0.08-0.08,0.11-0.12H18.19z"/>
		<path fill="#231F20" d="M17.04,8.885l1.08,0.75c-0.46,0.13-0.91,0.27-1.35,0.43l-0.38-0.26L17.04,8.885z"/>
		<path fill="#231F20" d="M16.77,10.065l1.15,0.81c-0.44,0.14-0.88,0.29-1.31,0.45l-0.86-0.6l0.25-0.37h0.01
			C16.26,10.255,16.51,10.155,16.77,10.065z"/>
		<path fill="#231F20" d="M16.49,1.925c1.49,1.04,1.86,3.11,0.82,4.6l-1.2,1.71c-0.24-0.17-0.54-0.24-0.84-0.19
			c-0.29,0.05-0.55,0.22-0.72,0.46l1.83-2.62c0.69-0.99,0.45-2.35-0.53-3.04c-0.37-0.25-0.8-0.39-1.24-0.39
			c-0.38,0-0.75,0.1-1.07,0.28c-0.2-0.32-0.45-0.61-0.76-0.85C13.88,1.155,15.35,1.135,16.49,1.925z"/>
		<path fill="#CF9B46" d="M17.49,61.175c-0.1,0.16-0.21,0.351-0.33,0.561C17.27,61.525,17.38,61.345,17.49,61.175z"/>
		<path fill="#231F20" d="M17.12,8.765l-0.08,0.12l-0.09-0.06C17.01,8.795,17.06,8.775,17.12,8.765z"/>
		<path fill="#CF9B46" d="M16.74,62.665c0.12-0.311,0.24-0.58,0.37-0.83C16.99,62.085,16.86,62.354,16.74,62.665z"/>
		<path fill="#231F20" d="M17.04,8.885l-0.65,0.92l-0.73-0.52c0.42-0.17,0.85-0.33,1.29-0.46L17.04,8.885z"/>
		<path fill="#231F20" d="M16.11,8.235l0.84,0.59c-0.44,0.13-0.87,0.29-1.29,0.46l-0.19-0.13L16.11,8.235z"/>
		<path fill="#231F20" d="M16.39,9.805l0.38,0.26c-0.26,0.09-0.51,0.19-0.76,0.29L16.39,9.805z"/>
		<path fill="#FFFFFF" d="M15.75,10.725l0.86,0.6c-0.63,0.24-1.25,0.51-1.85,0.82L15.75,10.725z"/>
		<path fill="#CF9B46" d="M15.85,2.845c0.98,0.69,1.22,2.05,0.53,3.04l-1.83,2.62l-1.32,1.88v0.01c-1.75,0.91-3.37,2.03-4.83,3.34
			l5.04-7.22c0.82-1.16,0.81-2.65,0.1-3.78c0.32-0.18,0.69-0.28,1.07-0.28C15.05,2.455,15.48,2.595,15.85,2.845z"/>
		<path fill="#231F20" d="M15.66,9.285l0.73,0.52l-0.38,0.55H16c-0.68,0.27-1.35,0.57-2,0.9l1.27-1.82h0.01
			C15.41,9.375,15.53,9.325,15.66,9.285z"/>
		<path fill="#CF9B46" d="M16.37,63.845c-0.06,0.21-0.1,0.42-0.14,0.641C16.27,64.255,16.32,64.045,16.37,63.845z"/>
		<path fill="#CF9B46" d="M16.23,64.485c-0.04,0.21-0.08,0.43-0.1,0.659C16.16,64.915,16.19,64.695,16.23,64.485z"/>
		<path fill="#231F20" d="M16.11,8.235l-0.64,0.92l-0.19,0.28h-0.01c-0.7,0.29-1.38,0.6-2.04,0.95l1.32-1.88
			c0.17-0.24,0.43-0.41,0.72-0.46C15.57,7.995,15.87,8.065,16.11,8.235z"/>
		<path fill="#231F20" d="M16.02,59.385c-0.07,0.101-0.15,0.21-0.23,0.32C15.86,59.595,15.94,59.485,16.02,59.385z"/>
		<path fill="#231F20" d="M16,10.355l-0.25,0.37l-0.99,1.42h-0.01c-0.79,0.38-1.55,0.82-2.28,1.3l1.53-2.19
			C14.65,10.925,15.32,10.625,16,10.355z"/>
		<path fill="#231F20" d="M12.09,15.945l3.65,2.56c-1.04-0.28-1.95-0.4-2.61-0.45l-1.69-1.18L12.09,15.945z"/>
		<path fill="#231F20" d="M15.66,9.285c-0.13,0.04-0.25,0.09-0.38,0.15l0.19-0.28L15.66,9.285z"/>
		<path fill="#231F20" d="M15.27,9.435L14,11.255c-0.81,0.41-1.58,0.86-2.33,1.37l1.56-2.23v-0.01
			C13.89,10.035,14.57,9.725,15.27,9.435z"/>
		<path fill="#231F20" d="M13.13,18.055l2.1,1.47c-1.86-0.45-3.23-0.37-3.23-0.37H9.7c0.26-0.22,0.48-0.48,0.68-0.76l0.26-0.37H12
			C12.04,18.025,12.46,18.005,13.13,18.055z"/>
		<path fill="#231F20" d="M14.74,42.885c0.48,0.391,0.55,1.101,0.16,1.58c-1.83,2.25-5.47,2.58-7.45,2.58c-0.02,0-0.04,0-0.06,0
			v-2.25c1.77,0,4.6-0.31,5.77-1.75C13.55,42.565,14.26,42.495,14.74,42.885z"/>
		<path fill="#231F20" d="M14.75,12.145l-2.02,2.89l-0.64,0.91l-0.92-0.64l1.3-1.85v-0.01C13.2,12.965,13.96,12.525,14.75,12.145z"
			/>
		<path fill="#231F20" d="M14.57,62.085c-0.06,0.14-0.11,0.28-0.15,0.43C14.47,62.365,14.51,62.225,14.57,62.085z"/>
		<path fill="#231F20" d="M14,11.255l-1.53,2.19v0.01c-0.85,0.54-1.66,1.15-2.42,1.82c0.01-0.21,0.07-0.42,0.2-0.61l1.42-2.03v-0.01
			C12.42,12.115,13.19,11.665,14,11.255z"/>
		<path fill="#231F20" d="M13.94,64.555c-0.04,0.261-0.08,0.521-0.1,0.79C13.86,65.075,13.9,64.805,13.94,64.555z"/>
		<path fill="#231F20" d="M13.79,65.975c-0.01,0.141-0.02,0.29-0.02,0.431C13.77,66.255,13.78,66.115,13.79,65.975z"/>
		<path fill="#231F20" d="M13.54,2.735c0.71,1.13,0.72,2.62-0.1,3.78l-5.04,7.22c-0.5,0.43-0.97,0.89-1.42,1.37
			c-0.01,0-0.02,0-0.02,0.01c-0.49,0.24-1.03,0.38-1.59,0.38c-0.25,0-0.5-0.03-0.74-0.09c0.05-0.28,0.16-0.54,0.34-0.79l0.18-0.26
			c0.8,0.08,1.62-0.26,2.11-0.96l5.26-7.53c0.49-0.7,0.53-1.59,0.18-2.32l0.11-0.16C13,3.115,13.25,2.885,13.54,2.735z"/>
		<path fill="#CF9B46" d="M13.23,10.395l-1.56,2.23v0.01c-2.16,1.41-4.06,3.21-5.62,5.27c-0.19-0.05-0.37-0.14-0.54-0.26
			c-0.15-0.11-0.29-0.23-0.4-0.36c0.58-0.76,1.19-1.49,1.85-2.17c0-0.01,0.01-0.01,0.02-0.01c0.47-0.26,0.89-0.62,1.21-1.07
			l0.21-0.3C9.86,12.425,11.48,11.305,13.23,10.395z"/>
		<path fill="#CF9B46" d="M11.44,16.875l1.69,1.18c-0.67-0.05-1.09-0.03-1.13-0.03h-1.36L11.44,16.875z"/>
		<path fill="#231F20" d="M12.89,25.775c0.62,0,1.12,0.5,1.12,1.13c0,0.62-0.5,1.12-1.12,1.12H7.36c-0.62,0-1.13-0.5-1.13-1.12
			c0-0.63,0.51-1.13,1.13-1.13H12.89z"/>
		<path fill="#231F20" d="M13.54,2.735c-0.29,0.15-0.54,0.38-0.73,0.65l-0.11,0.16c-0.16-0.34-0.41-0.65-0.74-0.88
			c0.23-0.32,0.51-0.58,0.82-0.78C13.09,2.125,13.34,2.415,13.54,2.735z"/>
		<path fill="#231F20" d="M12.7,3.545c0.35,0.73,0.31,1.62-0.18,2.32l-5.26,7.53c-0.49,0.7-1.31,1.04-2.11,0.96l0.96-1.37
			c0.09-0.07,0.17-0.15,0.23-0.24l5.26-7.52c0.07-0.11,0.13-0.22,0.17-0.34L12.7,3.545z"/>
		<path fill="#231F20" d="M12.6,1.735c0.06,0.04,0.12,0.09,0.18,0.15c-0.31,0.2-0.59,0.46-0.82,0.78c0-0.01-0.01-0.01-0.01-0.01
			c-0.33-0.23-0.71-0.36-1.09-0.4l0.11-0.16c0.21-0.3,0.46-0.56,0.73-0.79C12.02,1.405,12.32,1.545,12.6,1.735z"/>
		<path fill="#231F20" d="M12.7,3.545l-0.93,1.34c0.13-0.48-0.04-1.01-0.46-1.31l0.58-0.83c0.02-0.03,0.04-0.06,0.07-0.08
			C12.29,2.895,12.54,3.205,12.7,3.545z"/>
		<path fill="#231F20" d="M12.47,13.455l-1.3,1.85l-0.65,0.93c-0.32-0.23-0.48-0.59-0.47-0.96
			C10.81,14.605,11.62,13.995,12.47,13.455z"/>
		
			<rect x="10.738" y="15.529" transform="matrix(0.5727 -0.8197 0.8197 0.5727 -8.3593 16.1416)" fill="#231F20" width="1.135" height="1.121"/>
		<path fill="#231F20" d="M11.95,2.655c0,0,0.01,0,0.01,0.01c-0.03,0.02-0.05,0.05-0.07,0.08l-0.58,0.83
			c-0.2-0.13-0.43-0.21-0.67-0.21c-0.28,0-0.54,0.1-0.75,0.27l0.97-1.38C11.24,2.295,11.62,2.425,11.95,2.655z"/>
		<path fill="#FFFFFF" d="M11.31,3.575c0.42,0.3,0.59,0.83,0.46,1.31l-5.66,8.1c-0.4,0.3-0.99,0.34-1.41,0.05L11.31,3.575z"/>
		<path fill="#FFFFFF" d="M6.11,12.985l5.66-8.1c-0.04,0.12-0.1,0.23-0.17,0.34l-5.26,7.52C6.28,12.835,6.2,12.915,6.11,12.985z"/>
		<path fill="#CF9B46" d="M11.67,12.635l-1.42,2.03l-0.83,1.18c-0.68,0.63-1.31,1.31-1.91,2.03c0,0.01,0,0.01-0.01,0.01
			c-0.46,0.16-0.98,0.18-1.45,0.02C7.61,15.845,9.51,14.045,11.67,12.635z"/>
		<path fill="#231F20" d="M11.44,16.875l-0.8,1.15h-1.4c0.08-0.09,0.15-0.18,0.22-0.27l1.06-1.52L11.44,16.875z"/>
		<path fill="#231F20" d="M11.7,1.305c-0.27,0.23-0.52,0.49-0.73,0.79l-0.11,0.16c-0.8-0.08-1.62,0.26-2.12,0.97l-5.26,7.52
			c-0.49,0.7-0.53,1.6-0.18,2.32l-0.18,0.26c-0.18,0.27-0.34,0.55-0.45,0.84c-0.35-0.43-0.57-0.94-0.67-1.5
			c-0.16-0.9,0.04-1.81,0.56-2.56l5.26-7.52C8.67,1.375,10.31,0.885,11.7,1.305z"/>
		<path fill="#FFFFFF" d="M11.31,3.575l-6.61,9.46c-0.26-0.18-0.43-0.45-0.49-0.76c-0.03-0.19-0.02-0.38,0.04-0.56
			c0,0,0-0.01,0.01-0.02l5.63-8.06c0.21-0.17,0.47-0.27,0.75-0.27C10.88,3.365,11.11,3.445,11.31,3.575z"/>
		<path fill="#231F20" d="M10.86,2.255l-0.97,1.38c-0.09,0.06-0.17,0.15-0.23,0.24l-5.25,7.52c-0.07,0.09-0.12,0.2-0.15,0.3
			c-0.01,0.01-0.01,0.02-0.01,0.02l-0.95,1.35c-0.35-0.72-0.31-1.62,0.18-2.32l5.26-7.52C9.24,2.515,10.06,2.175,10.86,2.255z"/>
		<path fill="#231F20" d="M10.64,18.025l-0.26,0.37c-0.2,0.28-0.42,0.54-0.68,0.76H6.75c0.93,0,1.86-0.39,2.49-1.13H10.64z"/>
		<path fill="#231F20" d="M10.52,16.235l-1.06,1.52c-0.07,0.09-0.14,0.18-0.22,0.27H7.39c0.04-0.05,0.08-0.1,0.11-0.14
			c0.01,0,0.01,0,0.01-0.01c0.41-0.14,0.78-0.4,1.03-0.77l0.88-1.26c0.2-0.2,0.41-0.39,0.63-0.57
			C10.04,15.645,10.2,16.005,10.52,16.235z"/>
		<path fill="#231F20" d="M9.42,15.845l0.83-1.18c-0.13,0.19-0.19,0.4-0.2,0.61C9.83,15.455,9.62,15.645,9.42,15.845z"/>
		<path fill="#FFFFFF" d="M9.89,3.635l-5.63,8.06c0.03-0.1,0.08-0.21,0.15-0.3l5.25-7.52C9.72,3.785,9.8,3.695,9.89,3.635z"/>
		<path fill="#231F20" d="M6.75,19.155H9.7c-0.76,0.68-1.74,1.08-2.78,1.12H6.4c-0.19-0.02-0.37-0.04-0.55-0.09
			c0.21-0.35,0.44-0.69,0.69-1.03H6.75z"/>
		<path fill="#CF9B46" d="M9.42,15.845l-0.88,1.26c-0.25,0.37-0.62,0.63-1.03,0.77C8.11,17.155,8.74,16.475,9.42,15.845z"/>
		<path fill="#231F20" d="M7.39,18.025h1.85c-0.63,0.74-1.56,1.13-2.49,1.13c-0.07,0-0.13,0-0.2-0.02
			C6.82,18.755,7.1,18.385,7.39,18.025z"/>
		<path fill="#231F20" d="M8.4,13.735l-0.21,0.3c-0.32,0.45-0.74,0.81-1.21,1.07C7.43,14.625,7.9,14.165,8.4,13.735z"/>
		<path fill="#231F20" d="M7.5,17.885c-0.03,0.04-0.07,0.09-0.11,0.14H5.96c0.02-0.04,0.05-0.08,0.09-0.12
			C6.52,18.065,7.04,18.045,7.5,17.885z"/>
		<path fill="#231F20" d="M7.39,44.795v2.25c-0.62,0-1.07-0.03-1.22-0.05c-0.58-0.05-1.03-0.54-1.03-1.11
			c0-0.04,0.01-0.069,0.01-0.109c0.05-0.61,0.62-1.061,1.22-1.021C6.63,44.775,6.99,44.795,7.39,44.795z"/>
		<path fill="#231F20" d="M7.39,37.505v7.29c-0.4,0-0.76-0.02-1.02-0.04c-0.6-0.04-1.17,0.41-1.22,1.021
			c0,0.04-0.01,0.069-0.01,0.109v-7.26H1.37c-0.62,0-1.12-0.5-1.12-1.12v-5.689c0-4.631,1.31-8.96,3.57-12.641
			c0.07,0.07,0.15,0.13,0.23,0.18c0.09,0.52,0.56,0.92,1.11,0.92H5.8c-2.09,3.35-3.3,7.31-3.3,11.541v4.56h3.77
			C6.89,36.375,7.39,36.885,7.39,37.505z"/>
		<path fill="#231F20" d="M5.96,18.025h1.43c-0.29,0.36-0.57,0.73-0.84,1.11c-0.4-0.01-0.8-0.11-1.18-0.28
			C5.55,18.575,5.75,18.295,5.96,18.025z"/>
		<path fill="#231F20" d="M6.92,20.275c-0.06,0.01-0.12,0.01-0.18,0.01c-0.11,0-0.23,0-0.34-0.01H6.92z"/>
		<path fill="#231F20" d="M6.75,19.155H6.54c0-0.01,0-0.01,0.01-0.02C6.62,19.155,6.68,19.155,6.75,19.155z"/>
		<path fill="#231F20" d="M6.55,19.135c-0.01,0.01-0.01,0.01-0.01,0.02H5.16c0.07-0.1,0.14-0.2,0.21-0.3
			C5.75,19.025,6.15,19.125,6.55,19.135z"/>
		<path fill="#231F20" d="M5.16,19.155h1.38c-0.25,0.34-0.48,0.68-0.69,1.03c-0.59-0.11-1.14-0.35-1.63-0.69
			c-0.06-0.04-0.11-0.08-0.17-0.14c-0.01-0.07-0.02-0.13-0.02-0.2c0-0.16,0.03-0.3,0.09-0.44c0-0.01,0.01-0.02,0.02-0.03
			c0.05-0.09,0.11-0.17,0.16-0.26c0.06-0.07,0.12-0.13,0.19-0.17c0.11,0.12,0.24,0.22,0.37,0.31c0.16,0.11,0.34,0.21,0.51,0.29
			C5.3,18.955,5.23,19.055,5.16,19.155z"/>
		<path fill="#231F20" d="M6.4,20.275H5.8c0.01-0.03,0.03-0.06,0.05-0.09C6.03,20.235,6.21,20.255,6.4,20.275z"/>
		<path fill="#231F20" d="M6.11,12.985l-0.96,1.37c-0.39-0.03-0.76-0.17-1.1-0.4l0.65-0.92C5.12,13.325,5.71,13.285,6.11,12.985z"/>
		<path fill="#231F20" d="M6.05,17.905c-0.04,0.04-0.07,0.08-0.09,0.12h-0.8c-0.25,0-0.48,0.08-0.67,0.23
			c-0.01,0-0.03-0.01-0.04-0.04c0.21-0.31,0.43-0.62,0.66-0.93c0.11,0.13,0.25,0.25,0.4,0.36C5.68,17.765,5.86,17.855,6.05,17.905z"
			/>
		<path fill="#231F20" d="M5.96,18.025c-0.21,0.27-0.41,0.55-0.59,0.83c-0.17-0.08-0.35-0.18-0.51-0.29
			c-0.13-0.09-0.26-0.19-0.37-0.31c0.19-0.15,0.42-0.23,0.67-0.23H5.96z"/>
		<path fill="#231F20" d="M5.85,20.185c-0.02,0.03-0.04,0.06-0.05,0.09H5.16c-0.55,0-1.02-0.4-1.11-0.92
			c0.06,0.06,0.11,0.1,0.17,0.14C4.71,19.835,5.26,20.075,5.85,20.185z"/>
		<path fill="#CF9B46" d="M5.37,15.495c0.56,0,1.1-0.14,1.59-0.38c-0.66,0.68-1.27,1.41-1.85,2.17c-0.45-0.52-0.63-1.22-0.48-1.88
			C4.87,15.465,5.12,15.495,5.37,15.495z"/>
		<path fill="#231F20" d="M5.15,14.355l-0.18,0.26c-0.18,0.25-0.29,0.51-0.34,0.79c-0.37-0.07-0.73-0.21-1.05-0.42
			c0.09-0.36,0.25-0.7,0.47-1.02v-0.01C4.39,14.185,4.76,14.325,5.15,14.355z"/>
		<path fill="#231F20" d="M5.11,17.285c-0.23,0.31-0.45,0.62-0.66,0.93c-0.87-0.83-1.19-2.08-0.87-3.23
			c0.32,0.21,0.68,0.35,1.05,0.42C4.48,16.065,4.66,16.765,5.11,17.285z"/>
		<path fill="#231F20" d="M4.7,13.035l-0.65,0.92c-0.34-0.23-0.59-0.54-0.75-0.89l0.95-1.35c-0.06,0.18-0.07,0.37-0.04,0.56
			C4.27,12.585,4.44,12.855,4.7,13.035z"/>
		<path fill="#231F20" d="M4.45,18.215c0.01,0.03,0.03,0.04,0.04,0.04c-0.07,0.04-0.13,0.1-0.19,0.17
			C4.35,18.355,4.4,18.285,4.45,18.215z"/>
		<path fill="#231F20" d="M4.45,18.215c-0.05,0.07-0.1,0.14-0.15,0.21c-0.07,0.08-0.12,0.17-0.16,0.26
			c-0.01,0.01-0.02,0.02-0.02,0.03c-0.1,0.15-0.2,0.31-0.3,0.46c-1.42-1.26-1.87-3.29-1.15-5.01c0.2,0.27,0.45,0.52,0.74,0.72
			c0.05,0.04,0.11,0.07,0.17,0.1C3.26,16.135,3.58,17.385,4.45,18.215z"/>
		<path fill="#231F20" d="M4.3,18.425c-0.05,0.09-0.11,0.17-0.16,0.26C4.18,18.595,4.23,18.505,4.3,18.425z"/>
		<path fill="#231F20" d="M3.82,19.175c0.1-0.15,0.2-0.31,0.3-0.46c-0.06,0.14-0.09,0.28-0.09,0.44c0,0.07,0.01,0.13,0.02,0.2
			C3.97,19.305,3.89,19.245,3.82,19.175z"/>
		<path fill="#231F20" d="M4.05,13.955v0.01c-0.22,0.32-0.38,0.66-0.47,1.02c-0.06-0.03-0.12-0.06-0.17-0.1
			c-0.29-0.2-0.54-0.45-0.74-0.72c0.11-0.29,0.27-0.57,0.45-0.84l0.18-0.26C3.46,13.415,3.71,13.725,4.05,13.955z"/>
	</g>
	<g>
	</g>
</g>
</svg>
