<?xml version="1.0" encoding="utf-8"?>
<!-- Generator: Adobe Illustrator 15.0.0, SVG Export Plug-In  -->
<!DOCTYPE svg PUBLIC "-//W3C//DTD SVG 1.1//EN" "http://www.w3.org/Graphics/SVG/1.1/DTD/svg11.dtd" [
	<!ENTITY ns_flows "http://ns.adobe.com/Flows/1.0/">
]>
<svg version="1.1"
	 xmlns="http://www.w3.org/2000/svg" xmlns:xlink="http://www.w3.org/1999/xlink" xmlns:a="http://ns.adobe.com/AdobeSVGViewerExtensions/3.0/"
	 x="0px" y="0px" width="78px" height="86px" viewBox="0 0 78 86" overflow="visible" enable-background="new 0 0 78 86"
	 xml:space="preserve">
<defs>
</defs>
<path fill="#9F9F9F" d="M17.35,20.925c0.023,0.023,0.03,0.045,0.003,0.073l-0.547,0.56L17.254,22l0.419-0.428
	c0.02-0.025,0.048-0.025,0.075,0l0.22,0.217c0.025,0.025,0.025,0.053,0.003,0.074l-0.419,0.43l0.454,0.442l0.547-0.561
	c0.028-0.027,0.048-0.025,0.073,0l0.222,0.22c0.025,0.022,0.03,0.043,0,0.071l-0.807,0.826c-0.02,0.021-0.045,0.021-0.07-0.004
	l-1.72-1.685c-0.025-0.023-0.025-0.051-0.005-0.071l0.807-0.824c0.03-0.028,0.05-0.023,0.07,0L17.35,20.925z"/>
<path fill="#9F9F9F" d="M20.435,20.916c0.043,0.02,0.05,0.055,0.013,0.09l-0.243,0.213c-0.025,0.025-0.05,0.029-0.08,0.014
	l-0.734-0.368l0.28,0.77c0.01,0.033,0,0.057-0.026,0.083l-0.241,0.214c-0.041,0.033-0.071,0.017-0.086-0.028l-0.429-1.23
	l-1.125-0.55c-0.045-0.02-0.055-0.056-0.015-0.091l0.232-0.207c0.028-0.022,0.056-0.029,0.086-0.015l0.714,0.363l-0.275-0.751
	c-0.013-0.03,0-0.058,0.022-0.081l0.238-0.209c0.037-0.033,0.067-0.02,0.083,0.025l0.408,1.188L20.435,20.916z"/>
<path fill="#9F9F9F" d="M19.555,18.542c-0.02-0.024-0.016-0.051,0.01-0.068l0.602-0.459c0.238-0.182,0.459-0.149,0.639,0.085
	l0.464,0.614c0.179,0.234,0.151,0.455-0.088,0.636l-0.301,0.231l0.479,0.633c0.021,0.025,0.021,0.048-0.007,0.07l-0.262,0.197
	c-0.026,0.02-0.048,0.015-0.073-0.009L19.555,18.542z M20.851,19.08c0.065-0.051,0.071-0.113,0.023-0.174l-0.358-0.472
	c-0.048-0.065-0.109-0.079-0.174-0.025l-0.222,0.167l0.509,0.673L20.851,19.08z"/>
<path fill="#9F9F9F" d="M22.788,18.736l0.626-0.413c0.027-0.018,0.055-0.011,0.07,0.015l0.171,0.262
	c0.021,0.029,0.015,0.05-0.015,0.072l-0.94,0.615c-0.023,0.019-0.048,0.014-0.069-0.01l-1.326-2.018
	c-0.018-0.025-0.01-0.053,0.015-0.071l0.272-0.182c0.031-0.017,0.053-0.01,0.071,0.015L22.788,18.736z"/>
<path fill="#9F9F9F" d="M23.222,16.492c-0.149-0.257-0.089-0.471,0.168-0.617l0.306-0.174c0.257-0.152,0.471-0.094,0.62,0.166
	l0.804,1.399c0.149,0.257,0.089,0.472-0.168,0.62l-0.306,0.177c-0.257,0.147-0.471,0.089-0.617-0.169L23.222,16.492z M24.679,17.572
	c0.076-0.041,0.091-0.096,0.048-0.172l-0.724-1.262c-0.04-0.074-0.1-0.089-0.174-0.049l-0.159,0.092
	c-0.07,0.041-0.085,0.1-0.045,0.174l0.726,1.262c0.043,0.076,0.101,0.086,0.172,0.045L24.679,17.572z"/>
<path fill="#9F9F9F" d="M26.598,15.592c0.094,0.191,0.081,0.351-0.028,0.476l0.555,0.654c0.026,0.028,0.015,0.053-0.015,0.068
	l-0.297,0.141c-0.028,0.015-0.048,0.01-0.066-0.015l-0.54-0.631l-0.197,0.094l0.349,0.718c0.01,0.028,0.002,0.056-0.026,0.069
	l-0.297,0.14c-0.028,0.014-0.053,0.006-0.066-0.022l-1.051-2.188c-0.015-0.032-0.008-0.057,0.022-0.069l0.714-0.344
	c0.27-0.128,0.482-0.052,0.608,0.215L26.598,15.592z M26.114,15.867c0.073-0.035,0.093-0.096,0.058-0.166l-0.257-0.541
	c-0.035-0.07-0.093-0.09-0.169-0.055l-0.28,0.133l0.368,0.766L26.114,15.867z"/>
<path fill="#9F9F9F" d="M28.25,13.98c0.01,0.03,0.007,0.056-0.028,0.07l-0.734,0.291l0.232,0.587l0.56-0.222
	c0.031-0.012,0.055-0.001,0.068,0.031l0.114,0.29c0.015,0.033,0.005,0.058-0.026,0.072l-0.56,0.223l0.238,0.59l0.731-0.29
	c0.035-0.017,0.055-0.005,0.066,0.028l0.115,0.293c0.016,0.029,0.011,0.05-0.027,0.064l-1.08,0.43c-0.027,0.015-0.052,0-0.062-0.028
	l-0.899-2.257c-0.009-0.031,0-0.056,0.026-0.067l1.084-0.427c0.036-0.014,0.051,0,0.066,0.029L28.25,13.98z"/>
<path fill="#9F9F9F" d="M30.572,14.152c-0.012-0.041,0.005-0.068,0.043-0.076l0.479-0.136c0.04-0.013,0.066,0.003,0.076,0.042
	l0.081,0.281c0.009,0.039-0.006,0.065-0.043,0.076l-0.482,0.135c-0.04,0.01-0.066-0.005-0.076-0.045L30.572,14.152z"/>
<path fill="#9F9F9F" d="M33.052,12.31c-0.005-0.029,0.007-0.053,0.04-0.057l0.749-0.129c0.295-0.052,0.477,0.08,0.527,0.373
	l0.278,1.594c0.05,0.293-0.081,0.475-0.374,0.525l-0.746,0.127c-0.036,0.008-0.056-0.006-0.061-0.039L33.052,12.31z M34.116,14.222
	c0.078-0.016,0.116-0.065,0.101-0.146l-0.245-1.42c-0.012-0.086-0.065-0.123-0.144-0.106l-0.287,0.048l0.287,1.669L34.116,14.222z"
	/>
<path fill="#9F9F9F" d="M36.587,13.022c0.02,0.206-0.045,0.353-0.189,0.437l0.3,0.799c0.015,0.041-0.005,0.06-0.038,0.062
	l-0.33,0.031c-0.03,0.008-0.045-0.009-0.056-0.038l-0.29-0.776l-0.214,0.022l0.078,0.79c0.003,0.03-0.013,0.055-0.048,0.055
	l-0.322,0.035c-0.036,0.002-0.056-0.015-0.056-0.045l-0.242-2.411c-0.005-0.032,0.012-0.054,0.046-0.056l0.786-0.08
	c0.295-0.031,0.469,0.111,0.5,0.409L36.587,13.022z M36.037,13.113c0.081-0.008,0.121-0.056,0.111-0.137l-0.055-0.59
	c-0.01-0.085-0.056-0.121-0.141-0.115l-0.31,0.03l0.085,0.842L36.037,13.113z"/>
<path fill="#9F9F9F" d="M38.658,12.066c0,0.03-0.01,0.053-0.048,0.056l-0.792,0.022l0.02,0.631l0.6-0.016
	c0.036-0.002,0.053,0.018,0.053,0.051l0.01,0.313c0,0.035-0.017,0.055-0.048,0.058l-0.604,0.018l0.017,0.635l0.79-0.02
	c0.04,0,0.05,0.016,0.055,0.051l0.005,0.312c0.003,0.035-0.01,0.053-0.045,0.053l-1.166,0.033c-0.03,0-0.048-0.015-0.048-0.049
	l-0.07-2.427c-0.003-0.032,0.018-0.051,0.048-0.051l1.16-0.035c0.04,0,0.053,0.017,0.053,0.047L38.658,12.066z"/>
<path fill="#9F9F9F" d="M40.587,14.272c-0.03,0-0.046-0.017-0.051-0.044l-0.065-0.463l-0.56-0.022l-0.104,0.453
	c-0.01,0.026-0.027,0.043-0.055,0.041l-0.337-0.015c-0.032,0-0.045-0.02-0.037-0.055l0.624-2.392c0.01-0.03,0.025-0.045,0.057-0.04
	l0.438,0.016c0.026,0.004,0.045,0.015,0.051,0.047l0.419,2.439c0.006,0.035-0.011,0.053-0.048,0.051L40.587,14.272z M40.252,12.292
	l-0.249,1.088l0.401,0.015L40.252,12.292z"/>
<path fill="#9F9F9F" d="M43.639,12.029c0.039,0.004,0.062,0.029,0.057,0.07l-0.291,2.385c-0.004,0.043-0.029,0.061-0.069,0.057
	l-0.29-0.035c-0.04-0.006-0.062-0.032-0.062-0.072l0.179-1.412h-0.024l-0.482,1.377c-0.014,0.04-0.036,0.056-0.071,0.05
	l-0.156-0.018c-0.038-0.007-0.058-0.027-0.062-0.068l-0.139-1.457h-0.021l-0.172,1.412c-0.006,0.041-0.03,0.061-0.07,0.056
	l-0.29-0.035c-0.043-0.005-0.063-0.031-0.056-0.072l0.289-2.384c0.006-0.041,0.031-0.061,0.07-0.057l0.414,0.051
	c0.036,0.006,0.057,0.025,0.064,0.066l0.154,1.604l0.541-1.518c0.016-0.039,0.035-0.057,0.074-0.051L43.639,12.029z"/>
<path fill="#9F9F9F" d="M45.631,13.677c0.01-0.043,0.035-0.058,0.075-0.047l0.487,0.113c0.037,0.01,0.056,0.036,0.045,0.076
	l-0.068,0.284c-0.007,0.039-0.031,0.054-0.072,0.043l-0.486-0.111c-0.036-0.01-0.057-0.035-0.049-0.075L45.631,13.677z"/>
<path fill="#9F9F9F" d="M48.667,13.269c0.011-0.03,0.03-0.043,0.065-0.033l0.713,0.245c0.281,0.101,0.379,0.302,0.281,0.585
	l-0.527,1.524c-0.1,0.279-0.301,0.378-0.578,0.282l-0.717-0.249c-0.029-0.011-0.043-0.031-0.029-0.065L48.667,13.269z
	 M48.674,15.448c0.079,0.028,0.133,0,0.159-0.078l0.47-1.359c0.029-0.082,0.006-0.136-0.076-0.162l-0.275-0.095L48.4,15.352
	L48.674,15.448z"/>
<path fill="#9F9F9F" d="M51.038,14.101c0.026,0.013,0.039,0.035,0.024,0.066l-0.914,2.239c-0.01,0.031-0.035,0.038-0.064,0.028
	l-0.303-0.124c-0.029-0.015-0.04-0.035-0.024-0.065l0.913-2.24c0.01-0.027,0.029-0.041,0.061-0.027L51.038,14.101z"/>
<path fill="#9F9F9F" d="M52.666,14.83c0.271,0.129,0.344,0.338,0.213,0.607l-0.143,0.301c-0.014,0.028-0.041,0.038-0.07,0.024
	l-0.295-0.143c-0.027-0.014-0.037-0.039-0.021-0.064l0.104-0.223c0.036-0.075,0.019-0.133-0.06-0.172l-0.139-0.064
	c-0.068-0.034-0.136-0.016-0.169,0.06l-0.188,0.393l0.574,0.551c0.036,0.039,0.047,0.085,0.021,0.14l-0.312,0.656
	c-0.132,0.267-0.344,0.342-0.609,0.211l-0.317-0.15c-0.269-0.127-0.344-0.342-0.215-0.611l0.144-0.297
	c0.017-0.032,0.041-0.038,0.065-0.024l0.298,0.142c0.03,0.018,0.041,0.038,0.02,0.068l-0.1,0.22
	c-0.035,0.078-0.016,0.133,0.059,0.166l0.14,0.065c0.071,0.039,0.132,0.021,0.166-0.057l0.183-0.379l-0.566-0.547
	c-0.043-0.041-0.053-0.088-0.022-0.144l0.32-0.67c0.128-0.268,0.34-0.338,0.606-0.212L52.666,14.83z"/>
<path fill="#9F9F9F" d="M54.583,16.764c-0.015,0.03-0.04,0.036-0.069,0.021l-0.271-0.157c-0.03-0.015-0.035-0.041-0.021-0.066
	l0.125-0.217c0.038-0.075,0.023-0.136-0.045-0.176l-0.146-0.081c-0.073-0.04-0.131-0.02-0.17,0.05l-0.705,1.246
	c-0.043,0.076-0.023,0.131,0.05,0.172l0.144,0.08c0.068,0.041,0.131,0.026,0.17-0.045l0.127-0.222
	c0.01-0.025,0.033-0.036,0.064-0.014l0.271,0.15c0.027,0.018,0.039,0.043,0.021,0.071l-0.166,0.295
	c-0.146,0.257-0.362,0.316-0.621,0.174l-0.302-0.176c-0.26-0.147-0.323-0.364-0.178-0.621l0.795-1.402
	c0.144-0.255,0.359-0.312,0.617-0.167l0.309,0.175c0.253,0.143,0.316,0.36,0.171,0.615L54.583,16.764z"/>
<path fill="#9F9F9F" d="M55.512,16.931c0.161-0.248,0.383-0.291,0.629-0.127l0.295,0.197c0.246,0.164,0.289,0.383,0.125,0.628
	l-0.896,1.345c-0.166,0.246-0.385,0.289-0.63,0.125l-0.293-0.194c-0.247-0.164-0.287-0.386-0.128-0.632L55.512,16.931z
	 M55.193,18.716c0.07,0.045,0.125,0.037,0.177-0.035l0.808-1.211c0.045-0.07,0.034-0.129-0.035-0.176l-0.15-0.101
	c-0.067-0.045-0.133-0.034-0.178,0.035l-0.808,1.213c-0.051,0.074-0.032,0.129,0.035,0.173L55.193,18.716z"/>
<path fill="#9F9F9F" d="M58.562,18.54c0.035,0.03,0.035,0.061,0.002,0.091l-1.873,1.586c-0.03,0.025-0.058,0.028-0.092,0.006
	l-0.25-0.192c-0.031-0.023-0.035-0.053-0.021-0.086l1.029-2.232c0.02-0.04,0.047-0.051,0.082-0.02l0.24,0.182
	c0.028,0.022,0.036,0.05,0.023,0.088l-0.76,1.545l1.285-1.145c0.033-0.025,0.06-0.025,0.092-0.004L58.562,18.54z"/>
<path fill="#9F9F9F" d="M59.971,20.25c-0.021,0.025-0.046,0.033-0.074,0.01l-0.588-0.524l-0.418,0.473l0.449,0.398
	c0.023,0.022,0.023,0.047,0.006,0.072l-0.207,0.231c-0.025,0.026-0.051,0.031-0.074,0.008l-0.451-0.396l-0.422,0.474l0.593,0.52
	c0.026,0.027,0.026,0.048,0.003,0.07l-0.207,0.238c-0.021,0.026-0.046,0.03-0.073,0.004l-0.87-0.765
	c-0.021-0.021-0.021-0.046,0-0.071l1.605-1.811c0.019-0.021,0.047-0.023,0.064-0.003l0.868,0.767
	c0.027,0.022,0.021,0.047,0.002,0.073L59.971,20.25z"/>
<path fill="#9F9F9F" d="M60.928,22.388c-0.146,0.147-0.303,0.192-0.455,0.126l-0.438,0.739c-0.02,0.034-0.045,0.034-0.07,0.008
	l-0.23-0.232c-0.021-0.024-0.021-0.045-0.006-0.071l0.418-0.711l-0.149-0.16l-0.563,0.563c-0.021,0.023-0.052,0.023-0.07-0.002
	l-0.231-0.233c-0.022-0.022-0.022-0.046,0-0.072l1.724-1.705c0.021-0.02,0.047-0.02,0.069,0l0.56,0.565
	c0.211,0.209,0.211,0.433-0.002,0.64L60.928,22.388z M60.512,22.02c0.059,0.056,0.119,0.058,0.178,0l0.424-0.417
	c0.059-0.057,0.059-0.123,0-0.181l-0.219-0.219l-0.605,0.595L60.512,22.02z"/>
<path fill="#9F9F9F" d="M24.109,63.754c0.045-0.061,0.111-0.066,0.167-0.021l0.605,0.451c0.07,0.053,0.075,0.107,0.03,0.168
	l-3.377,4.517c-0.043,0.058-0.098,0.069-0.169,0.021l-0.605-0.453c-0.061-0.045-0.066-0.105-0.025-0.162l1.399-1.873l-0.754-0.562
	l-1.397,1.868c-0.045,0.06-0.106,0.069-0.166,0.024l-0.603-0.455c-0.073-0.051-0.073-0.106-0.033-0.166l3.38-4.512
	c0.045-0.062,0.1-0.076,0.171-0.023l0.606,0.455c0.055,0.045,0.065,0.104,0.022,0.164l-1.399,1.867l0.751,0.562L24.109,63.754z"/>
<path fill="#9F9F9F" d="M27.937,67.102c0.253-0.646,0.732-0.854,1.372-0.601l0.767,0.302c0.646,0.254,0.853,0.731,0.6,1.372
	l-1.379,3.507c-0.255,0.644-0.729,0.851-1.372,0.598l-0.767-0.301c-0.643-0.258-0.849-0.729-0.597-1.377L27.937,67.102z
	 M28.099,71.326c0.182,0.072,0.308,0.021,0.383-0.164L29.723,68c0.07-0.178,0.015-0.312-0.164-0.381l-0.396-0.157
	c-0.179-0.067-0.313-0.013-0.383,0.164l-1.241,3.163c-0.076,0.186-0.015,0.312,0.162,0.383L28.099,71.326z"/>
<path fill="#9F9F9F" d="M36.623,68.307c0.688,0.072,1.014,0.481,0.936,1.168l-0.084,0.772c-0.007,0.076-0.05,0.117-0.131,0.106
	l-0.762-0.086c-0.07-0.006-0.11-0.058-0.1-0.127l0.06-0.572c0.02-0.188-0.06-0.303-0.259-0.323l-0.351-0.039
	c-0.184-0.019-0.305,0.069-0.326,0.26l-0.108,1.009l1.675,0.762c0.121,0.065,0.176,0.154,0.161,0.294l-0.189,1.688
	c-0.073,0.689-0.482,1.015-1.168,0.939l-0.819-0.093c-0.679-0.074-1.012-0.483-0.936-1.17l0.081-0.767
	c0.01-0.082,0.06-0.11,0.133-0.106l0.76,0.084c0.08,0.011,0.113,0.055,0.105,0.135l-0.063,0.56c-0.022,0.197,0.078,0.308,0.26,0.328
	l0.351,0.035c0.191,0.022,0.305-0.062,0.325-0.258l0.109-0.974L34.61,71.17c-0.126-0.061-0.181-0.156-0.166-0.293l0.192-1.725
	c0.075-0.691,0.489-1.014,1.165-0.938L36.623,68.307z"/>
<path fill="#9F9F9F" d="M43.991,67.979c0.081-0.011,0.127,0.024,0.136,0.101l0.102,0.729c0.01,0.069-0.021,0.117-0.102,0.131
	l-0.842,0.119l0.671,4.737c0.013,0.08-0.015,0.121-0.097,0.131l-0.756,0.111c-0.07,0.01-0.121-0.021-0.139-0.103L42.3,69.2
	l-0.848,0.116c-0.07,0.011-0.121-0.024-0.132-0.103l-0.104-0.728c-0.013-0.069,0.027-0.12,0.104-0.131L43.991,67.979z"/>
<path fill="#9F9F9F" d="M50.622,66.615c0.026,0.064,0.022,0.129-0.06,0.158l-1.694,0.717l0.575,1.357l1.293-0.547
	c0.068-0.029,0.123-0.008,0.154,0.064l0.286,0.671c0.03,0.071,0.009,0.134-0.059,0.161l-1.296,0.551l0.578,1.369L52.1,70.4
	c0.084-0.035,0.123-0.016,0.153,0.062l0.288,0.679c0.027,0.065,0.02,0.116-0.062,0.151l-2.494,1.058
	c-0.062,0.026-0.118,0-0.146-0.062l-2.204-5.205c-0.029-0.067-0.009-0.127,0.057-0.151l2.492-1.06
	c0.08-0.033,0.127-0.003,0.155,0.063L50.622,66.615z"/>
<path fill="#9F9F9F" d="M57.389,67.131l1.377-1.079c0.064-0.051,0.117-0.034,0.166,0.021l0.451,0.579
	c0.049,0.062,0.045,0.115-0.02,0.162l-2.071,1.623c-0.06,0.045-0.116,0.045-0.164-0.021l-3.483-4.442
	c-0.045-0.062-0.037-0.121,0.021-0.166l0.604-0.474c0.062-0.047,0.119-0.037,0.164,0.021L57.389,67.131z"/>
<path fill="#9F9F9F" d="M18.372,34.362v6.451H24.7c0.332,0,0.531,0.202,0.531,0.566v3.28c0,0.366-0.199,0.567-0.531,0.567h-6.328
	v6.691h8.29c0.393,0,0.526,0.166,0.526,0.525v3.316c0,0.332-0.133,0.529-0.526,0.529H14.459c-0.297,0-0.499-0.197-0.499-0.529
	V30.937c0-0.338,0.202-0.529,0.499-0.529c0,0,7.183-1.307,12.202-1.672c0.393,0,0.526,0.199,0.526,0.527v3.481
	c0,0.332-0.133,0.533-0.526,0.569C22.99,33.623,18.372,34.362,18.372,34.362"/>
<path fill="#9F9F9F" d="M40.693,28.022c3.111,0,4.768,1.69,4.768,4.806V51.52c0,3.114-1.656,4.771-4.768,4.771h-7.959
	c-0.364,0-0.53-0.166-0.53-0.529V28.638c0-0.327,0.166-0.53,0.53-0.53C32.734,28.107,38.458,27.916,40.693,28.022 M39.762,51.919
	c0.865,0,1.327-0.435,1.327-1.326v-16.67c0-0.896-0.462-1.358-1.327-1.358l-3.048,0.021v19.333H39.762z"/>
<path fill="#9F9F9F" d="M59.299,29.689c3.098,0.33,4.771,1.883,4.771,5.001v16.832c0,3.113-1.654,4.771-4.771,4.771H51.34
	c-0.359,0-0.525-0.166-0.525-0.527v-26.52c0-0.336,0.166-0.537,0.525-0.537C51.34,28.708,57.396,29.384,59.299,29.689
	 M58.376,51.919c0.856,0,1.322-0.435,1.322-1.326V35.614c0-0.9-0.45-1.302-1.322-1.449l-3.056-0.433v18.187H58.376z"/>
<path fill="#9F9F9F" d="M77.4,23.931c-0.564-1.46-1.356-2.811-2.352-4.019c-1.693-2.051-3.438-3.024-3.701-3.165L46.396,2.037
	c0,0-3.104-2.037-7.169-2.037c-4.068,0-7.169,2.037-7.169,2.037L7.107,16.747c-0.263,0.141-2.008,1.114-3.703,3.165
	c-0.993,1.208-1.785,2.559-2.35,4.019C0.353,25.732,0,27.699,0,29.783v26.66c0,2.078,0.353,4.046,1.054,5.846
	c0.565,1.461,1.357,2.812,2.35,4.021c1.695,2.053,3.44,3.024,3.703,3.166l24.951,14.709c0,0,3.102,2.037,7.169,2.037
	s7.169-2.037,7.169-2.037l24.951-14.709c0.264-0.142,2.008-1.113,3.701-3.166c0.993-1.209,1.785-2.562,2.352-4.021
	c0.701-1.8,1.055-3.768,1.055-5.846v-26.66C78.455,27.699,78.104,25.732,77.4,23.931 M75.545,56.443c0,3.104-0.918,5.796-2.73,8
	c-1.393,1.69-2.815,2.453-2.832,2.461L45.227,81.491c0,0-2.646,1.821-5.999,1.821s-6-1.821-6-1.821L8.473,66.904
	c-0.015-0.008-1.44-0.771-2.832-2.461c-1.813-2.204-2.731-4.896-2.731-8v-26.66c0-3.108,0.918-5.801,2.731-8.005
	c1.392-1.69,2.817-2.451,2.832-2.462L33.228,4.732c0,0,2.648-1.82,6-1.82s5.999,1.82,5.999,1.82l24.756,14.584
	c0.017,0.011,1.439,0.772,2.832,2.462c1.812,2.204,2.73,4.897,2.73,8.005V56.443L75.545,56.443z"/>
</svg>
