<?xml version="1.0" encoding="utf-8"?>
<!-- Generator: Adobe Illustrator 15.0.0, SVG Export Plug-In  -->
<!DOCTYPE svg PUBLIC "-//W3C//DTD SVG 1.1//EN" "http://www.w3.org/Graphics/SVG/1.1/DTD/svg11.dtd" [
	<!ENTITY ns_flows "http://ns.adobe.com/Flows/1.0/">
]>
<svg version="1.1"
	 xmlns="http://www.w3.org/2000/svg" xmlns:xlink="http://www.w3.org/1999/xlink" xmlns:a="http://ns.adobe.com/AdobeSVGViewerExtensions/3.0/"
	 x="0px" y="0px" width="185px" height="185px" viewBox="-8.677 -0.24 185 185"
	 overflow="visible" enable-background="new -8.677 -0.24 185 185" xml:space="preserve">
<defs>
</defs>
<path fill="#FFFFFF" d="M37.175,44.834c0.049,0.05,0.063,0.097,0.006,0.157l-1.171,1.2l0.959,0.947l0.898-0.917
	c0.043-0.053,0.104-0.053,0.161,0l0.471,0.466c0.054,0.053,0.054,0.113,0.007,0.158l-0.899,0.922l0.973,0.947l1.173-1.202
	c0.06-0.058,0.103-0.053,0.156,0l0.476,0.472c0.053,0.047,0.064,0.092,0,0.152l-1.729,1.77c-0.043,0.045-0.096,0.045-0.149-0.008
	l-3.686-3.61c-0.053-0.049-0.053-0.11-0.01-0.152l1.729-1.766c0.064-0.06,0.106-0.049,0.149,0L37.175,44.834z"/>
<path fill="#FFFFFF" d="M43.785,44.815c0.092,0.043,0.106,0.118,0.028,0.192l-0.521,0.456c-0.053,0.055-0.107,0.063-0.171,0.03
	l-1.572-0.788l0.599,1.649c0.022,0.071,0,0.122-0.055,0.178l-0.517,0.459c-0.088,0.07-0.151,0.036-0.184-0.061l-0.918-2.635
	l-2.411-1.178c-0.097-0.043-0.118-0.12-0.032-0.194l0.497-0.444c0.06-0.047,0.12-0.062,0.184-0.032l1.531,0.777l-0.59-1.609
	c-0.027-0.064,0-0.124,0.047-0.174l0.51-0.448c0.08-0.07,0.144-0.043,0.178,0.054l0.874,2.545L43.785,44.815z"/>
<path fill="#FFFFFF" d="M41.9,39.729c-0.043-0.051-0.035-0.109,0.021-0.146l1.29-0.983c0.51-0.39,0.983-0.319,1.37,0.182
	l0.994,1.315c0.384,0.502,0.323,0.975-0.188,1.363l-0.646,0.495l1.026,1.356c0.045,0.054,0.045,0.104-0.015,0.15l-0.562,0.422
	c-0.055,0.042-0.103,0.032-0.156-0.019L41.9,39.729z M44.676,40.881c0.139-0.11,0.152-0.243,0.049-0.372l-0.767-1.012
	c-0.104-0.139-0.233-0.169-0.374-0.054l-0.475,0.358l1.09,1.442L44.676,40.881z"/>
<path fill="#FFFFFF" d="M48.827,40.144l1.341-0.884c0.058-0.039,0.117-0.024,0.149,0.032l0.366,0.562
	c0.045,0.062,0.033,0.107-0.031,0.154l-2.014,1.318c-0.05,0.041-0.104,0.029-0.148-0.022l-2.84-4.324
	c-0.039-0.053-0.022-0.113,0.031-0.151l0.583-0.391c0.067-0.035,0.114-0.021,0.152,0.033L48.827,40.144z"/>
<path fill="#FFFFFF" d="M49.757,35.336c-0.319-0.551-0.191-1.009,0.36-1.322l0.655-0.373c0.551-0.326,1.01-0.202,1.329,0.356
	l1.723,2.998c0.319,0.55,0.19,1.01-0.36,1.328l-0.656,0.379c-0.55,0.315-1.01,0.19-1.323-0.362L49.757,35.336z M52.878,37.65
	c0.162-0.087,0.195-0.205,0.103-0.368l-1.551-2.704c-0.086-0.159-0.214-0.191-0.373-0.105l-0.341,0.198
	c-0.15,0.088-0.182,0.214-0.097,0.372l1.556,2.705c0.092,0.162,0.216,0.184,0.368,0.096L52.878,37.65z"/>
<path fill="#FFFFFF" d="M56.99,33.407c0.201,0.41,0.174,0.752-0.061,1.02l1.189,1.402c0.055,0.06,0.032,0.113-0.033,0.145
	l-0.636,0.303c-0.06,0.031-0.103,0.021-0.142-0.033l-1.157-1.352l-0.423,0.201l0.748,1.539c0.022,0.06,0.004,0.119-0.056,0.147
	l-0.636,0.3c-0.061,0.029-0.114,0.013-0.142-0.047l-2.252-4.688c-0.032-0.069-0.017-0.123,0.047-0.149l1.529-0.736
	c0.579-0.274,1.034-0.112,1.304,0.46L56.99,33.407z M55.954,33.998c0.156-0.075,0.199-0.206,0.123-0.356l-0.55-1.159
	c-0.075-0.15-0.2-0.193-0.362-0.118l-0.601,0.285l0.789,1.642L55.954,33.998z"/>
<path fill="#FFFFFF" d="M60.529,29.954c0.021,0.063,0.015,0.12-0.06,0.149l-1.573,0.624l0.498,1.259l1.199-0.476
	c0.067-0.026,0.118-0.002,0.146,0.066l0.244,0.621c0.033,0.071,0.011,0.125-0.055,0.155l-1.2,0.477l0.511,1.265l1.566-0.622
	c0.074-0.037,0.117-0.01,0.142,0.06l0.246,0.628c0.035,0.063,0.024,0.108-0.058,0.137l-2.314,0.921c-0.058,0.033-0.111,0-0.133-0.06
	l-1.926-4.836c-0.019-0.066,0-0.119,0.056-0.144l2.322-0.914c0.078-0.031,0.11,0,0.141,0.062L60.529,29.954z"/>
<path fill="#FFFFFF" d="M65.504,30.322c-0.025-0.088,0.011-0.146,0.093-0.162l1.025-0.292c0.086-0.028,0.142,0.006,0.163,0.09
	l0.174,0.603c0.019,0.083-0.013,0.139-0.092,0.162l-1.032,0.29c-0.086,0.021-0.142-0.012-0.164-0.096L65.504,30.322z"/>
<path fill="#FFFFFF" d="M70.818,26.376c-0.01-0.062,0.016-0.114,0.086-0.123l1.604-0.276c0.632-0.112,1.022,0.172,1.13,0.799
	l0.595,3.415c0.106,0.628-0.174,1.018-0.802,1.125l-1.599,0.272c-0.076,0.017-0.119-0.014-0.13-0.084L70.818,26.376z M73.099,30.473
	c0.167-0.034,0.248-0.139,0.215-0.312l-0.524-3.042c-0.026-0.185-0.139-0.264-0.309-0.228l-0.615,0.104l0.615,3.576L73.099,30.473z"
	/>
<path fill="#FFFFFF" d="M78.393,27.901c0.042,0.441-0.096,0.756-0.405,0.936l0.644,1.712c0.031,0.088-0.011,0.128-0.082,0.133
	l-0.707,0.067c-0.065,0.017-0.097-0.02-0.121-0.082L77.1,29.005l-0.458,0.047l0.167,1.692c0.006,0.064-0.028,0.117-0.104,0.117
	l-0.689,0.076c-0.078,0.004-0.121-0.033-0.121-0.096l-0.518-5.167c-0.012-0.068,0.025-0.115,0.098-0.12l1.685-0.17
	c0.632-0.067,1.004,0.237,1.071,0.875L78.393,27.901z M77.214,28.096c0.174-0.017,0.259-0.119,0.237-0.293l-0.118-1.265
	c-0.021-0.182-0.119-0.258-0.301-0.246l-0.664,0.064l0.182,1.805L77.214,28.096z"/>
<path fill="#FFFFFF" d="M82.831,25.853c0,0.064-0.022,0.114-0.104,0.12L81.03,26.02l0.043,1.352l1.286-0.035
	c0.078-0.004,0.114,0.039,0.114,0.11l0.021,0.67c0,0.076-0.037,0.118-0.103,0.125l-1.294,0.039l0.037,1.36l1.693-0.043
	c0.085,0,0.107,0.035,0.117,0.11l0.011,0.667c0.006,0.075-0.021,0.114-0.097,0.114l-2.498,0.071c-0.064,0-0.103-0.032-0.103-0.105
	l-0.15-5.2c-0.007-0.069,0.038-0.11,0.103-0.11l2.486-0.074c0.085,0,0.113,0.036,0.113,0.101L82.831,25.853z"/>
<path fill="#FFFFFF" d="M86.963,30.58c-0.065,0-0.099-0.037-0.109-0.094l-0.14-0.992l-1.199-0.047l-0.224,0.97
	c-0.021,0.056-0.059,0.093-0.117,0.088l-0.723-0.032c-0.068,0-0.096-0.042-0.079-0.118l1.337-5.125
	c0.021-0.064,0.055-0.097,0.121-0.086l0.939,0.035c0.057,0.008,0.097,0.032,0.109,0.1l0.897,5.226
	c0.013,0.075-0.023,0.114-0.103,0.11L86.963,30.58z M86.246,26.337l-0.534,2.331l0.86,0.033L86.246,26.337z"/>
<path fill="#FFFFFF" d="M93.501,25.773c0.084,0.009,0.134,0.062,0.122,0.15L93,31.034c-0.009,0.092-0.062,0.131-0.148,0.122
	l-0.621-0.075c-0.086-0.012-0.135-0.068-0.135-0.154l0.384-3.025h-0.053l-1.034,2.95c-0.029,0.086-0.077,0.12-0.152,0.108
	l-0.335-0.039c-0.081-0.016-0.123-0.059-0.132-0.146l-0.297-3.121H90.43l-0.368,3.024c-0.013,0.088-0.065,0.131-0.151,0.121
	l-0.621-0.076c-0.092-0.01-0.136-0.066-0.119-0.154l0.619-5.108c0.013-0.088,0.067-0.131,0.15-0.121l0.888,0.108
	c0.077,0.013,0.121,0.054,0.138,0.142l0.331,3.437l1.159-3.252c0.033-0.083,0.075-0.122,0.159-0.109L93.501,25.773z"/>
<path fill="#FFFFFF" d="M97.77,29.304c0.021-0.092,0.075-0.124,0.161-0.101l1.044,0.243c0.08,0.021,0.119,0.077,0.097,0.163
	l-0.146,0.609c-0.015,0.083-0.067,0.116-0.155,0.092l-1.042-0.237c-0.077-0.022-0.121-0.076-0.104-0.161L97.77,29.304z"/>
<path fill="#FFFFFF" d="M104.276,28.431c0.022-0.064,0.064-0.092,0.14-0.071l1.527,0.525c0.603,0.216,0.812,0.647,0.603,1.253
	l-1.13,3.265c-0.213,0.598-0.645,0.81-1.238,0.604l-1.536-0.533c-0.062-0.024-0.092-0.067-0.062-0.139L104.276,28.431z
	 M104.291,33.1c0.169,0.06,0.284,0,0.341-0.167l1.006-2.913c0.063-0.175,0.013-0.291-0.163-0.347l-0.59-0.204l-1.18,3.424
	L104.291,33.1z"/>
<path fill="#FFFFFF" d="M109.356,30.213c0.057,0.028,0.084,0.074,0.053,0.141l-1.959,4.798c-0.021,0.066-0.075,0.081-0.138,0.06
	l-0.649-0.266c-0.062-0.032-0.085-0.075-0.052-0.139l1.956-4.8c0.021-0.058,0.062-0.088,0.13-0.058L109.356,30.213z"/>
<path fill="#FFFFFF" d="M112.844,31.775c0.581,0.276,0.736,0.724,0.456,1.3l-0.306,0.645c-0.029,0.061-0.088,0.082-0.15,0.052
	l-0.632-0.307c-0.059-0.03-0.08-0.083-0.046-0.137l0.224-0.478c0.077-0.161,0.039-0.285-0.128-0.369l-0.297-0.137
	c-0.146-0.073-0.291-0.035-0.362,0.128l-0.403,0.841l1.229,1.181c0.078,0.083,0.101,0.182,0.044,0.3l-0.667,1.405
	c-0.282,0.572-0.736,0.732-1.306,0.452l-0.68-0.321c-0.576-0.272-0.737-0.732-0.461-1.309l0.308-0.637
	c0.036-0.068,0.088-0.082,0.141-0.051l0.638,0.304c0.065,0.039,0.088,0.082,0.042,0.146l-0.213,0.472
	c-0.076,0.167-0.034,0.284,0.125,0.355l0.3,0.139c0.152,0.083,0.282,0.045,0.355-0.123l0.391-0.812l-1.213-1.172
	c-0.093-0.088-0.113-0.188-0.049-0.309l0.687-1.436c0.274-0.574,0.729-0.725,1.3-0.455L112.844,31.775z"/>
<path fill="#FFFFFF" d="M116.952,35.919c-0.031,0.064-0.086,0.076-0.148,0.045l-0.582-0.337c-0.064-0.032-0.075-0.088-0.046-0.141
	l0.268-0.464c0.082-0.161,0.05-0.292-0.097-0.378l-0.313-0.174c-0.157-0.085-0.28-0.043-0.364,0.108l-1.511,2.669
	c-0.092,0.163-0.05,0.281,0.107,0.369l0.308,0.17c0.146,0.088,0.28,0.057,0.363-0.096l0.272-0.475
	c0.021-0.055,0.071-0.078,0.138-0.031l0.582,0.321c0.059,0.039,0.084,0.092,0.044,0.153l-0.355,0.632
	c-0.312,0.55-0.776,0.677-1.331,0.373l-0.646-0.376c-0.557-0.315-0.692-0.781-0.381-1.331l1.703-3.003
	c0.308-0.547,0.771-0.668,1.322-0.358l0.661,0.375c0.542,0.307,0.678,0.771,0.366,1.317L116.952,35.919z"/>
<path fill="#FFFFFF" d="M118.941,36.277c0.346-0.532,0.82-0.624,1.348-0.272l0.632,0.421c0.527,0.352,0.619,0.82,0.269,1.345
	l-1.921,2.882c-0.356,0.527-0.825,0.62-1.35,0.268l-0.628-0.417c-0.529-0.351-0.615-0.827-0.274-1.354L118.941,36.277z
	 M118.259,40.101c0.15,0.096,0.268,0.08,0.379-0.074l1.73-2.595c0.096-0.15,0.073-0.277-0.076-0.377l-0.321-0.217
	c-0.145-0.096-0.285-0.072-0.381,0.075l-1.73,2.599c-0.109,0.159-0.069,0.276,0.075,0.371L118.259,40.101z"/>
<path fill="#FFFFFF" d="M125.478,39.725c0.075,0.063,0.075,0.13,0.004,0.194l-4.013,3.398c-0.065,0.055-0.124,0.061-0.197,0.014
	l-0.535-0.411c-0.067-0.05-0.075-0.114-0.046-0.185l2.205-4.782c0.042-0.086,0.101-0.109,0.176-0.043l0.515,0.39
	c0.061,0.047,0.077,0.107,0.05,0.188l-1.628,3.31l2.754-2.453c0.071-0.053,0.128-0.053,0.197-0.008L125.478,39.725z"/>
<path fill="#FFFFFF" d="M128.496,43.388c-0.044,0.053-0.099,0.071-0.159,0.021l-1.26-1.123l-0.896,1.014l0.962,0.853
	c0.051,0.047,0.051,0.101,0.013,0.155l-0.443,0.495c-0.055,0.056-0.108,0.066-0.159,0.017l-0.967-0.848l-0.903,1.016l1.27,1.114
	c0.057,0.058,0.057,0.103,0.007,0.149l-0.444,0.511c-0.046,0.056-0.098,0.064-0.156,0.008l-1.864-1.639
	c-0.044-0.045-0.044-0.099,0-0.152l3.439-3.88c0.04-0.045,0.101-0.049,0.139-0.006l1.859,1.643c0.059,0.047,0.044,0.102,0.005,0.157
	L128.496,43.388z"/>
<path fill="#FFFFFF" d="M130.545,47.97c-0.312,0.315-0.648,0.411-0.975,0.27l-0.938,1.583c-0.042,0.073-0.097,0.073-0.15,0.017
	l-0.494-0.497c-0.044-0.051-0.044-0.096-0.013-0.152l0.896-1.523l-0.32-0.343l-1.207,1.206c-0.046,0.049-0.11,0.049-0.15-0.004
	l-0.496-0.499c-0.048-0.047-0.048-0.099,0-0.155l3.693-3.652c0.046-0.043,0.101-0.043,0.148,0l1.199,1.21
	c0.451,0.448,0.451,0.927-0.005,1.37L130.545,47.97z M129.655,47.181c0.125,0.121,0.255,0.125,0.381,0l0.907-0.894
	c0.126-0.122,0.126-0.264,0-0.388l-0.468-0.468l-1.298,1.274L129.655,47.181z"/>
<path fill="#FFFFFF" d="M51.657,136.601c0.096-0.13,0.238-0.143,0.358-0.046l1.296,0.967c0.151,0.112,0.161,0.229,0.065,0.359
	l-7.235,9.678c-0.092,0.123-0.21,0.148-0.362,0.044l-1.297-0.971c-0.129-0.097-0.141-0.227-0.053-0.348l2.998-4.014l-1.615-1.205
	l-2.993,4.003c-0.097,0.128-0.227,0.148-0.356,0.053l-1.292-0.976c-0.156-0.108-0.156-0.228-0.07-0.355l7.242-9.667
	c0.096-0.132,0.214-0.163,0.366-0.05l1.298,0.975c0.118,0.097,0.139,0.224,0.047,0.352l-2.998,4.001l1.609,1.205L51.657,136.601z"/>
<path fill="#FFFFFF" d="M59.859,143.774c0.542-1.383,1.568-1.829,2.94-1.287l1.644,0.646c1.384,0.544,1.828,1.567,1.285,2.94
	l-2.955,7.514c-0.546,1.379-1.562,1.822-2.94,1.28l-1.643-0.645c-1.377-0.553-1.819-1.562-1.279-2.95L59.859,143.774z
	 M60.206,152.826c0.391,0.154,0.66,0.046,0.82-0.352l2.66-6.775c0.149-0.381,0.031-0.67-0.352-0.816l-0.849-0.337
	c-0.384-0.144-0.67-0.026-0.821,0.352l-2.658,6.777c-0.163,0.398-0.033,0.67,0.347,0.82L60.206,152.826z"/>
<path fill="#FFFFFF" d="M78.47,146.356c1.474,0.154,2.173,1.031,2.006,2.502l-0.18,1.655c-0.016,0.163-0.108,0.251-0.281,0.229
	l-1.632-0.185c-0.149-0.013-0.235-0.123-0.214-0.271l0.129-1.227c0.042-0.403-0.129-0.648-0.555-0.692l-0.752-0.084
	c-0.394-0.04-0.654,0.148-0.699,0.557L76.06,151l3.588,1.633c0.259,0.14,0.377,0.33,0.345,0.63l-0.405,3.615
	c-0.157,1.478-1.033,2.174-2.503,2.013l-1.754-0.198c-1.455-0.159-2.168-1.036-2.005-2.507l0.174-1.643
	c0.021-0.176,0.127-0.236,0.284-0.229l1.628,0.181c0.172,0.022,0.243,0.117,0.225,0.288l-0.135,1.199
	c-0.047,0.423,0.167,0.659,0.558,0.703l0.752,0.075c0.409,0.048,0.653-0.132,0.696-0.553l0.234-2.086l-3.585-1.632
	c-0.27-0.13-0.387-0.335-0.355-0.628l0.411-3.695c0.161-1.481,1.048-2.172,2.496-2.011L78.47,146.356z"/>
<path fill="#FFFFFF" d="M94.257,145.653c0.174-0.023,0.271,0.052,0.291,0.216l0.217,1.562c0.021,0.148-0.044,0.251-0.217,0.28
	l-1.804,0.256l1.438,10.15c0.026,0.171-0.032,0.259-0.208,0.28l-1.619,0.238c-0.15,0.021-0.26-0.044-0.297-0.22l-1.425-10.146
	l-1.816,0.249c-0.15,0.023-0.26-0.052-0.282-0.22l-0.222-1.559c-0.027-0.148,0.059-0.257,0.222-0.28L94.257,145.653z"/>
<path fill="#FFFFFF" d="M108.464,142.732c0.057,0.138,0.048,0.276-0.128,0.339l-3.63,1.536l1.232,2.908l2.771-1.172
	c0.146-0.062,0.264-0.017,0.33,0.138l0.613,1.438c0.065,0.153,0.019,0.287-0.125,0.346l-2.777,1.18l1.239,2.934l3.641-1.535
	c0.18-0.076,0.264-0.034,0.328,0.132l0.617,1.454c0.059,0.14,0.042,0.249-0.134,0.324l-5.344,2.266
	c-0.132,0.057-0.253,0-0.312-0.132l-4.723-11.152c-0.062-0.145-0.019-0.271,0.121-0.324l5.34-2.271
	c0.172-0.071,0.272-0.006,0.333,0.137L108.464,142.732z"/>
<path fill="#FFFFFF" d="M122.962,143.836l2.951-2.312c0.138-0.108,0.251-0.072,0.355,0.047l0.967,1.24
	c0.104,0.134,0.096,0.247-0.042,0.348l-4.438,3.478c-0.127,0.097-0.249,0.097-0.352-0.044l-7.463-9.519
	c-0.097-0.132-0.08-0.26,0.046-0.355l1.293-1.015c0.134-0.101,0.255-0.08,0.352,0.044L122.962,143.836z"/>
<path fill="#FFFFFF" d="M39.365,73.625v13.823h13.559c0.711,0,1.138,0.433,1.138,1.212v7.028c0,0.785-0.426,1.216-1.138,1.216
	H39.365v14.337h17.763c0.842,0,1.126,0.355,1.126,1.126v7.105c0,0.712-0.285,1.135-1.126,1.135H30.98
	c-0.636,0-1.069-0.423-1.069-1.135V66.287c0-0.724,0.433-1.133,1.069-1.133c0,0,15.391-2.8,26.145-3.583
	c0.842,0,1.127,0.427,1.127,1.13v7.458c0,0.711-0.285,1.141-1.127,1.219C49.26,72.042,39.365,73.625,39.365,73.625"/>
<path fill="#FFFFFF" d="M87.191,60.041c6.667,0,10.215,3.621,10.215,10.298v40.049c0,6.673-3.548,10.224-10.215,10.224H70.137
	c-0.779,0-1.135-0.355-1.135-1.134V61.361c0-0.701,0.356-1.136,1.135-1.136C70.137,60.223,82.401,59.813,87.191,60.041
	 M85.195,111.243c1.854,0,2.844-0.931,2.844-2.841V72.684c0-1.92-0.99-2.91-2.844-2.91l-6.53,0.045v41.423H85.195z"/>
<path fill="#FFFFFF" d="M127.055,63.612c6.638,0.708,10.224,4.034,10.224,10.715v36.063c0,6.671-3.544,10.224-10.224,10.224h-17.053
	c-0.77,0-1.126-0.355-1.126-1.13V62.664c0-0.72,0.356-1.151,1.126-1.151C110.002,61.511,122.98,62.958,127.055,63.612
	 M125.079,111.243c1.835,0,2.833-0.931,2.833-2.841V76.308c0-1.929-0.965-2.79-2.833-3.105l-6.548-0.928v38.968H125.079z"/>
<path fill="#FFFFFF" d="M165.84,51.275c-1.209-3.128-2.906-6.023-5.038-8.611c-3.629-4.395-7.365-6.479-7.931-6.781L99.411,4.365
	c0,0-6.649-4.365-15.361-4.365c-8.716,0-15.36,4.365-15.36,4.365L15.228,35.883c-0.563,0.302-4.302,2.386-7.934,6.781
	c-2.127,2.588-3.824,5.483-5.035,8.611C0.757,55.134,0,59.349,0,63.814v57.123c0,4.453,0.757,8.669,2.259,12.525
	c1.21,3.13,2.908,6.026,5.035,8.616c3.632,4.398,7.371,6.48,7.934,6.784l53.461,31.516c0,0,6.646,4.364,15.36,4.364
	s15.361-4.364,15.361-4.364l53.461-31.516c0.565-0.304,4.302-2.386,7.931-6.784c2.128-2.59,3.824-5.488,5.038-8.616
	c1.503-3.856,2.26-8.072,2.26-12.525V63.814C168.1,59.349,167.347,55.134,165.84,51.275 M161.865,120.937
	c0,6.649-1.967,12.419-5.851,17.142c-2.983,3.621-6.032,5.256-6.067,5.272l-53.043,31.254c0,0-5.668,3.902-12.853,3.902
	c-7.184,0-12.855-3.902-12.855-3.902l-53.041-31.254c-0.032-0.017-3.085-1.651-6.068-5.272c-3.884-4.723-5.851-10.492-5.851-17.142
	V63.814c0-6.66,1.967-12.43,5.851-17.153c2.983-3.621,6.036-5.25,6.068-5.275l53.041-31.248c0,0,5.673-3.899,12.855-3.899
	c7.183,0,12.853,3.899,12.853,3.899l53.043,31.248c0.035,0.024,3.084,1.654,6.067,5.275c3.884,4.723,5.851,10.493,5.851,17.153
	V120.937L161.865,120.937z"/>
</svg>
