<?xml version="1.0" encoding="utf-8"?>
<!-- Generator: Adobe Illustrator 15.0.0, SVG Export Plug-In  -->
<!DOCTYPE svg PUBLIC "-//W3C//DTD SVG 1.1//EN" "http://www.w3.org/Graphics/SVG/1.1/DTD/svg11.dtd" [
	<!ENTITY ns_flows "http://ns.adobe.com/Flows/1.0/">
]>
<svg version="1.1"
	 xmlns="http://www.w3.org/2000/svg" xmlns:xlink="http://www.w3.org/1999/xlink" xmlns:a="http://ns.adobe.com/AdobeSVGViewerExtensions/3.0/"
	 x="0px" y="0px" width="350px" height="350px" viewBox="-19.085 -3.559 350 350"
	 overflow="visible" enable-background="new -19.085 -3.559 350 350" xml:space="preserve">
<defs>
</defs>
<g>
	<defs>
		<rect id="SVGID_32_" width="311.285" height="342.105"/>
	</defs>
	<clipPath id="SVGID_33_">
		<use xlink:href="#SVGID_32_"  overflow="visible"/>
	</clipPath>
	<path clip-path="url(#SVGID_33_)" d="M68.84,83.027c0.091,0.092,0.118,0.18,0.011,0.291l-2.169,2.222l1.777,1.749l1.662-1.699
		c0.08-0.099,0.192-0.099,0.298,0l0.872,0.862c0.101,0.099,0.101,0.209,0.014,0.292l-1.665,1.707l1.802,1.753l2.172-2.227
		c0.11-0.106,0.19-0.099,0.289,0l0.882,0.874c0.099,0.087,0.118,0.17,0,0.281l-3.203,3.278c-0.08,0.083-0.178,0.083-0.277-0.016
		l-6.825-6.686c-0.099-0.091-0.099-0.204-0.02-0.281l3.202-3.27c0.119-0.11,0.198-0.091,0.277,0L68.84,83.027z"/>
</g>
<g>
	<defs>
		<rect id="SVGID_31_" width="311.285" height="342.105"/>
	</defs>
	<clipPath id="SVGID_34_">
		<use xlink:href="#SVGID_31_"  overflow="visible"/>
	</clipPath>
	<path clip-path="url(#SVGID_34_)" d="M81.08,82.992c0.17,0.079,0.198,0.219,0.052,0.356l-0.965,0.847
		c-0.099,0.099-0.2,0.114-0.317,0.054l-2.912-1.459l1.11,3.053c0.041,0.132,0,0.227-0.103,0.33l-0.957,0.851
		c-0.163,0.13-0.281,0.068-0.341-0.113l-1.701-4.88l-4.464-2.182c-0.18-0.079-0.219-0.223-0.06-0.36l0.92-0.821
		c0.11-0.087,0.223-0.117,0.341-0.061l2.834,1.439l-1.093-2.979c-0.05-0.118,0-0.229,0.087-0.322l0.945-0.829
		c0.147-0.13,0.265-0.078,0.33,0.101l1.618,4.713L81.08,82.992z"/>
</g>
<g>
	<defs>
		<rect id="SVGID_30_" width="311.285" height="342.105"/>
	</defs>
	<clipPath id="SVGID_35_">
		<use xlink:href="#SVGID_30_"  overflow="visible"/>
	</clipPath>
	<path clip-path="url(#SVGID_35_)" d="M77.589,73.573c-0.08-0.095-0.064-0.202,0.039-0.27l2.388-1.821
		c0.944-0.723,1.821-0.591,2.536,0.337l1.84,2.435c0.711,0.93,0.599,1.806-0.349,2.525l-1.195,0.916l1.9,2.511
		c0.083,0.101,0.083,0.191-0.027,0.279l-1.041,0.781c-0.103,0.079-0.19,0.06-0.289-0.035L77.589,73.573z M82.73,75.708
		c0.258-0.203,0.281-0.449,0.091-0.69l-1.42-1.873c-0.191-0.258-0.432-0.313-0.691-0.099l-0.879,0.663l2.019,2.67L82.73,75.708z"/>
</g>
<g>
	<defs>
		<rect id="SVGID_29_" width="311.285" height="342.105"/>
	</defs>
	<clipPath id="SVGID_36_">
		<use xlink:href="#SVGID_29_"  overflow="visible"/>
	</clipPath>
	<path clip-path="url(#SVGID_36_)" d="M90.416,74.342l2.484-1.637c0.106-0.071,0.216-0.044,0.276,0.059l0.679,1.04
		c0.083,0.115,0.06,0.198-0.058,0.285l-3.729,2.441c-0.093,0.076-0.192,0.054-0.275-0.041l-5.259-8.007
		c-0.072-0.099-0.042-0.209,0.058-0.281l1.079-0.723c0.124-0.066,0.211-0.039,0.283,0.061L90.416,74.342z"/>
</g>
<g>
	<defs>
		<rect id="SVGID_28_" width="311.285" height="342.105"/>
	</defs>
	<clipPath id="SVGID_37_">
		<use xlink:href="#SVGID_28_"  overflow="visible"/>
	</clipPath>
	<path clip-path="url(#SVGID_37_)" d="M92.139,65.439c-0.591-1.021-0.355-1.869,0.667-2.448l1.212-0.69
		c1.021-0.604,1.869-0.374,2.46,0.659l3.191,5.55c0.59,1.019,0.352,1.874-0.667,2.46l-1.214,0.702
		c-1.019,0.583-1.869,0.353-2.449-0.67L92.139,65.439z M97.919,69.725c0.3-0.163,0.36-0.381,0.189-0.684l-2.873-5.006
		c-0.159-0.294-0.397-0.354-0.689-0.195l-0.631,0.367c-0.277,0.163-0.337,0.397-0.178,0.689l2.881,5.008
		c0.17,0.3,0.401,0.341,0.682,0.178L97.919,69.725z"/>
</g>
<g>
	<defs>
		<rect id="SVGID_27_" width="311.285" height="342.105"/>
	</defs>
	<clipPath id="SVGID_38_">
		<use xlink:href="#SVGID_27_"  overflow="visible"/>
	</clipPath>
	<path clip-path="url(#SVGID_38_)" d="M105.533,61.868c0.373,0.759,0.322,1.392-0.112,1.888l2.203,2.596
		c0.103,0.111,0.06,0.209-0.06,0.27l-1.178,0.56c-0.11,0.059-0.19,0.039-0.262-0.06l-2.143-2.503l-0.783,0.372l1.385,2.85
		c0.041,0.111,0.008,0.221-0.103,0.273l-1.178,0.556c-0.112,0.054-0.211,0.024-0.261-0.086l-4.171-8.682
		c-0.06-0.128-0.031-0.227,0.087-0.275l2.833-1.364c1.071-0.508,1.914-0.207,2.414,0.853L105.533,61.868z M103.611,62.96
		c0.291-0.139,0.37-0.382,0.231-0.659l-1.02-2.146c-0.14-0.279-0.37-0.358-0.67-0.219l-1.112,0.529l1.461,3.038L103.611,62.96z"/>
</g>
<g>
	<defs>
		<rect id="SVGID_26_" width="311.285" height="342.105"/>
	</defs>
	<clipPath id="SVGID_39_">
		<use xlink:href="#SVGID_26_"  overflow="visible"/>
	</clipPath>
	<path clip-path="url(#SVGID_39_)" d="M112.087,55.472c0.038,0.118,0.027,0.223-0.111,0.277l-2.914,1.155l0.922,2.331l2.221-0.882
		c0.124-0.048,0.219-0.003,0.271,0.122l0.451,1.151c0.06,0.131,0.02,0.23-0.103,0.287l-2.222,0.885l0.943,2.34l2.902-1.151
		c0.138-0.068,0.217-0.02,0.262,0.111l0.455,1.162c0.064,0.117,0.044,0.2-0.106,0.254l-4.286,1.707c-0.106,0.06-0.205,0-0.246-0.11
		l-3.567-8.956c-0.035-0.122,0-0.221,0.104-0.266l4.3-1.693c0.144-0.056,0.204,0,0.262,0.115L112.087,55.472z"/>
</g>
<g>
	<defs>
		<rect id="SVGID_25_" width="311.285" height="342.105"/>
	</defs>
	<clipPath id="SVGID_40_">
		<use xlink:href="#SVGID_25_"  overflow="visible"/>
	</clipPath>
	<path clip-path="url(#SVGID_40_)" d="M121.299,56.154c-0.047-0.163,0.021-0.27,0.172-0.3l1.898-0.541
		c0.159-0.05,0.264,0.012,0.302,0.167l0.322,1.116c0.035,0.155-0.023,0.258-0.171,0.3l-1.912,0.537
		c-0.159,0.039-0.262-0.02-0.302-0.178L121.299,56.154z"/>
</g>
<g>
	<defs>
		<rect id="SVGID_24_" width="311.285" height="342.105"/>
	</defs>
	<clipPath id="SVGID_41_">
		<use xlink:href="#SVGID_24_"  overflow="visible"/>
	</clipPath>
	<path clip-path="url(#SVGID_41_)" d="M131.139,48.847c-0.02-0.115,0.029-0.211,0.159-0.227l2.972-0.511
		c1.172-0.206,1.893,0.317,2.092,1.48l1.103,6.323c0.197,1.163-0.322,1.885-1.484,2.085l-2.96,0.503
		c-0.142,0.031-0.221-0.025-0.242-0.155L131.139,48.847z M135.362,56.433c0.309-0.064,0.459-0.258,0.399-0.579l-0.971-5.634
		c-0.048-0.343-0.258-0.488-0.572-0.422l-1.139,0.191l1.139,6.622L135.362,56.433z"/>
</g>
<g>
	<defs>
		<rect id="SVGID_23_" width="311.285" height="342.105"/>
	</defs>
	<clipPath id="SVGID_42_">
		<use xlink:href="#SVGID_23_"  overflow="visible"/>
	</clipPath>
	<path clip-path="url(#SVGID_42_)" d="M145.165,51.671c0.08,0.818-0.178,1.4-0.75,1.734l1.191,3.169
		c0.058,0.163-0.021,0.238-0.151,0.246l-1.31,0.124c-0.12,0.031-0.179-0.037-0.223-0.151l-1.151-3.079l-0.848,0.087l0.31,3.134
		c0.012,0.119-0.052,0.217-0.191,0.217l-1.277,0.14c-0.144,0.008-0.223-0.06-0.223-0.179l-0.959-9.566
		c-0.021-0.126,0.046-0.213,0.182-0.221l3.119-0.317c1.17-0.124,1.86,0.439,1.984,1.622L145.165,51.671z M142.984,52.033
		c0.321-0.033,0.48-0.223,0.439-0.544l-0.219-2.341c-0.039-0.339-0.221-0.48-0.558-0.457l-1.23,0.118l0.337,3.342L142.984,52.033z"
		/>
</g>
<g>
	<defs>
		<rect id="SVGID_22_" width="311.285" height="342.105"/>
	</defs>
	<clipPath id="SVGID_43_">
		<use xlink:href="#SVGID_22_"  overflow="visible"/>
	</clipPath>
	<path clip-path="url(#SVGID_43_)" d="M153.384,47.877c0,0.121-0.041,0.211-0.192,0.223l-3.143,0.087l0.08,2.503l2.381-0.063
		c0.144-0.008,0.211,0.071,0.211,0.204l0.039,1.241c0,0.14-0.068,0.219-0.19,0.23l-2.396,0.072l0.068,2.518l3.134-0.079
		c0.158,0,0.198,0.064,0.217,0.204l0.02,1.238c0.012,0.137-0.039,0.209-0.178,0.209l-4.626,0.131c-0.118,0-0.19-0.06-0.19-0.196
		l-0.277-9.629c-0.014-0.127,0.07-0.203,0.19-0.203l4.603-0.138c0.157,0,0.209,0.066,0.209,0.187L153.384,47.877z"/>
</g>
<g>
	<defs>
		<rect id="SVGID_21_" width="311.285" height="342.105"/>
	</defs>
	<clipPath id="SVGID_44_">
		<use xlink:href="#SVGID_21_"  overflow="visible"/>
	</clipPath>
	<path clip-path="url(#SVGID_44_)" d="M161.036,56.63c-0.12,0-0.183-0.068-0.201-0.174l-0.26-1.836l-2.22-0.087l-0.415,1.796
		c-0.039,0.104-0.108,0.172-0.217,0.163l-1.337-0.058c-0.127,0-0.178-0.08-0.147-0.219l2.476-9.492
		c0.039-0.118,0.101-0.178,0.226-0.159l1.735,0.064c0.108,0.016,0.178,0.06,0.201,0.187l1.662,9.677
		c0.021,0.139-0.042,0.211-0.189,0.204L161.036,56.63z M159.707,48.774l-0.988,4.316l1.593,0.06L159.707,48.774z"/>
</g>
<g>
	<defs>
		<rect id="SVGID_20_" width="311.285" height="342.105"/>
	</defs>
	<clipPath id="SVGID_45_">
		<use xlink:href="#SVGID_20_"  overflow="visible"/>
	</clipPath>
	<path clip-path="url(#SVGID_45_)" d="M173.146,47.73c0.154,0.017,0.244,0.116,0.224,0.279l-1.154,9.462
		c-0.016,0.17-0.12,0.242-0.278,0.227l-1.151-0.14c-0.159-0.023-0.244-0.126-0.244-0.285l0.705-5.603h-0.102l-1.921,5.463
		c-0.055,0.159-0.147,0.223-0.283,0.2l-0.619-0.072c-0.151-0.029-0.229-0.108-0.244-0.27l-0.551-5.781h-0.085l-0.683,5.601
		c-0.023,0.163-0.12,0.242-0.279,0.223l-1.149-0.14c-0.171-0.02-0.253-0.122-0.222-0.285l1.147-9.46
		c0.022-0.163,0.124-0.24,0.278-0.225l1.643,0.202c0.147,0.023,0.226,0.099,0.26,0.261l0.617,6.365l2.146-6.023
		c0.059-0.153,0.14-0.225,0.295-0.202L173.146,47.73z"/>
</g>
<g>
	<defs>
		<rect id="SVGID_19_" width="311.285" height="342.105"/>
	</defs>
	<clipPath id="SVGID_46_">
		<use xlink:href="#SVGID_19_"  overflow="visible"/>
	</clipPath>
	<path clip-path="url(#SVGID_46_)" d="M181.049,54.271c0.039-0.172,0.14-0.23,0.299-0.188l1.933,0.449
		c0.147,0.039,0.221,0.142,0.179,0.301l-0.271,1.127c-0.027,0.155-0.124,0.215-0.287,0.171l-1.93-0.44
		c-0.147-0.041-0.224-0.14-0.193-0.298L181.049,54.271z"/>
</g>
<g>
	<defs>
		<rect id="SVGID_18_" width="311.285" height="342.105"/>
	</defs>
	<clipPath id="SVGID_47_">
		<use xlink:href="#SVGID_18_"  overflow="visible"/>
	</clipPath>
	<path clip-path="url(#SVGID_47_)" d="M193.095,52.651c0.043-0.118,0.121-0.17,0.26-0.132l2.828,0.973
		c1.116,0.401,1.504,1.199,1.116,2.321l-2.092,6.046c-0.396,1.108-1.193,1.5-2.294,1.12l-2.844-0.988
		c-0.116-0.044-0.171-0.124-0.116-0.257L193.095,52.651z M193.122,61.298c0.314,0.11,0.527,0,0.633-0.31l1.863-5.392
		c0.115-0.326,0.023-0.541-0.302-0.644l-1.098-0.377l-2.182,6.341L193.122,61.298z"/>
</g>
<g>
	<defs>
		<rect id="SVGID_17_" width="311.285" height="342.105"/>
	</defs>
	<clipPath id="SVGID_48_">
		<use xlink:href="#SVGID_17_"  overflow="visible"/>
	</clipPath>
	<path clip-path="url(#SVGID_48_)" d="M202.503,55.952c0.104,0.053,0.155,0.14,0.097,0.262l-3.626,8.884
		c-0.039,0.122-0.141,0.149-0.256,0.11l-1.202-0.492c-0.115-0.06-0.158-0.14-0.097-0.258l3.624-8.889
		c0.038-0.107,0.115-0.163,0.24-0.107L202.503,55.952z"/>
</g>
<g>
	<defs>
		<rect id="SVGID_16_" width="311.285" height="342.105"/>
	</defs>
	<clipPath id="SVGID_49_">
		<use xlink:href="#SVGID_16_"  overflow="visible"/>
	</clipPath>
	<path clip-path="url(#SVGID_49_)" d="M208.962,58.845c1.078,0.511,1.364,1.34,0.846,2.408l-0.566,1.195
		c-0.054,0.11-0.163,0.149-0.279,0.095l-1.17-0.567c-0.108-0.057-0.146-0.155-0.085-0.254l0.415-0.885
		c0.143-0.298,0.073-0.527-0.237-0.682l-0.546-0.254c-0.275-0.136-0.539-0.064-0.67,0.238l-0.753,1.558l2.279,2.187
		c0.147,0.155,0.187,0.337,0.085,0.556l-1.24,2.602c-0.519,1.06-1.359,1.358-2.418,0.837l-1.259-0.595
		c-1.065-0.504-1.364-1.356-0.853-2.424l0.57-1.18c0.062-0.126,0.162-0.149,0.259-0.095l1.183,0.564
		c0.12,0.072,0.162,0.151,0.076,0.27l-0.395,0.874c-0.14,0.31-0.062,0.527,0.233,0.659l0.55,0.257
		c0.286,0.155,0.523,0.084,0.659-0.226l0.719-1.503l-2.246-2.17c-0.17-0.163-0.209-0.349-0.089-0.572l1.271-2.658
		c0.507-1.063,1.348-1.342,2.406-0.84L208.962,58.845z"/>
</g>
<g>
	<defs>
		<rect id="SVGID_15_" width="311.285" height="342.105"/>
	</defs>
	<clipPath id="SVGID_50_">
		<use xlink:href="#SVGID_15_"  overflow="visible"/>
	</clipPath>
	<path clip-path="url(#SVGID_50_)" d="M216.568,66.519c-0.058,0.118-0.159,0.141-0.275,0.083l-1.081-0.624
		c-0.12-0.058-0.14-0.162-0.081-0.261l0.496-0.86c0.151-0.298,0.093-0.541-0.178-0.7l-0.582-0.321
		c-0.295-0.159-0.519-0.08-0.675,0.199l-2.796,4.943c-0.171,0.302-0.099,0.521,0.193,0.684l0.564,0.318
		c0.276,0.163,0.521,0.103,0.675-0.18l0.504-0.88c0.039-0.098,0.136-0.143,0.26-0.056l1.073,0.594
		c0.112,0.072,0.154,0.17,0.085,0.283l-0.658,1.17c-0.582,1.019-1.441,1.254-2.464,0.69l-1.197-0.697
		c-1.027-0.583-1.283-1.446-0.702-2.465l3.154-5.562c0.565-1.013,1.426-1.238,2.448-0.662l1.221,0.693
		c1.004,0.567,1.259,1.428,0.679,2.441L216.568,66.519z"/>
</g>
<g>
	<defs>
		<rect id="SVGID_14_" width="311.285" height="342.105"/>
	</defs>
	<clipPath id="SVGID_51_">
		<use xlink:href="#SVGID_14_"  overflow="visible"/>
	</clipPath>
	<path clip-path="url(#SVGID_51_)" d="M220.253,67.181c0.64-0.984,1.52-1.154,2.496-0.503l1.17,0.781
		c0.977,0.651,1.146,1.519,0.495,2.492l-3.561,5.337c-0.658,0.977-1.522,1.147-2.499,0.496l-1.162-0.769
		c-0.98-0.651-1.14-1.533-0.504-2.509L220.253,67.181z M218.99,74.262c0.279,0.181,0.496,0.147,0.701-0.137l3.205-4.805
		c0.178-0.279,0.136-0.513-0.141-0.7l-0.601-0.401c-0.268-0.178-0.522-0.133-0.701,0.14l-3.204,4.812
		c-0.201,0.294-0.128,0.511,0.14,0.688L218.99,74.262z"/>
</g>
<g>
	<defs>
		<rect id="SVGID_13_" width="311.285" height="342.105"/>
	</defs>
	<clipPath id="SVGID_52_">
		<use xlink:href="#SVGID_13_"  overflow="visible"/>
	</clipPath>
	<path clip-path="url(#SVGID_52_)" d="M232.358,73.565c0.139,0.118,0.139,0.242,0.007,0.36l-7.432,6.293
		c-0.119,0.1-0.225,0.112-0.363,0.025l-0.992-0.762c-0.124-0.092-0.141-0.211-0.086-0.343l4.084-8.855
		c0.078-0.159,0.187-0.202,0.326-0.08l0.953,0.723c0.115,0.087,0.146,0.197,0.097,0.349l-3.012,6.13l5.101-4.542
		c0.131-0.1,0.232-0.1,0.363-0.017L232.358,73.565z"/>
</g>
<g>
	<defs>
		<rect id="SVGID_12_" width="311.285" height="342.105"/>
	</defs>
	<clipPath id="SVGID_53_">
		<use xlink:href="#SVGID_12_"  overflow="visible"/>
	</clipPath>
	<path clip-path="url(#SVGID_53_)" d="M237.945,80.346c-0.086,0.099-0.183,0.132-0.295,0.039l-2.333-2.079l-1.658,1.877l1.782,1.58
		c0.093,0.086,0.093,0.186,0.023,0.287l-0.821,0.917c-0.101,0.103-0.201,0.122-0.294,0.03l-1.791-1.571l-1.674,1.881l2.349,2.063
		c0.108,0.106,0.108,0.19,0.012,0.277l-0.822,0.946c-0.081,0.103-0.182,0.118-0.29,0.016l-3.452-3.036
		c-0.081-0.083-0.081-0.182,0-0.281l6.37-7.186c0.073-0.083,0.186-0.091,0.26-0.011l3.444,3.042
		c0.108,0.087,0.081,0.188,0.008,0.291L237.945,80.346z"/>
</g>
<g>
	<defs>
		<rect id="SVGID_11_" width="311.285" height="342.105"/>
	</defs>
	<clipPath id="SVGID_54_">
		<use xlink:href="#SVGID_11_"  overflow="visible"/>
	</clipPath>
	<path clip-path="url(#SVGID_54_)" d="M241.742,88.833c-0.578,0.583-1.201,0.762-1.806,0.5l-1.736,2.931
		c-0.077,0.136-0.178,0.136-0.278,0.033l-0.914-0.922c-0.086-0.095-0.086-0.178-0.023-0.281l1.658-2.821l-0.597-0.636l-2.24,2.234
		c-0.081,0.091-0.201,0.091-0.278-0.007l-0.919-0.924c-0.088-0.087-0.088-0.182,0-0.287l6.839-6.763c0.086-0.08,0.187-0.08,0.276,0
		l2.22,2.241c0.836,0.83,0.836,1.719-0.009,2.539L241.742,88.833z M240.091,87.373c0.233,0.223,0.474,0.23,0.705,0l1.683-1.654
		c0.229-0.227,0.229-0.488,0-0.719l-0.868-0.868l-2.406,2.36L240.091,87.373z"/>
</g>
<g>
	<defs>
		<rect id="SVGID_10_" width="311.285" height="342.105"/>
	</defs>
	<clipPath id="SVGID_55_">
		<use xlink:href="#SVGID_10_"  overflow="visible"/>
	</clipPath>
	<path clip-path="url(#SVGID_55_)" fill="#D59B3C" d="M95.656,252.958c0.178-0.243,0.442-0.259,0.663-0.088l2.4,1.79
		c0.279,0.209,0.298,0.43,0.12,0.674l-13.399,17.913c-0.17,0.229-0.389,0.274-0.67,0.081l-2.403-1.798
		c-0.24-0.186-0.261-0.422-0.099-0.644l5.55-7.431l-2.991-2.233l-5.542,7.413c-0.179,0.229-0.42,0.283-0.659,0.098l-2.393-1.798
		c-0.289-0.202-0.289-0.431-0.13-0.659l13.41-17.901c0.178-0.251,0.397-0.302,0.678-0.101l2.404,1.813
		c0.219,0.171,0.258,0.411,0.087,0.65l-5.551,7.408l2.98,2.229L95.656,252.958z"/>
</g>
<g>
	<defs>
		<rect id="SVGID_9_" width="311.285" height="342.105"/>
	</defs>
	<clipPath id="SVGID_56_">
		<use xlink:href="#SVGID_9_"  overflow="visible"/>
	</clipPath>
	<path clip-path="url(#SVGID_56_)" fill="#D59B3C" d="M110.845,266.238c1.004-2.561,2.904-3.382,5.444-2.379l3.044,1.201
		c2.563,0.999,3.385,2.898,2.379,5.44l-5.471,13.909c-1.011,2.554-2.893,3.375-5.444,2.372l-3.042-1.193
		c-2.551-1.016-3.369-2.895-2.369-5.464L110.845,266.238z M111.489,283.004c0.722,0.283,1.222,0.081,1.519-0.651l4.925-12.55
		c0.277-0.705,0.058-1.241-0.651-1.512l-1.571-0.623c-0.711-0.268-1.242-0.051-1.521,0.649l-4.922,12.552
		c-0.303,0.735-0.06,1.239,0.643,1.518L111.489,283.004z"/>
</g>
<g>
	<defs>
		<rect id="SVGID_8_" width="311.285" height="342.105"/>
	</defs>
	<clipPath id="SVGID_57_">
		<use xlink:href="#SVGID_8_"  overflow="visible"/>
	</clipPath>
	<path clip-path="url(#SVGID_57_)" fill="#D59B3C" d="M145.309,271.019c2.729,0.29,4.024,1.915,3.713,4.635l-0.333,3.068
		c-0.029,0.303-0.199,0.465-0.521,0.426l-3.021-0.341c-0.277-0.023-0.437-0.229-0.398-0.503l0.239-2.271
		c0.079-0.752-0.239-1.201-1.027-1.287l-1.393-0.154c-0.73-0.07-1.211,0.278-1.294,1.03l-0.428,4.006l6.646,3.023
		c0.48,0.256,0.699,0.604,0.639,1.158l-0.75,6.699c-0.291,2.735-1.912,4.029-4.634,3.728l-3.25-0.365
		c-2.695-0.298-4.016-1.921-3.714-4.641l0.322-3.042c0.039-0.326,0.236-0.438,0.527-0.423l3.014,0.333
		c0.318,0.039,0.45,0.214,0.417,0.532l-0.25,2.22c-0.087,0.782,0.31,1.225,1.033,1.302l1.393,0.14
		c0.757,0.093,1.209-0.241,1.288-1.022l0.434-3.859l-6.64-3.027c-0.5-0.244-0.716-0.615-0.659-1.161l0.764-6.848
		c0.296-2.739,1.939-4.021,4.621-3.72L145.309,271.019z"/>
</g>
<g>
	<defs>
		<rect id="SVGID_7_" width="311.285" height="342.105"/>
	</defs>
	<clipPath id="SVGID_58_">
		<use xlink:href="#SVGID_7_"  overflow="visible"/>
	</clipPath>
	<path clip-path="url(#SVGID_58_)" fill="#D59B3C" d="M174.543,269.717c0.322-0.039,0.505,0.102,0.539,0.399l0.403,2.895
		c0.039,0.275-0.082,0.465-0.403,0.52l-3.341,0.473l2.662,18.795c0.051,0.318-0.058,0.481-0.383,0.521l-3,0.441
		c-0.278,0.038-0.479-0.082-0.546-0.407l-2.635-18.788l-3.363,0.461c-0.279,0.043-0.479-0.097-0.519-0.403l-0.415-2.883
		c-0.051-0.278,0.108-0.479,0.403-0.519L174.543,269.717z"/>
</g>
<g>
	<defs>
		<rect id="SVGID_6_" width="311.285" height="342.105"/>
	</defs>
	<clipPath id="SVGID_59_">
		<use xlink:href="#SVGID_6_"  overflow="visible"/>
	</clipPath>
	<path clip-path="url(#SVGID_59_)" fill="#D59B3C" d="M200.853,264.313c0.105,0.251,0.089,0.511-0.237,0.623l-6.722,2.848
		l2.282,5.382l5.13-2.161c0.271-0.124,0.488-0.031,0.612,0.256l1.14,2.662c0.12,0.29,0.03,0.53-0.232,0.639l-5.142,2.185
		l2.298,5.433l6.727-2.852c0.332-0.14,0.488-0.055,0.607,0.244l1.143,2.692c0.108,0.26,0.078,0.462-0.248,0.601l-9.896,4.196
		c-0.244,0.105-0.473,0-0.581-0.247l-8.745-20.652c-0.12-0.271-0.034-0.504,0.221-0.604l9.889-4.2
		c0.317-0.133,0.504-0.012,0.619,0.256L200.853,264.313z"/>
</g>
<g>
	<defs>
		<rect id="SVGID_5_" width="311.285" height="342.105"/>
	</defs>
	<clipPath id="SVGID_60_">
		<use xlink:href="#SVGID_5_"  overflow="visible"/>
	</clipPath>
	<path clip-path="url(#SVGID_60_)" fill="#D59B3C" d="M227.7,266.358l5.464-4.281c0.256-0.202,0.465-0.14,0.658,0.081l1.79,2.306
		c0.193,0.244,0.178,0.457-0.078,0.636l-8.217,6.439c-0.237,0.186-0.462,0.186-0.651-0.077l-13.821-17.63
		c-0.179-0.24-0.147-0.481,0.085-0.659l2.396-1.875c0.247-0.186,0.472-0.147,0.649,0.086L227.7,266.358z"/>
</g>
<g>
	<defs>
		<rect id="SVGID_4_" width="311.285" height="342.105"/>
	</defs>
	<clipPath id="SVGID_61_">
		<use xlink:href="#SVGID_4_"  overflow="visible"/>
	</clipPath>
	<path clip-path="url(#SVGID_61_)" d="M72.895,136.341v25.596h25.108c1.317,0,2.106,0.802,2.106,2.245v13.016
		c0,1.449-0.789,2.247-2.106,2.247H72.895v26.558h32.893c1.559,0,2.086,0.659,2.086,2.092v13.158c0,1.317-0.527,2.097-2.086,2.097
		H57.369c-1.178,0-1.979-0.779-1.979-2.097v-98.5c0-1.341,0.802-2.098,1.979-2.098c0,0,28.5-5.187,48.415-6.635
		c1.56,0,2.086,0.79,2.086,2.092v13.812c0,1.317-0.527,2.113-2.086,2.257C91.218,133.41,72.895,136.341,72.895,136.341"/>
</g>
<g>
	<defs>
		<rect id="SVGID_3_" width="311.285" height="342.105"/>
	</defs>
	<clipPath id="SVGID_62_">
		<use xlink:href="#SVGID_3_"  overflow="visible"/>
	</clipPath>
	<path clip-path="url(#SVGID_62_)" d="M161.459,111.187c12.345,0,18.915,6.705,18.915,19.069v74.166
		c0,12.352-6.57,18.928-18.915,18.928h-31.582c-1.443,0-2.102-0.658-2.102-2.097V113.631c0-1.298,0.659-2.104,2.102-2.104
		C129.877,111.524,152.589,110.766,161.459,111.187 M157.762,206.002c3.433,0,5.266-1.722,5.266-5.263v-66.141
		c0-3.555-1.833-5.388-5.266-5.388l-12.092,0.083v76.708H157.762z"/>
</g>
<g>
	<defs>
		<rect id="SVGID_2_" width="311.285" height="342.105"/>
	</defs>
	<clipPath id="SVGID_63_">
		<use xlink:href="#SVGID_2_"  overflow="visible"/>
	</clipPath>
	<path clip-path="url(#SVGID_63_)" d="M235.278,117.8c12.292,1.31,18.933,7.472,18.933,19.842v66.779
		c0,12.356-6.564,18.931-18.933,18.931H203.7c-1.425,0-2.084-0.658-2.084-2.1V116.043c0-1.333,0.659-2.131,2.084-2.131
		C203.7,113.908,227.731,116.59,235.278,117.8 M231.617,206.002c3.398,0,5.247-1.722,5.247-5.263v-59.43
		c0-3.573-1.786-5.167-5.247-5.75l-12.124-1.718v72.161H231.617z"/>
</g>
<g>
	<defs>
		<rect id="SVGID_1_" width="311.285" height="342.105"/>
	</defs>
	<clipPath id="SVGID_64_">
		<use xlink:href="#SVGID_1_"  overflow="visible"/>
	</clipPath>
	<path clip-path="url(#SVGID_64_)" d="M307.101,94.956c-2.24-5.793-5.382-11.154-9.326-15.946
		c-6.724-8.139-13.644-11.999-14.689-12.558L184.086,8.086c0,0-12.309-8.083-28.445-8.083c-16.14,0-28.444,8.083-28.444,8.083
		L28.198,66.451c-1.044,0.56-7.966,4.419-14.693,12.558c-3.938,4.792-7.082,10.153-9.322,15.946C1.4,102.1,0,109.905,0,118.174
		V223.95c0,8.245,1.4,16.057,4.183,23.198c2.241,5.796,5.384,11.155,9.322,15.951c6.727,8.149,13.648,12.008,14.693,12.569
		l98.999,58.354c0,0,12.308,8.09,28.444,8.09c16.137,0,28.445-8.09,28.445-8.09l98.999-58.354c1.046-0.562,7.966-4.42,14.689-12.569
		c3.94-4.789,7.083-10.155,9.326-15.951c2.782-7.142,4.185-14.953,4.185-23.198V118.174
		C311.285,109.905,309.89,102.1,307.101,94.956 M299.738,223.95c0,12.321-3.642,23-10.834,31.741
		c-5.524,6.715-11.175,9.732-11.236,9.765l-98.223,57.88c0,0-10.5,7.223-23.801,7.223c-13.3,0-23.806-7.223-23.806-7.223
		l-98.219-57.88c-0.061-0.032-5.713-3.05-11.237-9.765c-7.193-8.741-10.835-19.42-10.835-31.741V118.174
		c0-12.333,3.643-23.018,10.835-31.763c5.524-6.706,11.177-9.724,11.237-9.768l98.219-57.865c0,0,10.506-7.22,23.806-7.22
		c13.301,0,23.801,7.22,23.801,7.22l98.223,57.865c0.062,0.044,5.712,3.062,11.236,9.768c7.192,8.745,10.834,19.429,10.834,31.763
		V223.95L299.738,223.95z"/>
</g>
</svg>
